<svg width="162" height="57" viewBox="0 0 162 57" fill="none" xmlns="http://www.w3.org/2000/svg">
<rect width="63" height="50" fill="url(#paint0_linear_119_512)"/>
<path d="M9.2 19H13.2V43.52H28.36V47H9.2V19ZM45.3622 47.32C42.5622 47.32 40.0289 46.7067 37.7622 45.48C35.5222 44.2267 33.7622 42.52 32.4822 40.36C31.2022 38.1733 30.5622 35.72 30.5622 33C30.5622 30.28 31.2022 27.84 32.4822 25.68C33.7622 23.4933 35.5355 21.7867 37.8022 20.56C40.0689 19.3067 42.6022 18.68 45.4022 18.68C47.5889 18.68 49.5889 19.0533 51.4022 19.8C53.2155 20.52 54.7622 21.6 56.0422 23.04L53.4422 25.56C51.3355 23.3467 48.7089 22.24 45.5622 22.24C43.4822 22.24 41.6022 22.7067 39.9222 23.64C38.2422 24.5733 36.9222 25.8667 35.9622 27.52C35.0289 29.1467 34.5622 30.9733 34.5622 33C34.5622 35.0267 35.0289 36.8667 35.9622 38.52C36.9222 40.1467 38.2422 41.4267 39.9222 42.36C41.6022 43.2933 43.4822 43.76 45.5622 43.76C48.6822 43.76 51.3089 42.64 53.4422 40.4L56.0422 42.92C54.7622 44.36 53.2022 45.4533 51.3622 46.2C49.5489 46.9467 47.5489 47.32 45.3622 47.32Z" fill="white"/>
<path d="M69.2 19H81C83.96 19 86.5867 19.5867 88.88 20.76C91.1733 21.9333 92.9467 23.5867 94.2 25.72C95.48 27.8267 96.12 30.2533 96.12 33C96.12 35.7467 95.48 38.1867 94.2 40.32C92.9467 42.4267 91.1733 44.0667 88.88 45.24C86.5867 46.4133 83.96 47 81 47H69.2V19ZM80.76 43.52C83.0267 43.52 85.0133 43.08 86.72 42.2C88.4533 41.32 89.7867 40.0933 90.72 38.52C91.6533 36.92 92.12 35.08 92.12 33C92.12 30.92 91.6533 29.0933 90.72 27.52C89.7867 25.92 88.4533 24.68 86.72 23.8C85.0133 22.92 83.0267 22.48 80.76 22.48H73.2V43.52H80.76ZM115.287 47.32C112.46 47.32 109.914 46.7067 107.647 45.48C105.38 44.2267 103.594 42.5067 102.287 40.32C101.007 38.1333 100.367 35.6933 100.367 33C100.367 30.3067 101.007 27.8667 102.287 25.68C103.594 23.4933 105.38 21.7867 107.647 20.56C109.914 19.3067 112.46 18.68 115.287 18.68C118.087 18.68 120.62 19.3067 122.887 20.56C125.154 21.7867 126.927 23.4933 128.207 25.68C129.487 27.84 130.127 30.28 130.127 33C130.127 35.72 129.487 38.1733 128.207 40.36C126.927 42.52 125.154 44.2267 122.887 45.48C120.62 46.7067 118.087 47.32 115.287 47.32ZM115.287 43.76C117.34 43.76 119.18 43.2933 120.807 42.36C122.46 41.4267 123.754 40.1467 124.687 38.52C125.647 36.8667 126.127 35.0267 126.127 33C126.127 30.9733 125.647 29.1467 124.687 27.52C123.754 25.8667 122.46 24.5733 120.807 23.64C119.18 22.7067 117.34 22.24 115.287 22.24C113.234 22.24 111.367 22.7067 109.687 23.64C108.034 24.5733 106.727 25.8667 105.767 27.52C104.834 29.1467 104.367 30.9733 104.367 33C104.367 35.0267 104.834 36.8667 105.767 38.52C106.727 40.1467 108.034 41.4267 109.687 42.36C111.367 43.2933 113.234 43.76 115.287 43.76ZM149.161 47.32C146.361 47.32 143.827 46.7067 141.561 45.48C139.321 44.2267 137.561 42.52 136.281 40.36C135.001 38.1733 134.361 35.72 134.361 33C134.361 30.28 135.001 27.84 136.281 25.68C137.561 23.4933 139.334 21.7867 141.601 20.56C143.867 19.3067 146.401 18.68 149.201 18.68C151.387 18.68 153.387 19.0533 155.201 19.8C157.014 20.52 158.561 21.6 159.841 23.04L157.241 25.56C155.134 23.3467 152.507 22.24 149.361 22.24C147.281 22.24 145.401 22.7067 143.721 23.64C142.041 24.5733 140.721 25.8667 139.761 27.52C138.827 29.1467 138.361 30.9733 138.361 33C138.361 35.0267 138.827 36.8667 139.761 38.52C140.721 40.1467 142.041 41.4267 143.721 42.36C145.401 43.2933 147.281 43.76 149.361 43.76C152.481 43.76 155.107 42.64 157.241 40.4L159.841 42.92C158.561 44.36 157.001 45.4533 155.161 46.2C153.347 46.9467 151.347 47.32 149.161 47.32Z" fill="black"/>
<defs>
<linearGradient id="paint0_linear_119_512" x1="0" y1="25.3334" x2="67.1236" y2="25.3334" gradientUnits="userSpaceOnUse">
<stop stop-color="#7AB478"/>
<stop offset="1" stop-color="#365435"/>
</linearGradient>
</defs>
</svg>
