<svg width="36" height="36" viewBox="0 0 36 36" fill="none" xmlns="http://www.w3.org/2000/svg">
<rect x="0.000610352" width="36" height="36" rx="12" fill="#EBEBEB" fill-opacity="0.4"/>
<path d="M16.1466 9.24792C16.2961 8.87864 16.5523 8.56238 16.8827 8.3397C17.213 8.11701 17.6023 7.99805 18.0006 7.99805C18.399 7.99805 18.7883 8.11701 19.1186 8.3397C19.4489 8.56238 19.7052 8.87864 19.8546 9.24792C21.3334 9.65461 22.6378 10.5355 23.5674 11.7553C24.4971 12.975 25.0006 14.4663 25.0006 15.9999V20.6969L26.8326 23.4449C26.9331 23.5955 26.9908 23.7706 26.9996 23.9514C27.0084 24.1322 26.9679 24.3121 26.8825 24.4717C26.7971 24.6313 26.67 24.7648 26.5146 24.8578C26.3593 24.9508 26.1817 25 26.0006 24.9999H21.4656C21.3452 25.833 20.9287 26.5949 20.2923 27.1459C19.656 27.6969 18.8424 28.0001 18.0006 28.0001C17.1589 28.0001 16.3453 27.6969 15.7089 27.1459C15.0726 26.5949 14.656 25.833 14.5356 24.9999H10.0006C9.8196 25 9.64194 24.9508 9.48663 24.8578C9.33132 24.7648 9.20417 24.6313 9.11876 24.4717C9.03335 24.3121 8.99288 24.1322 9.00167 23.9514C9.01045 23.7706 9.06816 23.5955 9.16864 23.4449L11.0006 20.6969V15.9999C11.0006 12.7759 13.1806 10.0599 16.1466 9.24792ZM16.5866 24.9999C16.6899 25.2926 16.8814 25.546 17.1348 25.7252C17.3881 25.9045 17.6908 26.0007 18.0011 26.0007C18.3115 26.0007 18.6142 25.9045 18.8675 25.7252C19.1209 25.546 19.3124 25.2926 19.4156 24.9999H16.5856H16.5866ZM18.0006 10.9999C16.6746 10.9999 15.4028 11.5267 14.4651 12.4644C13.5274 13.4021 13.0006 14.6738 13.0006 15.9999V20.9999C13.0007 21.1975 12.9422 21.3906 12.8326 21.5549L11.8696 22.9999H24.1306L23.1676 21.5549C23.0584 21.3905 23.0003 21.1974 23.0006 20.9999V15.9999C23.0006 14.6738 22.4739 13.4021 21.5362 12.4644C20.5985 11.5267 19.3267 10.9999 18.0006 10.9999Z" fill="black"/>
<circle cx="23.0006" cy="12" r="3.5" fill="#FF0000" stroke="#EBEBEB"/>
</svg>
