<svg width="1004" height="510" viewBox="0 0 1004 510" fill="none" xmlns="http://www.w3.org/2000/svg">
<path d="M30.5582 491.165H984.036" stroke="#CCCCCC" stroke-dasharray="4 2"/>
<path d="M30.5582 370.347H984.036" stroke="#CCCCCC" stroke-dasharray="4 2"/>
<path d="M30.5582 249.527H984.036" stroke="#CCCCCC" stroke-dasharray="4 2"/>
<path d="M30.5582 128.709H984.036" stroke="#CCCCCC" stroke-dasharray="4 2"/>
<path d="M30.5583 7.89062H984.036" stroke="#CCCCCC" stroke-dasharray="4 2"/>
<path d="M31.0189 7.43164V491.625" stroke="#CCCCCC" stroke-dasharray="4 2"/>
<path d="M189.778 7.43164V491.625" stroke="#CCCCCC" stroke-dasharray="4 2"/>
<path d="M348.538 7.43164V491.625" stroke="#CCCCCC" stroke-dasharray="4 2"/>
<path d="M507.297 7.43164V491.625" stroke="#CCCCCC" stroke-dasharray="4 2"/>
<path d="M666.056 7.43164V491.625" stroke="#CCCCCC" stroke-dasharray="4 2"/>
<path d="M824.816 7.43164V491.625" stroke="#CCCCCC" stroke-dasharray="4 2"/>
<path d="M983.575 7.43164V491.625" stroke="#CCCCCC" stroke-dasharray="4 2"/>
<path d="M20.6604 490.329V491.63C20.6604 492.329 20.5979 492.919 20.4729 493.399C20.3479 493.88 20.1682 494.267 19.9338 494.56C19.6994 494.853 19.4162 495.065 19.0842 495.198C18.7561 495.327 18.385 495.392 17.9709 495.392C17.6428 495.392 17.3401 495.351 17.0627 495.269C16.7854 495.187 16.5354 495.056 16.3127 494.876C16.094 494.692 15.9065 494.454 15.7502 494.161C15.594 493.868 15.4748 493.513 15.3928 493.095C15.3108 492.677 15.2697 492.188 15.2697 491.63V490.329C15.2697 489.63 15.3322 489.044 15.4572 488.571C15.5862 488.099 15.7678 487.72 16.0022 487.435C16.2365 487.146 16.5178 486.938 16.8459 486.813C17.178 486.688 17.549 486.626 17.9592 486.626C18.2912 486.626 18.5959 486.667 18.8733 486.749C19.1545 486.827 19.4045 486.954 19.6233 487.13C19.842 487.302 20.0276 487.532 20.1799 487.821C20.3362 488.106 20.4553 488.456 20.5373 488.87C20.6194 489.284 20.6604 489.771 20.6604 490.329ZM19.5705 491.806V490.147C19.5705 489.765 19.5471 489.429 19.5002 489.14C19.4572 488.847 19.3928 488.597 19.3069 488.39C19.2209 488.183 19.1115 488.015 18.9787 487.886C18.8498 487.757 18.6994 487.663 18.5276 487.604C18.3596 487.542 18.1701 487.511 17.9592 487.511C17.7014 487.511 17.4729 487.56 17.2737 487.657C17.0744 487.751 16.9065 487.901 16.7697 488.108C16.6369 488.315 16.5354 488.587 16.4651 488.923C16.3947 489.259 16.3596 489.667 16.3596 490.147V491.806C16.3596 492.188 16.3811 492.526 16.424 492.819C16.4709 493.112 16.5393 493.366 16.6291 493.581C16.719 493.792 16.8283 493.966 16.9572 494.103C17.0862 494.239 17.2346 494.341 17.4026 494.407C17.5744 494.47 17.7639 494.501 17.9709 494.501C18.2365 494.501 18.469 494.45 18.6682 494.349C18.8674 494.247 19.0334 494.089 19.1662 493.874C19.303 493.655 19.4045 493.376 19.4709 493.036C19.5373 492.692 19.5705 492.282 19.5705 491.806Z" fill="#333333"/>
<path d="M13.2475 372.565V373.456H7.66348V372.677L10.4584 369.565C10.8022 369.183 11.0678 368.858 11.2553 368.593C11.4467 368.323 11.5795 368.083 11.6537 367.872C11.7318 367.657 11.7709 367.438 11.7709 367.216C11.7709 366.935 11.7123 366.681 11.5951 366.454C11.4818 366.224 11.3139 366.04 11.0912 365.903C10.8686 365.767 10.599 365.698 10.2826 365.698C9.90372 365.698 9.58731 365.772 9.3334 365.921C9.0834 366.065 8.8959 366.269 8.7709 366.53C8.6459 366.792 8.5834 367.093 8.5834 367.433H7.49942C7.49942 366.952 7.60489 366.513 7.81583 366.114C8.02676 365.716 8.33926 365.399 8.75333 365.165C9.16739 364.927 9.67715 364.808 10.2826 364.808C10.8217 364.808 11.2826 364.903 11.6654 365.095C12.0482 365.282 12.3412 365.548 12.5443 365.892C12.7514 366.231 12.8549 366.63 12.8549 367.087C12.8549 367.337 12.8119 367.591 12.726 367.849C12.644 368.103 12.5287 368.356 12.3803 368.61C12.2357 368.864 12.0658 369.114 11.8705 369.36C11.6791 369.606 11.474 369.849 11.2553 370.087L8.97012 372.565H13.2475ZM15.7787 369.396L14.9115 369.173L15.3393 364.925H19.7162V365.927H16.2592L16.0014 368.247C16.1576 368.157 16.3549 368.073 16.5932 367.995C16.8354 367.917 17.1127 367.878 17.4252 367.878C17.8197 367.878 18.1732 367.946 18.4857 368.083C18.7982 368.216 19.0639 368.407 19.2826 368.657C19.5053 368.907 19.6752 369.208 19.7924 369.56C19.9096 369.911 19.9682 370.304 19.9682 370.737C19.9682 371.147 19.9115 371.524 19.7982 371.868C19.6889 372.212 19.5229 372.513 19.3002 372.771C19.0775 373.024 18.7963 373.222 18.4565 373.362C18.1205 373.503 17.724 373.573 17.267 373.573C16.9232 373.573 16.5971 373.526 16.2885 373.433C15.9838 373.335 15.7104 373.188 15.4682 372.993C15.2299 372.794 15.0346 372.548 14.8822 372.255C14.7338 371.958 14.64 371.61 14.601 371.212H15.6322C15.6791 371.532 15.7729 371.802 15.9135 372.021C16.0541 372.239 16.2377 372.405 16.4643 372.519C16.6947 372.628 16.9623 372.683 17.267 372.683C17.5248 372.683 17.7533 372.638 17.9525 372.548C18.1518 372.458 18.3197 372.329 18.4565 372.161C18.5932 371.993 18.6967 371.79 18.767 371.552C18.8412 371.313 18.8783 371.046 18.8783 370.749C18.8783 370.479 18.8412 370.229 18.767 369.999C18.6928 369.769 18.5815 369.567 18.433 369.396C18.2885 369.224 18.1107 369.091 17.8998 368.997C17.6889 368.899 17.4467 368.851 17.1732 368.851C16.81 368.851 16.5346 368.899 16.3471 368.997C16.1635 369.095 15.974 369.228 15.7787 369.396Z" fill="#333333"/>
<path d="M9.02872 248.576L8.16153 248.354L8.58926 244.105H12.9662V245.107H9.50919L9.25137 247.428C9.40762 247.338 9.60489 247.254 9.84317 247.176C10.0854 247.098 10.3627 247.059 10.6752 247.059C11.0697 247.059 11.4232 247.127 11.7357 247.264C12.0482 247.396 12.3139 247.588 12.5326 247.838C12.7553 248.088 12.9252 248.389 13.0424 248.74C13.1596 249.092 13.2182 249.484 13.2182 249.918C13.2182 250.328 13.1615 250.705 13.0482 251.049C12.9389 251.393 12.7729 251.693 12.5502 251.951C12.3275 252.205 12.0463 252.402 11.7065 252.543C11.3705 252.684 10.974 252.754 10.517 252.754C10.1732 252.754 9.84708 252.707 9.53848 252.613C9.2338 252.516 8.96036 252.369 8.71817 252.174C8.47989 251.975 8.28458 251.729 8.13223 251.436C7.9838 251.139 7.89005 250.791 7.85098 250.393H8.88223C8.92911 250.713 9.02286 250.982 9.16348 251.201C9.30411 251.42 9.4877 251.586 9.71426 251.699C9.94473 251.809 10.2123 251.863 10.517 251.863C10.7748 251.863 11.0033 251.818 11.2025 251.729C11.4018 251.639 11.5697 251.51 11.7065 251.342C11.8432 251.174 11.9467 250.971 12.017 250.732C12.0912 250.494 12.1283 250.227 12.1283 249.93C12.1283 249.66 12.0912 249.41 12.017 249.18C11.9428 248.949 11.8315 248.748 11.683 248.576C11.5385 248.404 11.3607 248.271 11.1498 248.178C10.9389 248.08 10.6967 248.031 10.4232 248.031C10.06 248.031 9.78458 248.08 9.59708 248.178C9.41348 248.275 9.22403 248.408 9.02872 248.576ZM19.7631 247.691V248.992C19.7631 249.691 19.7006 250.281 19.5756 250.762C19.4506 251.242 19.2709 251.629 19.0365 251.922C18.8022 252.215 18.519 252.428 18.1869 252.561C17.8588 252.689 17.4877 252.754 17.0736 252.754C16.7455 252.754 16.4428 252.713 16.1654 252.631C15.8881 252.549 15.6381 252.418 15.4154 252.238C15.1967 252.055 15.0092 251.816 14.8529 251.523C14.6967 251.23 14.5775 250.875 14.4955 250.457C14.4135 250.039 14.3725 249.551 14.3725 248.992V247.691C14.3725 246.992 14.435 246.406 14.56 245.934C14.6889 245.461 14.8705 245.082 15.1049 244.797C15.3393 244.508 15.6205 244.301 15.9486 244.176C16.2807 244.051 16.6518 243.988 17.0619 243.988C17.394 243.988 17.6986 244.029 17.976 244.111C18.2572 244.189 18.5072 244.316 18.726 244.492C18.9447 244.664 19.1303 244.895 19.2826 245.184C19.4389 245.469 19.558 245.818 19.64 246.232C19.7221 246.646 19.7631 247.133 19.7631 247.691ZM18.6732 249.168V247.51C18.6732 247.127 18.6498 246.791 18.6029 246.502C18.56 246.209 18.4955 245.959 18.4096 245.752C18.3236 245.545 18.2143 245.377 18.0815 245.248C17.9525 245.119 17.8022 245.025 17.6303 244.967C17.4623 244.904 17.2729 244.873 17.0619 244.873C16.8041 244.873 16.5756 244.922 16.3764 245.02C16.1772 245.113 16.0092 245.264 15.8725 245.471C15.7397 245.678 15.6381 245.949 15.5678 246.285C15.4975 246.621 15.4623 247.029 15.4623 247.51V249.168C15.4623 249.551 15.4838 249.889 15.5268 250.182C15.5736 250.475 15.642 250.729 15.7318 250.943C15.8217 251.154 15.9311 251.328 16.06 251.465C16.1889 251.602 16.3373 251.703 16.5053 251.77C16.6772 251.832 16.8666 251.863 17.0736 251.863C17.3393 251.863 17.5717 251.812 17.7709 251.711C17.9701 251.609 18.1361 251.451 18.269 251.236C18.4057 251.018 18.5072 250.738 18.5736 250.398C18.64 250.055 18.6732 249.645 18.6732 249.168Z" fill="#333333"/>
<path d="M13.1713 123.287V123.896L9.63809 131.818H8.49551L12.0229 124.178H7.40567V123.287H13.1713ZM15.7787 127.758L14.9115 127.535L15.3393 123.287H19.7162V124.289H16.2592L16.0014 126.609C16.1576 126.52 16.3549 126.436 16.5932 126.357C16.8354 126.279 17.1127 126.24 17.4252 126.24C17.8197 126.24 18.1732 126.309 18.4857 126.445C18.7982 126.578 19.0639 126.77 19.2826 127.02C19.5053 127.27 19.6752 127.57 19.7924 127.922C19.9096 128.273 19.9682 128.666 19.9682 129.1C19.9682 129.51 19.9115 129.887 19.7982 130.23C19.6889 130.574 19.5229 130.875 19.3002 131.133C19.0775 131.387 18.7963 131.584 18.4565 131.725C18.1205 131.865 17.724 131.936 17.267 131.936C16.9232 131.936 16.5971 131.889 16.2885 131.795C15.9838 131.697 15.7104 131.551 15.4682 131.355C15.2299 131.156 15.0346 130.91 14.8822 130.617C14.7338 130.32 14.64 129.973 14.601 129.574H15.6322C15.6791 129.895 15.7729 130.164 15.9135 130.383C16.0541 130.602 16.2377 130.768 16.4643 130.881C16.6947 130.99 16.9623 131.045 17.267 131.045C17.5248 131.045 17.7533 131 17.9525 130.91C18.1518 130.82 18.3197 130.691 18.4565 130.523C18.5932 130.355 18.6967 130.152 18.767 129.914C18.8412 129.676 18.8783 129.408 18.8783 129.111C18.8783 128.842 18.8412 128.592 18.767 128.361C18.6928 128.131 18.5815 127.93 18.433 127.758C18.2885 127.586 18.1107 127.453 17.8998 127.359C17.6889 127.262 17.4467 127.213 17.1732 127.213C16.81 127.213 16.5346 127.262 16.3471 127.359C16.1635 127.457 15.974 127.59 15.7787 127.758Z" fill="#333333"/>
<path d="M5.02148 2.42188V11H3.9375V3.77539L1.75195 4.57227V3.59375L4.85156 2.42188H5.02148ZM13.5645 6.05469V7.35547C13.5645 8.05469 13.502 8.64453 13.377 9.125C13.252 9.60547 13.0723 9.99219 12.8379 10.2852C12.6035 10.5781 12.3203 10.791 11.9883 10.9238C11.6602 11.0527 11.2891 11.1172 10.875 11.1172C10.5469 11.1172 10.2441 11.0762 9.9668 10.9941C9.68945 10.9121 9.43945 10.7812 9.2168 10.6016C8.99805 10.418 8.81055 10.1797 8.6543 9.88672C8.49805 9.59375 8.37891 9.23828 8.29688 8.82031C8.21484 8.40234 8.17383 7.91406 8.17383 7.35547V6.05469C8.17383 5.35547 8.23633 4.76953 8.36133 4.29688C8.49023 3.82422 8.67188 3.44531 8.90625 3.16016C9.14062 2.87109 9.42188 2.66406 9.75 2.53906C10.082 2.41406 10.4531 2.35156 10.8633 2.35156C11.1953 2.35156 11.5 2.39258 11.7773 2.47461C12.0586 2.55273 12.3086 2.67969 12.5273 2.85547C12.7461 3.02734 12.9316 3.25781 13.084 3.54688C13.2402 3.83203 13.3594 4.18164 13.4414 4.5957C13.5234 5.00977 13.5645 5.49609 13.5645 6.05469ZM12.4746 7.53125V5.87305C12.4746 5.49023 12.4512 5.1543 12.4043 4.86523C12.3613 4.57227 12.2969 4.32227 12.2109 4.11523C12.125 3.9082 12.0156 3.74023 11.8828 3.61133C11.7539 3.48242 11.6035 3.38867 11.4316 3.33008C11.2637 3.26758 11.0742 3.23633 10.8633 3.23633C10.6055 3.23633 10.377 3.28516 10.1777 3.38281C9.97852 3.47656 9.81055 3.62695 9.67383 3.83398C9.54102 4.04102 9.43945 4.3125 9.36914 4.64844C9.29883 4.98438 9.26367 5.39258 9.26367 5.87305V7.53125C9.26367 7.91406 9.28516 8.25195 9.32812 8.54492C9.375 8.83789 9.44336 9.0918 9.5332 9.30664C9.62305 9.51758 9.73242 9.69141 9.86133 9.82812C9.99023 9.96484 10.1387 10.0664 10.3066 10.1328C10.4785 10.1953 10.668 10.2266 10.875 10.2266C11.1406 10.2266 11.373 10.1758 11.5723 10.0742C11.7715 9.97266 11.9375 9.81445 12.0703 9.59961C12.207 9.38086 12.3086 9.10156 12.375 8.76172C12.4414 8.41797 12.4746 8.00781 12.4746 7.53125ZM20.3145 6.05469V7.35547C20.3145 8.05469 20.252 8.64453 20.127 9.125C20.002 9.60547 19.8223 9.99219 19.5879 10.2852C19.3535 10.5781 19.0703 10.791 18.7383 10.9238C18.4102 11.0527 18.0391 11.1172 17.625 11.1172C17.2969 11.1172 16.9941 11.0762 16.7168 10.9941C16.4395 10.9121 16.1895 10.7812 15.9668 10.6016C15.748 10.418 15.5605 10.1797 15.4043 9.88672C15.248 9.59375 15.1289 9.23828 15.0469 8.82031C14.9648 8.40234 14.9238 7.91406 14.9238 7.35547V6.05469C14.9238 5.35547 14.9863 4.76953 15.1113 4.29688C15.2402 3.82422 15.4219 3.44531 15.6562 3.16016C15.8906 2.87109 16.1719 2.66406 16.5 2.53906C16.832 2.41406 17.2031 2.35156 17.6133 2.35156C17.9453 2.35156 18.25 2.39258 18.5273 2.47461C18.8086 2.55273 19.0586 2.67969 19.2773 2.85547C19.4961 3.02734 19.6816 3.25781 19.834 3.54688C19.9902 3.83203 20.1094 4.18164 20.1914 4.5957C20.2734 5.00977 20.3145 5.49609 20.3145 6.05469ZM19.2246 7.53125V5.87305C19.2246 5.49023 19.2012 5.1543 19.1543 4.86523C19.1113 4.57227 19.0469 4.32227 18.9609 4.11523C18.875 3.9082 18.7656 3.74023 18.6328 3.61133C18.5039 3.48242 18.3535 3.38867 18.1816 3.33008C18.0137 3.26758 17.8242 3.23633 17.6133 3.23633C17.3555 3.23633 17.127 3.28516 16.9277 3.38281C16.7285 3.47656 16.5605 3.62695 16.4238 3.83398C16.291 4.04102 16.1895 4.3125 16.1191 4.64844C16.0488 4.98438 16.0137 5.39258 16.0137 5.87305V7.53125C16.0137 7.91406 16.0352 8.25195 16.0781 8.54492C16.125 8.83789 16.1934 9.0918 16.2832 9.30664C16.373 9.51758 16.4824 9.69141 16.6113 9.82812C16.7402 9.96484 16.8887 10.0664 17.0566 10.1328C17.2285 10.1953 17.418 10.2266 17.625 10.2266C17.8906 10.2266 18.123 10.1758 18.3223 10.0742C18.5215 9.97266 18.6875 9.81445 18.8203 9.59961C18.957 9.38086 19.0586 9.10156 19.125 8.76172C19.1914 8.41797 19.2246 8.00781 19.2246 7.53125Z" fill="#333333"/>
<path d="M11.4257 498.469H12.5214L15.3163 505.424L18.1054 498.469H19.207L15.7382 507H14.8828L11.4257 498.469ZM11.0683 498.469H12.0351L12.1933 503.672V507H11.0683V498.469ZM18.5917 498.469H19.5585V507H18.4335V503.672L18.5917 498.469ZM21.0937 503.9V503.766C21.0937 503.309 21.1601 502.885 21.2929 502.494C21.4257 502.1 21.6171 501.758 21.8671 501.469C22.1171 501.176 22.4199 500.949 22.7753 500.789C23.1308 500.625 23.5292 500.543 23.9706 500.543C24.416 500.543 24.8163 500.625 25.1718 500.789C25.5312 500.949 25.8359 501.176 26.0859 501.469C26.3398 501.758 26.5331 502.1 26.666 502.494C26.7988 502.885 26.8652 503.309 26.8652 503.766V503.9C26.8652 504.357 26.7988 504.781 26.666 505.172C26.5331 505.562 26.3398 505.904 26.0859 506.197C25.8359 506.486 25.5331 506.713 25.1777 506.877C24.8261 507.037 24.4277 507.117 23.9824 507.117C23.537 507.117 23.1367 507.037 22.7812 506.877C22.4257 506.713 22.121 506.486 21.8671 506.197C21.6171 505.904 21.4257 505.562 21.2929 505.172C21.1601 504.781 21.0937 504.357 21.0937 503.9ZM22.1777 503.766V503.9C22.1777 504.217 22.2148 504.516 22.289 504.797C22.3632 505.074 22.4745 505.32 22.623 505.535C22.7753 505.75 22.9648 505.92 23.1913 506.045C23.4179 506.166 23.6816 506.227 23.9824 506.227C24.2792 506.227 24.539 506.166 24.7617 506.045C24.9882 505.92 25.1757 505.75 25.3242 505.535C25.4726 505.32 25.5839 505.074 25.6581 504.797C25.7363 504.516 25.7753 504.217 25.7753 503.9V503.766C25.7753 503.453 25.7363 503.158 25.6581 502.881C25.5839 502.6 25.4706 502.352 25.3183 502.137C25.1699 501.918 24.9824 501.746 24.7558 501.621C24.5331 501.496 24.2714 501.434 23.9706 501.434C23.6738 501.434 23.412 501.496 23.1855 501.621C22.9628 501.746 22.7753 501.918 22.623 502.137C22.4745 502.352 22.3632 502.6 22.289 502.881C22.2148 503.158 22.1777 503.453 22.1777 503.766ZM29.3085 502.014V507H28.2245V500.66H29.2499L29.3085 502.014ZM29.0507 503.59L28.5995 503.572C28.6035 503.139 28.6679 502.738 28.7929 502.371C28.9179 502 29.0937 501.678 29.3203 501.404C29.5468 501.131 29.8163 500.92 30.1288 500.771C30.4453 500.619 30.7949 500.543 31.1777 500.543C31.4902 500.543 31.7714 500.586 32.0214 500.672C32.2714 500.754 32.4843 500.887 32.6601 501.07C32.8398 501.254 32.9765 501.492 33.0703 501.785C33.164 502.074 33.2109 502.428 33.2109 502.846V507H32.121V502.834C32.121 502.502 32.0722 502.236 31.9745 502.037C31.8769 501.834 31.7343 501.688 31.5468 501.598C31.3593 501.504 31.1288 501.457 30.8554 501.457C30.5859 501.457 30.3398 501.514 30.1171 501.627C29.8984 501.74 29.7089 501.896 29.5488 502.096C29.3925 502.295 29.2695 502.523 29.1796 502.781C29.0937 503.035 29.0507 503.305 29.0507 503.59ZM38.8535 505.77V498H39.9433V507H38.9472L38.8535 505.77ZM34.5878 503.9V503.777C34.5878 503.293 34.6464 502.854 34.7636 502.459C34.8847 502.061 35.0546 501.719 35.2734 501.434C35.496 501.148 35.7597 500.93 36.0644 500.777C36.373 500.621 36.7167 500.543 37.0956 500.543C37.4941 500.543 37.8417 500.613 38.1386 500.754C38.4394 500.891 38.6933 501.092 38.9003 501.357C39.1113 501.619 39.2773 501.936 39.3984 502.307C39.5195 502.678 39.6035 503.098 39.6503 503.566V504.105C39.6074 504.57 39.5234 504.988 39.3984 505.359C39.2773 505.73 39.1113 506.047 38.9003 506.309C38.6933 506.57 38.4394 506.771 38.1386 506.912C37.8378 507.049 37.4863 507.117 37.0839 507.117C36.7128 507.117 36.373 507.037 36.0644 506.877C35.7597 506.717 35.496 506.492 35.2734 506.203C35.0546 505.914 34.8847 505.574 34.7636 505.184C34.6464 504.789 34.5878 504.361 34.5878 503.9ZM35.6777 503.777V503.9C35.6777 504.217 35.7089 504.514 35.7714 504.791C35.8378 505.068 35.9394 505.312 36.0761 505.523C36.2128 505.734 36.3867 505.9 36.5976 506.021C36.8085 506.139 37.0605 506.197 37.3535 506.197C37.7128 506.197 38.0078 506.121 38.2382 505.969C38.4726 505.816 38.6601 505.615 38.8007 505.365C38.9413 505.115 39.0507 504.844 39.1288 504.551V503.139C39.082 502.924 39.0136 502.717 38.9238 502.518C38.8378 502.314 38.7245 502.135 38.5839 501.979C38.4472 501.818 38.2773 501.691 38.0742 501.598C37.8749 501.504 37.6386 501.457 37.3652 501.457C37.0683 501.457 36.8124 501.52 36.5976 501.645C36.3867 501.766 36.2128 501.934 36.0761 502.148C35.9394 502.359 35.8378 502.605 35.7714 502.887C35.7089 503.164 35.6777 503.461 35.6777 503.777ZM45.3691 505.916V502.652C45.3691 502.402 45.3183 502.186 45.2167 502.002C45.1191 501.814 44.9706 501.67 44.7714 501.568C44.5722 501.467 44.3261 501.416 44.0331 501.416C43.7597 501.416 43.5195 501.463 43.3124 501.557C43.1093 501.65 42.9492 501.773 42.832 501.926C42.7187 502.078 42.662 502.242 42.662 502.418H41.5781C41.5781 502.191 41.6367 501.967 41.7538 501.744C41.871 501.521 42.039 501.32 42.2578 501.141C42.4804 500.957 42.746 500.812 43.0546 500.707C43.3671 500.598 43.7148 500.543 44.0976 500.543C44.5585 500.543 44.9648 500.621 45.3163 500.777C45.6718 500.934 45.9492 501.17 46.1484 501.486C46.3515 501.799 46.4531 502.191 46.4531 502.664V505.617C46.4531 505.828 46.4706 506.053 46.5058 506.291C46.5449 506.529 46.6015 506.734 46.6757 506.906V507H45.5449C45.4902 506.875 45.4472 506.709 45.416 506.502C45.3847 506.291 45.3691 506.096 45.3691 505.916ZM45.5566 503.156L45.5683 503.918H44.4726C44.164 503.918 43.8886 503.943 43.6464 503.994C43.4042 504.041 43.2011 504.113 43.037 504.211C42.873 504.309 42.748 504.432 42.662 504.58C42.5761 504.725 42.5331 504.895 42.5331 505.09C42.5331 505.289 42.5781 505.471 42.6679 505.635C42.7578 505.799 42.8925 505.93 43.0722 506.027C43.2558 506.121 43.4804 506.168 43.746 506.168C44.0781 506.168 44.371 506.098 44.6249 505.957C44.8788 505.816 45.08 505.645 45.2285 505.441C45.3808 505.238 45.4628 505.041 45.4745 504.85L45.9374 505.371C45.9101 505.535 45.8359 505.717 45.7148 505.916C45.5937 506.115 45.4316 506.307 45.2285 506.49C45.0292 506.67 44.791 506.82 44.5136 506.941C44.2402 507.059 43.9316 507.117 43.5878 507.117C43.1581 507.117 42.7812 507.033 42.457 506.865C42.1367 506.697 41.8867 506.473 41.707 506.191C41.5312 505.906 41.4433 505.588 41.4433 505.236C41.4433 504.896 41.5097 504.598 41.6425 504.34C41.7753 504.078 41.9667 503.861 42.2167 503.689C42.4667 503.514 42.7675 503.381 43.1191 503.291C43.4706 503.201 43.8632 503.156 44.2968 503.156H45.5566ZM49.8456 506.344L51.6093 500.66H52.7695L50.2265 507.979C50.1679 508.135 50.0898 508.303 49.9921 508.482C49.8984 508.666 49.7773 508.84 49.6288 509.004C49.4804 509.168 49.3007 509.301 49.0898 509.402C48.8828 509.508 48.6347 509.561 48.3456 509.561C48.2597 509.561 48.1503 509.549 48.0175 509.525C47.8847 509.502 47.791 509.482 47.7363 509.467L47.7304 508.588C47.7617 508.592 47.8105 508.596 47.8769 508.6C47.9472 508.607 47.996 508.611 48.0234 508.611C48.2695 508.611 48.4785 508.578 48.6503 508.512C48.8222 508.449 48.9667 508.342 49.0839 508.189C49.205 508.041 49.3085 507.836 49.3945 507.574L49.8456 506.344ZM48.5507 500.66L50.1972 505.582L50.4785 506.725L49.6992 507.123L47.3671 500.66H48.5507Z" fill="#333333"/>
<path d="M171.807 498.469V507H170.693V498.469H171.807ZM174.549 498.469V499.395H167.957V498.469H174.549ZM178.967 505.535V500.66H180.057V507H179.019L178.967 505.535ZM179.172 504.199L179.623 504.188C179.623 504.609 179.578 505 179.488 505.359C179.402 505.715 179.262 506.023 179.066 506.285C178.871 506.547 178.615 506.752 178.299 506.9C177.982 507.045 177.598 507.117 177.144 507.117C176.836 507.117 176.553 507.072 176.295 506.982C176.041 506.893 175.822 506.754 175.639 506.566C175.455 506.379 175.312 506.135 175.211 505.834C175.113 505.533 175.064 505.172 175.064 504.75V500.66H176.148V504.762C176.148 505.047 176.18 505.283 176.242 505.471C176.309 505.654 176.396 505.801 176.506 505.91C176.619 506.016 176.744 506.09 176.881 506.133C177.021 506.176 177.166 506.197 177.314 506.197C177.775 506.197 178.141 506.109 178.41 505.934C178.68 505.754 178.873 505.514 178.99 505.213C179.111 504.908 179.172 504.57 179.172 504.199ZM184.34 507.117C183.898 507.117 183.498 507.043 183.139 506.895C182.783 506.742 182.477 506.529 182.219 506.256C181.965 505.982 181.769 505.658 181.633 505.283C181.496 504.908 181.428 504.498 181.428 504.053V503.807C181.428 503.291 181.504 502.832 181.656 502.43C181.809 502.023 182.016 501.68 182.277 501.398C182.539 501.117 182.836 500.904 183.168 500.76C183.5 500.615 183.844 500.543 184.199 500.543C184.652 500.543 185.043 500.621 185.371 500.777C185.703 500.934 185.975 501.152 186.185 501.434C186.396 501.711 186.553 502.039 186.654 502.418C186.756 502.793 186.807 503.203 186.807 503.648V504.135H182.072V503.25H185.723V503.168C185.707 502.887 185.648 502.613 185.547 502.348C185.449 502.082 185.293 501.863 185.078 501.691C184.863 501.52 184.57 501.434 184.199 501.434C183.953 501.434 183.727 501.486 183.519 501.592C183.312 501.693 183.135 501.846 182.986 502.049C182.838 502.252 182.723 502.5 182.641 502.793C182.559 503.086 182.518 503.424 182.518 503.807V504.053C182.518 504.354 182.559 504.637 182.641 504.902C182.727 505.164 182.85 505.395 183.01 505.594C183.174 505.793 183.371 505.949 183.602 506.062C183.836 506.176 184.102 506.232 184.398 506.232C184.781 506.232 185.105 506.154 185.371 505.998C185.637 505.842 185.869 505.633 186.068 505.371L186.725 505.893C186.588 506.1 186.414 506.297 186.203 506.484C185.992 506.672 185.732 506.824 185.424 506.941C185.119 507.059 184.758 507.117 184.34 507.117ZM191.764 505.318C191.764 505.162 191.728 505.018 191.658 504.885C191.592 504.748 191.453 504.625 191.242 504.516C191.035 504.402 190.723 504.305 190.305 504.223C189.953 504.148 189.635 504.061 189.35 503.959C189.068 503.857 188.828 503.734 188.629 503.59C188.434 503.445 188.283 503.275 188.178 503.08C188.072 502.885 188.019 502.656 188.019 502.395C188.019 502.145 188.074 501.908 188.184 501.686C188.297 501.463 188.455 501.266 188.658 501.094C188.865 500.922 189.113 500.787 189.402 500.689C189.691 500.592 190.014 500.543 190.369 500.543C190.877 500.543 191.31 500.633 191.67 500.812C192.029 500.992 192.305 501.232 192.496 501.533C192.687 501.83 192.783 502.16 192.783 502.523H191.699C191.699 502.348 191.646 502.178 191.541 502.014C191.439 501.846 191.289 501.707 191.09 501.598C190.894 501.488 190.654 501.434 190.369 501.434C190.068 501.434 189.824 501.48 189.637 501.574C189.453 501.664 189.318 501.779 189.232 501.92C189.15 502.061 189.109 502.209 189.109 502.365C189.109 502.482 189.129 502.588 189.168 502.682C189.211 502.771 189.285 502.855 189.391 502.934C189.496 503.008 189.644 503.078 189.836 503.145C190.027 503.211 190.271 503.277 190.568 503.344C191.088 503.461 191.516 503.602 191.852 503.766C192.187 503.93 192.437 504.131 192.602 504.369C192.766 504.607 192.848 504.896 192.848 505.236C192.848 505.514 192.789 505.768 192.672 505.998C192.559 506.229 192.393 506.428 192.174 506.596C191.959 506.76 191.701 506.889 191.4 506.982C191.103 507.072 190.769 507.117 190.398 507.117C189.84 507.117 189.367 507.018 188.98 506.818C188.594 506.619 188.301 506.361 188.102 506.045C187.902 505.729 187.803 505.395 187.803 505.043H188.893C188.908 505.34 188.994 505.576 189.15 505.752C189.307 505.924 189.498 506.047 189.725 506.121C189.951 506.191 190.176 506.227 190.398 506.227C190.695 506.227 190.943 506.188 191.143 506.109C191.346 506.031 191.5 505.924 191.605 505.787C191.711 505.65 191.764 505.494 191.764 505.318ZM198.268 505.77V498H199.357V507H198.361L198.268 505.77ZM194.002 503.9V503.777C194.002 503.293 194.06 502.854 194.178 502.459C194.299 502.061 194.469 501.719 194.687 501.434C194.91 501.148 195.174 500.93 195.478 500.777C195.787 500.621 196.131 500.543 196.51 500.543C196.908 500.543 197.256 500.613 197.553 500.754C197.853 500.891 198.107 501.092 198.314 501.357C198.525 501.619 198.691 501.936 198.812 502.307C198.934 502.678 199.018 503.098 199.064 503.566V504.105C199.021 504.57 198.937 504.988 198.812 505.359C198.691 505.73 198.525 506.047 198.314 506.309C198.107 506.57 197.853 506.771 197.553 506.912C197.252 507.049 196.9 507.117 196.498 507.117C196.127 507.117 195.787 507.037 195.478 506.877C195.174 506.717 194.91 506.492 194.687 506.203C194.469 505.914 194.299 505.574 194.178 505.184C194.06 504.789 194.002 504.361 194.002 503.9ZM195.092 503.777V503.9C195.092 504.217 195.123 504.514 195.185 504.791C195.252 505.068 195.353 505.312 195.49 505.523C195.627 505.734 195.801 505.9 196.012 506.021C196.223 506.139 196.475 506.197 196.768 506.197C197.127 506.197 197.422 506.121 197.652 505.969C197.887 505.816 198.074 505.615 198.215 505.365C198.355 505.115 198.465 504.844 198.543 504.551V503.139C198.496 502.924 198.428 502.717 198.338 502.518C198.252 502.314 198.139 502.135 197.998 501.979C197.861 501.818 197.691 501.691 197.488 501.598C197.289 501.504 197.053 501.457 196.779 501.457C196.482 501.457 196.227 501.52 196.012 501.645C195.801 501.766 195.627 501.934 195.49 502.148C195.353 502.359 195.252 502.605 195.185 502.887C195.123 503.164 195.092 503.461 195.092 503.777ZM204.783 505.916V502.652C204.783 502.402 204.732 502.186 204.631 502.002C204.533 501.814 204.385 501.67 204.185 501.568C203.986 501.467 203.74 501.416 203.447 501.416C203.174 501.416 202.934 501.463 202.727 501.557C202.523 501.65 202.363 501.773 202.246 501.926C202.133 502.078 202.076 502.242 202.076 502.418H200.992C200.992 502.191 201.051 501.967 201.168 501.744C201.285 501.521 201.453 501.32 201.672 501.141C201.894 500.957 202.16 500.812 202.469 500.707C202.781 500.598 203.129 500.543 203.512 500.543C203.973 500.543 204.379 500.621 204.73 500.777C205.086 500.934 205.363 501.17 205.562 501.486C205.766 501.799 205.867 502.191 205.867 502.664V505.617C205.867 505.828 205.885 506.053 205.92 506.291C205.959 506.529 206.016 506.734 206.09 506.906V507H204.959C204.904 506.875 204.861 506.709 204.83 506.502C204.799 506.291 204.783 506.096 204.783 505.916ZM204.971 503.156L204.982 503.918H203.887C203.578 503.918 203.303 503.943 203.06 503.994C202.818 504.041 202.615 504.113 202.451 504.211C202.287 504.309 202.162 504.432 202.076 504.58C201.99 504.725 201.947 504.895 201.947 505.09C201.947 505.289 201.992 505.471 202.082 505.635C202.172 505.799 202.307 505.93 202.486 506.027C202.67 506.121 202.894 506.168 203.16 506.168C203.492 506.168 203.785 506.098 204.039 505.957C204.293 505.816 204.494 505.645 204.643 505.441C204.795 505.238 204.877 505.041 204.889 504.85L205.352 505.371C205.324 505.535 205.25 505.717 205.129 505.916C205.008 506.115 204.846 506.307 204.643 506.49C204.443 506.67 204.205 506.82 203.928 506.941C203.654 507.059 203.346 507.117 203.002 507.117C202.572 507.117 202.195 507.033 201.871 506.865C201.551 506.697 201.301 506.473 201.121 506.191C200.945 505.906 200.857 505.588 200.857 505.236C200.857 504.896 200.924 504.598 201.057 504.34C201.189 504.078 201.381 503.861 201.631 503.689C201.881 503.514 202.182 503.381 202.533 503.291C202.885 503.201 203.277 503.156 203.711 503.156H204.971ZM209.26 506.344L211.023 500.66H212.184L209.641 507.979C209.582 508.135 209.504 508.303 209.406 508.482C209.312 508.666 209.191 508.84 209.043 509.004C208.894 509.168 208.715 509.301 208.504 509.402C208.297 509.508 208.049 509.561 207.76 509.561C207.674 509.561 207.564 509.549 207.432 509.525C207.299 509.502 207.205 509.482 207.15 509.467L207.144 508.588C207.176 508.592 207.225 508.596 207.291 508.6C207.361 508.607 207.41 508.611 207.437 508.611C207.684 508.611 207.893 508.578 208.064 508.512C208.236 508.449 208.381 508.342 208.498 508.189C208.619 508.041 208.723 507.836 208.809 507.574L209.26 506.344ZM207.965 500.66L209.611 505.582L209.893 506.725L209.113 507.123L206.781 500.66H207.965Z" fill="#333333"/>
<path d="M320.891 504.422L322.584 498.469H323.404L322.93 500.783L321.107 507H320.293L320.891 504.422ZM319.139 498.469L320.486 504.305L320.891 507H320.082L318.014 498.469H319.139ZM325.596 504.299L326.914 498.469H328.045L325.982 507H325.174L325.596 504.299ZM323.527 498.469L325.174 504.422L325.771 507H324.957L323.199 500.783L322.719 498.469H323.527ZM331.578 507.117C331.137 507.117 330.736 507.043 330.377 506.895C330.021 506.742 329.715 506.529 329.457 506.256C329.203 505.982 329.008 505.658 328.871 505.283C328.734 504.908 328.666 504.498 328.666 504.053V503.807C328.666 503.291 328.742 502.832 328.894 502.43C329.047 502.023 329.254 501.68 329.516 501.398C329.777 501.117 330.074 500.904 330.406 500.76C330.738 500.615 331.082 500.543 331.437 500.543C331.891 500.543 332.281 500.621 332.609 500.777C332.941 500.934 333.213 501.152 333.424 501.434C333.635 501.711 333.791 502.039 333.893 502.418C333.994 502.793 334.045 503.203 334.045 503.648V504.135H329.31V503.25H332.961V503.168C332.945 502.887 332.887 502.613 332.785 502.348C332.687 502.082 332.531 501.863 332.316 501.691C332.102 501.52 331.809 501.434 331.437 501.434C331.191 501.434 330.965 501.486 330.758 501.592C330.551 501.693 330.373 501.846 330.225 502.049C330.076 502.252 329.961 502.5 329.879 502.793C329.797 503.086 329.756 503.424 329.756 503.807V504.053C329.756 504.354 329.797 504.637 329.879 504.902C329.965 505.164 330.088 505.395 330.248 505.594C330.412 505.793 330.609 505.949 330.84 506.062C331.074 506.176 331.34 506.232 331.637 506.232C332.019 506.232 332.344 506.154 332.609 505.998C332.875 505.842 333.107 505.633 333.307 505.371L333.963 505.893C333.826 506.1 333.652 506.297 333.441 506.484C333.23 506.672 332.971 506.824 332.662 506.941C332.357 507.059 331.996 507.117 331.578 507.117ZM339.307 505.77V498H340.396V507H339.4L339.307 505.77ZM335.041 503.9V503.777C335.041 503.293 335.1 502.854 335.217 502.459C335.338 502.061 335.508 501.719 335.727 501.434C335.949 501.148 336.213 500.93 336.518 500.777C336.826 500.621 337.17 500.543 337.549 500.543C337.947 500.543 338.295 500.613 338.592 500.754C338.893 500.891 339.146 501.092 339.353 501.357C339.564 501.619 339.73 501.936 339.852 502.307C339.973 502.678 340.057 503.098 340.103 503.566V504.105C340.06 504.57 339.977 504.988 339.852 505.359C339.73 505.73 339.564 506.047 339.353 506.309C339.146 506.57 338.893 506.771 338.592 506.912C338.291 507.049 337.939 507.117 337.537 507.117C337.166 507.117 336.826 507.037 336.518 506.877C336.213 506.717 335.949 506.492 335.727 506.203C335.508 505.914 335.338 505.574 335.217 505.184C335.1 504.789 335.041 504.361 335.041 503.9ZM336.131 503.777V503.9C336.131 504.217 336.162 504.514 336.225 504.791C336.291 505.068 336.393 505.312 336.529 505.523C336.666 505.734 336.84 505.9 337.051 506.021C337.262 506.139 337.514 506.197 337.807 506.197C338.166 506.197 338.461 506.121 338.691 505.969C338.926 505.816 339.113 505.615 339.254 505.365C339.394 505.115 339.504 504.844 339.582 504.551V503.139C339.535 502.924 339.467 502.717 339.377 502.518C339.291 502.314 339.178 502.135 339.037 501.979C338.9 501.818 338.73 501.691 338.527 501.598C338.328 501.504 338.092 501.457 337.818 501.457C337.521 501.457 337.266 501.52 337.051 501.645C336.84 501.766 336.666 501.934 336.529 502.148C336.393 502.359 336.291 502.605 336.225 502.887C336.162 503.164 336.131 503.461 336.131 503.777ZM343.168 502.014V507H342.084V500.66H343.109L343.168 502.014ZM342.91 503.59L342.459 503.572C342.463 503.139 342.527 502.738 342.652 502.371C342.777 502 342.953 501.678 343.18 501.404C343.406 501.131 343.676 500.92 343.988 500.771C344.305 500.619 344.654 500.543 345.037 500.543C345.35 500.543 345.631 500.586 345.881 500.672C346.131 500.754 346.344 500.887 346.519 501.07C346.699 501.254 346.836 501.492 346.93 501.785C347.023 502.074 347.07 502.428 347.07 502.846V507H345.98V502.834C345.98 502.502 345.932 502.236 345.834 502.037C345.736 501.834 345.594 501.688 345.406 501.598C345.219 501.504 344.988 501.457 344.715 501.457C344.445 501.457 344.199 501.514 343.977 501.627C343.758 501.74 343.568 501.896 343.408 502.096C343.252 502.295 343.129 502.523 343.039 502.781C342.953 503.035 342.91 503.305 342.91 503.59ZM351.348 507.117C350.906 507.117 350.506 507.043 350.146 506.895C349.791 506.742 349.484 506.529 349.227 506.256C348.973 505.982 348.777 505.658 348.641 505.283C348.504 504.908 348.435 504.498 348.435 504.053V503.807C348.435 503.291 348.512 502.832 348.664 502.43C348.816 502.023 349.023 501.68 349.285 501.398C349.547 501.117 349.844 500.904 350.176 500.76C350.508 500.615 350.852 500.543 351.207 500.543C351.66 500.543 352.051 500.621 352.379 500.777C352.711 500.934 352.982 501.152 353.193 501.434C353.404 501.711 353.56 502.039 353.662 502.418C353.764 502.793 353.814 503.203 353.814 503.648V504.135H349.08V503.25H352.73V503.168C352.715 502.887 352.656 502.613 352.555 502.348C352.457 502.082 352.301 501.863 352.086 501.691C351.871 501.52 351.578 501.434 351.207 501.434C350.961 501.434 350.734 501.486 350.527 501.592C350.32 501.693 350.143 501.846 349.994 502.049C349.846 502.252 349.73 502.5 349.648 502.793C349.566 503.086 349.525 503.424 349.525 503.807V504.053C349.525 504.354 349.566 504.637 349.648 504.902C349.734 505.164 349.857 505.395 350.018 505.594C350.182 505.793 350.379 505.949 350.609 506.062C350.844 506.176 351.109 506.232 351.406 506.232C351.789 506.232 352.113 506.154 352.379 505.998C352.644 505.842 352.877 505.633 353.076 505.371L353.732 505.893C353.596 506.1 353.422 506.297 353.211 506.484C353 506.672 352.74 506.824 352.432 506.941C352.127 507.059 351.766 507.117 351.348 507.117ZM358.771 505.318C358.771 505.162 358.736 505.018 358.666 504.885C358.6 504.748 358.461 504.625 358.25 504.516C358.043 504.402 357.73 504.305 357.312 504.223C356.961 504.148 356.643 504.061 356.357 503.959C356.076 503.857 355.836 503.734 355.637 503.59C355.441 503.445 355.291 503.275 355.185 503.08C355.08 502.885 355.027 502.656 355.027 502.395C355.027 502.145 355.082 501.908 355.191 501.686C355.305 501.463 355.463 501.266 355.666 501.094C355.873 500.922 356.121 500.787 356.41 500.689C356.699 500.592 357.021 500.543 357.377 500.543C357.885 500.543 358.318 500.633 358.678 500.812C359.037 500.992 359.312 501.232 359.504 501.533C359.695 501.83 359.791 502.16 359.791 502.523H358.707C358.707 502.348 358.654 502.178 358.549 502.014C358.447 501.846 358.297 501.707 358.098 501.598C357.902 501.488 357.662 501.434 357.377 501.434C357.076 501.434 356.832 501.48 356.644 501.574C356.461 501.664 356.326 501.779 356.24 501.92C356.158 502.061 356.117 502.209 356.117 502.365C356.117 502.482 356.137 502.588 356.176 502.682C356.219 502.771 356.293 502.855 356.398 502.934C356.504 503.008 356.652 503.078 356.844 503.145C357.035 503.211 357.279 503.277 357.576 503.344C358.096 503.461 358.523 503.602 358.859 503.766C359.195 503.93 359.445 504.131 359.609 504.369C359.773 504.607 359.855 504.896 359.855 505.236C359.855 505.514 359.797 505.768 359.68 505.998C359.566 506.229 359.4 506.428 359.182 506.596C358.967 506.76 358.709 506.889 358.408 506.982C358.111 507.072 357.777 507.117 357.406 507.117C356.848 507.117 356.375 507.018 355.988 506.818C355.602 506.619 355.309 506.361 355.109 506.045C354.91 505.729 354.81 505.395 354.81 505.043H355.9C355.916 505.34 356.002 505.576 356.158 505.752C356.314 505.924 356.506 506.047 356.732 506.121C356.959 506.191 357.184 506.227 357.406 506.227C357.703 506.227 357.951 506.188 358.15 506.109C358.353 506.031 358.508 505.924 358.613 505.787C358.719 505.65 358.771 505.494 358.771 505.318ZM365.275 505.77V498H366.365V507H365.369L365.275 505.77ZM361.01 503.9V503.777C361.01 503.293 361.068 502.854 361.185 502.459C361.307 502.061 361.477 501.719 361.695 501.434C361.918 501.148 362.182 500.93 362.486 500.777C362.795 500.621 363.139 500.543 363.518 500.543C363.916 500.543 364.264 500.613 364.56 500.754C364.861 500.891 365.115 501.092 365.322 501.357C365.533 501.619 365.699 501.936 365.82 502.307C365.941 502.678 366.025 503.098 366.072 503.566V504.105C366.029 504.57 365.945 504.988 365.82 505.359C365.699 505.73 365.533 506.047 365.322 506.309C365.115 506.57 364.861 506.771 364.56 506.912C364.26 507.049 363.908 507.117 363.506 507.117C363.135 507.117 362.795 507.037 362.486 506.877C362.182 506.717 361.918 506.492 361.695 506.203C361.477 505.914 361.307 505.574 361.185 505.184C361.068 504.789 361.01 504.361 361.01 503.9ZM362.1 503.777V503.9C362.1 504.217 362.131 504.514 362.193 504.791C362.26 505.068 362.361 505.312 362.498 505.523C362.635 505.734 362.809 505.9 363.019 506.021C363.23 506.139 363.482 506.197 363.775 506.197C364.135 506.197 364.43 506.121 364.66 505.969C364.894 505.816 365.082 505.615 365.223 505.365C365.363 505.115 365.473 504.844 365.551 504.551V503.139C365.504 502.924 365.435 502.717 365.346 502.518C365.26 502.314 365.146 502.135 365.006 501.979C364.869 501.818 364.699 501.691 364.496 501.598C364.297 501.504 364.06 501.457 363.787 501.457C363.49 501.457 363.234 501.52 363.019 501.645C362.809 501.766 362.635 501.934 362.498 502.148C362.361 502.359 362.26 502.605 362.193 502.887C362.131 503.164 362.1 503.461 362.1 503.777ZM371.791 505.916V502.652C371.791 502.402 371.74 502.186 371.639 502.002C371.541 501.814 371.393 501.67 371.193 501.568C370.994 501.467 370.748 501.416 370.455 501.416C370.182 501.416 369.941 501.463 369.734 501.557C369.531 501.65 369.371 501.773 369.254 501.926C369.141 502.078 369.084 502.242 369.084 502.418H368C368 502.191 368.059 501.967 368.176 501.744C368.293 501.521 368.461 501.32 368.68 501.141C368.902 500.957 369.168 500.812 369.477 500.707C369.789 500.598 370.137 500.543 370.519 500.543C370.98 500.543 371.387 500.621 371.738 500.777C372.094 500.934 372.371 501.17 372.57 501.486C372.773 501.799 372.875 502.191 372.875 502.664V505.617C372.875 505.828 372.893 506.053 372.928 506.291C372.967 506.529 373.023 506.734 373.098 506.906V507H371.967C371.912 506.875 371.869 506.709 371.838 506.502C371.807 506.291 371.791 506.096 371.791 505.916ZM371.978 503.156L371.99 503.918H370.894C370.586 503.918 370.31 503.943 370.068 503.994C369.826 504.041 369.623 504.113 369.459 504.211C369.295 504.309 369.17 504.432 369.084 504.58C368.998 504.725 368.955 504.895 368.955 505.09C368.955 505.289 369 505.471 369.09 505.635C369.18 505.799 369.314 505.93 369.494 506.027C369.678 506.121 369.902 506.168 370.168 506.168C370.5 506.168 370.793 506.098 371.047 505.957C371.301 505.816 371.502 505.645 371.65 505.441C371.803 505.238 371.885 505.041 371.896 504.85L372.359 505.371C372.332 505.535 372.258 505.717 372.137 505.916C372.016 506.115 371.853 506.307 371.65 506.49C371.451 506.67 371.213 506.82 370.935 506.941C370.662 507.059 370.353 507.117 370.01 507.117C369.58 507.117 369.203 507.033 368.879 506.865C368.559 506.697 368.309 506.473 368.129 506.191C367.953 505.906 367.865 505.588 367.865 505.236C367.865 504.896 367.932 504.598 368.064 504.34C368.197 504.078 368.389 503.861 368.639 503.689C368.889 503.514 369.189 503.381 369.541 503.291C369.893 503.201 370.285 503.156 370.719 503.156H371.978ZM376.268 506.344L378.031 500.66H379.191L376.648 507.979C376.59 508.135 376.512 508.303 376.414 508.482C376.32 508.666 376.199 508.84 376.051 509.004C375.902 509.168 375.723 509.301 375.512 509.402C375.305 509.508 375.057 509.561 374.768 509.561C374.682 509.561 374.572 509.549 374.439 509.525C374.307 509.502 374.213 509.482 374.158 509.467L374.152 508.588C374.184 508.592 374.232 508.596 374.299 508.6C374.369 508.607 374.418 508.611 374.445 508.611C374.691 508.611 374.9 508.578 375.072 508.512C375.244 508.449 375.389 508.342 375.506 508.189C375.627 508.041 375.73 507.836 375.816 507.574L376.268 506.344ZM374.973 500.66L376.619 505.582L376.9 506.725L376.121 507.123L373.789 500.66H374.973Z" fill="#333333"/>
<path d="M486.635 497.605V506.137H485.522V497.605H486.635ZM489.378 497.605V498.531H482.786V497.605H489.378ZM491.563 497.137V506.137H490.479V497.137H491.563ZM491.305 502.727L490.854 502.709C490.858 502.275 490.922 501.875 491.047 501.508C491.172 501.137 491.348 500.814 491.575 500.541C491.801 500.268 492.071 500.057 492.383 499.908C492.7 499.756 493.049 499.68 493.432 499.68C493.745 499.68 494.026 499.723 494.276 499.809C494.526 499.891 494.739 500.023 494.915 500.207C495.094 500.391 495.231 500.629 495.325 500.922C495.419 501.211 495.465 501.564 495.465 501.982V506.137H494.376V501.971C494.376 501.639 494.327 501.373 494.229 501.174C494.131 500.971 493.989 500.824 493.801 500.734C493.614 500.641 493.383 500.594 493.11 500.594C492.84 500.594 492.594 500.65 492.372 500.764C492.153 500.877 491.963 501.033 491.803 501.232C491.647 501.432 491.524 501.66 491.434 501.918C491.348 502.172 491.305 502.441 491.305 502.727ZM500.967 504.672V499.797H502.057V506.137H501.02L500.967 504.672ZM501.172 503.336L501.624 503.324C501.624 503.746 501.579 504.137 501.489 504.496C501.403 504.852 501.262 505.16 501.067 505.422C500.872 505.684 500.616 505.889 500.299 506.037C499.983 506.182 499.598 506.254 499.145 506.254C498.836 506.254 498.553 506.209 498.295 506.119C498.042 506.029 497.823 505.891 497.639 505.703C497.456 505.516 497.313 505.271 497.211 504.971C497.114 504.67 497.065 504.309 497.065 503.887V499.797H498.149V503.898C498.149 504.184 498.18 504.42 498.243 504.607C498.309 504.791 498.397 504.938 498.506 505.047C498.62 505.152 498.745 505.227 498.881 505.27C499.022 505.312 499.167 505.334 499.315 505.334C499.776 505.334 500.141 505.246 500.411 505.07C500.68 504.891 500.874 504.65 500.991 504.35C501.112 504.045 501.172 503.707 501.172 503.336ZM504.794 500.793V506.137H503.71V499.797H504.764L504.794 500.793ZM506.774 499.762L506.768 500.77C506.678 500.75 506.592 500.738 506.51 500.734C506.432 500.727 506.342 500.723 506.241 500.723C505.991 500.723 505.77 500.762 505.579 500.84C505.387 500.918 505.225 501.027 505.092 501.168C504.96 501.309 504.854 501.477 504.776 501.672C504.702 501.863 504.653 502.074 504.629 502.305L504.325 502.48C504.325 502.098 504.362 501.738 504.436 501.402C504.514 501.066 504.633 500.77 504.794 500.512C504.954 500.25 505.157 500.047 505.403 499.902C505.653 499.754 505.95 499.68 506.294 499.68C506.372 499.68 506.461 499.689 506.563 499.709C506.665 499.725 506.735 499.742 506.774 499.762ZM511.467 504.455C511.467 504.299 511.432 504.154 511.362 504.021C511.295 503.885 511.157 503.762 510.946 503.652C510.739 503.539 510.426 503.441 510.008 503.359C509.657 503.285 509.338 503.197 509.053 503.096C508.772 502.994 508.532 502.871 508.333 502.727C508.137 502.582 507.987 502.412 507.881 502.217C507.776 502.021 507.723 501.793 507.723 501.531C507.723 501.281 507.778 501.045 507.887 500.822C508.001 500.6 508.159 500.402 508.362 500.23C508.569 500.059 508.817 499.924 509.106 499.826C509.395 499.729 509.717 499.68 510.073 499.68C510.581 499.68 511.014 499.77 511.374 499.949C511.733 500.129 512.008 500.369 512.2 500.67C512.391 500.967 512.487 501.297 512.487 501.66H511.403C511.403 501.484 511.35 501.314 511.245 501.15C511.143 500.982 510.993 500.844 510.794 500.734C510.598 500.625 510.358 500.57 510.073 500.57C509.772 500.57 509.528 500.617 509.34 500.711C509.157 500.801 509.022 500.916 508.936 501.057C508.854 501.197 508.813 501.346 508.813 501.502C508.813 501.619 508.833 501.725 508.872 501.818C508.915 501.908 508.989 501.992 509.094 502.07C509.2 502.145 509.348 502.215 509.54 502.281C509.731 502.348 509.975 502.414 510.272 502.48C510.792 502.598 511.219 502.738 511.555 502.902C511.891 503.066 512.141 503.268 512.305 503.506C512.469 503.744 512.551 504.033 512.551 504.373C512.551 504.65 512.493 504.904 512.376 505.135C512.262 505.365 512.096 505.564 511.878 505.732C511.663 505.896 511.405 506.025 511.104 506.119C510.807 506.209 510.473 506.254 510.102 506.254C509.544 506.254 509.071 506.154 508.684 505.955C508.297 505.756 508.004 505.498 507.805 505.182C507.606 504.865 507.506 504.531 507.506 504.18H508.596C508.612 504.477 508.698 504.713 508.854 504.889C509.01 505.061 509.202 505.184 509.428 505.258C509.655 505.328 509.879 505.363 510.102 505.363C510.399 505.363 510.647 505.324 510.846 505.246C511.049 505.168 511.204 505.061 511.309 504.924C511.415 504.787 511.467 504.631 511.467 504.455ZM517.971 504.906V497.137H519.061V506.137H518.065L517.971 504.906ZM513.706 503.037V502.914C513.706 502.43 513.764 501.99 513.881 501.596C514.003 501.197 514.172 500.855 514.391 500.57C514.614 500.285 514.878 500.066 515.182 499.914C515.491 499.758 515.835 499.68 516.213 499.68C516.612 499.68 516.96 499.75 517.256 499.891C517.557 500.027 517.811 500.229 518.018 500.494C518.229 500.756 518.395 501.072 518.516 501.443C518.637 501.814 518.721 502.234 518.768 502.703V503.242C518.725 503.707 518.641 504.125 518.516 504.496C518.395 504.867 518.229 505.184 518.018 505.445C517.811 505.707 517.557 505.908 517.256 506.049C516.956 506.186 516.604 506.254 516.202 506.254C515.831 506.254 515.491 506.174 515.182 506.014C514.878 505.854 514.614 505.629 514.391 505.34C514.172 505.051 514.003 504.711 513.881 504.32C513.764 503.926 513.706 503.498 513.706 503.037ZM514.795 502.914V503.037C514.795 503.354 514.827 503.65 514.889 503.928C514.956 504.205 515.057 504.449 515.194 504.66C515.331 504.871 515.504 505.037 515.715 505.158C515.926 505.275 516.178 505.334 516.471 505.334C516.831 505.334 517.126 505.258 517.356 505.105C517.59 504.953 517.778 504.752 517.919 504.502C518.059 504.252 518.169 503.98 518.247 503.688V502.275C518.2 502.061 518.131 501.854 518.042 501.654C517.956 501.451 517.842 501.271 517.702 501.115C517.565 500.955 517.395 500.828 517.192 500.734C516.993 500.641 516.756 500.594 516.483 500.594C516.186 500.594 515.93 500.656 515.715 500.781C515.504 500.902 515.331 501.07 515.194 501.285C515.057 501.496 514.956 501.742 514.889 502.023C514.827 502.301 514.795 502.598 514.795 502.914ZM524.487 505.053V501.789C524.487 501.539 524.436 501.322 524.335 501.139C524.237 500.951 524.088 500.807 523.889 500.705C523.69 500.604 523.444 500.553 523.151 500.553C522.878 500.553 522.637 500.6 522.43 500.693C522.227 500.787 522.067 500.91 521.95 501.062C521.836 501.215 521.78 501.379 521.78 501.555H520.696C520.696 501.328 520.754 501.104 520.872 500.881C520.989 500.658 521.157 500.457 521.376 500.277C521.598 500.094 521.864 499.949 522.172 499.844C522.485 499.734 522.833 499.68 523.215 499.68C523.676 499.68 524.083 499.758 524.434 499.914C524.79 500.07 525.067 500.307 525.266 500.623C525.469 500.936 525.571 501.328 525.571 501.801V504.754C525.571 504.965 525.588 505.189 525.624 505.428C525.663 505.666 525.719 505.871 525.794 506.043V506.137H524.663C524.608 506.012 524.565 505.846 524.534 505.639C524.503 505.428 524.487 505.232 524.487 505.053ZM524.674 502.293L524.686 503.055H523.59C523.282 503.055 523.006 503.08 522.764 503.131C522.522 503.178 522.319 503.25 522.155 503.348C521.991 503.445 521.866 503.568 521.78 503.717C521.694 503.861 521.651 504.031 521.651 504.227C521.651 504.426 521.696 504.607 521.786 504.771C521.876 504.936 522.01 505.066 522.19 505.164C522.374 505.258 522.598 505.305 522.864 505.305C523.196 505.305 523.489 505.234 523.743 505.094C523.997 504.953 524.198 504.781 524.346 504.578C524.499 504.375 524.581 504.178 524.592 503.986L525.055 504.508C525.028 504.672 524.954 504.854 524.833 505.053C524.711 505.252 524.549 505.443 524.346 505.627C524.147 505.807 523.909 505.957 523.631 506.078C523.358 506.195 523.049 506.254 522.706 506.254C522.276 506.254 521.899 506.17 521.575 506.002C521.254 505.834 521.004 505.609 520.825 505.328C520.649 505.043 520.561 504.725 520.561 504.373C520.561 504.033 520.628 503.734 520.76 503.477C520.893 503.215 521.085 502.998 521.335 502.826C521.585 502.65 521.885 502.518 522.237 502.428C522.588 502.338 522.981 502.293 523.415 502.293H524.674ZM528.963 505.48L530.727 499.797H531.887L529.344 507.115C529.286 507.271 529.208 507.439 529.11 507.619C529.016 507.803 528.895 507.977 528.747 508.141C528.598 508.305 528.419 508.438 528.208 508.539C528.001 508.645 527.753 508.697 527.463 508.697C527.378 508.697 527.268 508.686 527.135 508.662C527.003 508.639 526.909 508.619 526.854 508.604L526.848 507.725C526.879 507.729 526.928 507.732 526.995 507.736C527.065 507.744 527.114 507.748 527.141 507.748C527.387 507.748 527.596 507.715 527.768 507.648C527.94 507.586 528.085 507.479 528.202 507.326C528.323 507.178 528.426 506.973 528.512 506.711L528.963 505.48ZM527.669 499.797L529.315 504.719L529.596 505.861L528.817 506.26L526.485 499.797H527.669Z" fill="#333333"/>
<path d="M652.453 497.605V506.137H651.322V497.605H652.453ZM656.027 501.443V502.369H652.207V501.443H656.027ZM656.607 497.605V498.531H652.207V497.605H656.607ZM658.722 500.793V506.137H657.638V499.797H658.693L658.722 500.793ZM660.703 499.762L660.697 500.77C660.607 500.75 660.521 500.738 660.439 500.734C660.361 500.727 660.271 500.723 660.17 500.723C659.92 500.723 659.699 500.762 659.508 500.84C659.316 500.918 659.154 501.027 659.021 501.168C658.888 501.309 658.783 501.477 658.705 501.672C658.631 501.863 658.582 502.074 658.558 502.305L658.254 502.48C658.254 502.098 658.291 501.738 658.365 501.402C658.443 501.066 658.562 500.77 658.722 500.512C658.883 500.25 659.086 500.047 659.332 499.902C659.582 499.754 659.879 499.68 660.222 499.68C660.301 499.68 660.39 499.689 660.492 499.709C660.594 499.725 660.664 499.742 660.703 499.762ZM662.883 499.797V506.137H661.793V499.797H662.883ZM661.711 498.115C661.711 497.939 661.763 497.791 661.869 497.67C661.978 497.549 662.138 497.488 662.349 497.488C662.556 497.488 662.715 497.549 662.824 497.67C662.937 497.791 662.994 497.939 662.994 498.115C662.994 498.283 662.937 498.428 662.824 498.549C662.715 498.666 662.556 498.725 662.349 498.725C662.138 498.725 661.978 498.666 661.869 498.549C661.763 498.428 661.711 498.283 661.711 498.115ZM668.619 504.906V497.137H669.709V506.137H668.713L668.619 504.906ZM664.353 503.037V502.914C664.353 502.43 664.412 501.99 664.529 501.596C664.65 501.197 664.82 500.855 665.039 500.57C665.261 500.285 665.525 500.066 665.83 499.914C666.138 499.758 666.482 499.68 666.861 499.68C667.26 499.68 667.607 499.75 667.904 499.891C668.205 500.027 668.459 500.229 668.666 500.494C668.877 500.756 669.043 501.072 669.164 501.443C669.285 501.814 669.369 502.234 669.416 502.703V503.242C669.373 503.707 669.289 504.125 669.164 504.496C669.043 504.867 668.877 505.184 668.666 505.445C668.459 505.707 668.205 505.908 667.904 506.049C667.603 506.186 667.252 506.254 666.849 506.254C666.478 506.254 666.138 506.174 665.83 506.014C665.525 505.854 665.261 505.629 665.039 505.34C664.82 505.051 664.65 504.711 664.529 504.32C664.412 503.926 664.353 503.498 664.353 503.037ZM665.443 502.914V503.037C665.443 503.354 665.474 503.65 665.537 503.928C665.603 504.205 665.705 504.449 665.842 504.66C665.978 504.871 666.152 505.037 666.363 505.158C666.574 505.275 666.826 505.334 667.119 505.334C667.478 505.334 667.773 505.258 668.004 505.105C668.238 504.953 668.426 504.752 668.566 504.502C668.707 504.252 668.816 503.98 668.894 503.688V502.275C668.847 502.061 668.779 501.854 668.689 501.654C668.603 501.451 668.49 501.271 668.349 501.115C668.213 500.955 668.043 500.828 667.84 500.734C667.64 500.641 667.404 500.594 667.131 500.594C666.834 500.594 666.578 500.656 666.363 500.781C666.152 500.902 665.978 501.07 665.842 501.285C665.705 501.496 665.603 501.742 665.537 502.023C665.474 502.301 665.443 502.598 665.443 502.914ZM675.135 505.053V501.789C675.135 501.539 675.084 501.322 674.982 501.139C674.885 500.951 674.736 500.807 674.537 500.705C674.338 500.604 674.092 500.553 673.799 500.553C673.525 500.553 673.285 500.6 673.078 500.693C672.875 500.787 672.715 500.91 672.597 501.062C672.484 501.215 672.427 501.379 672.427 501.555H671.344C671.344 501.328 671.402 501.104 671.519 500.881C671.636 500.658 671.804 500.457 672.023 500.277C672.246 500.094 672.511 499.949 672.82 499.844C673.133 499.734 673.48 499.68 673.863 499.68C674.324 499.68 674.73 499.758 675.082 499.914C675.437 500.07 675.715 500.307 675.914 500.623C676.117 500.936 676.219 501.328 676.219 501.801V504.754C676.219 504.965 676.236 505.189 676.271 505.428C676.31 505.666 676.367 505.871 676.441 506.043V506.137H675.31C675.256 506.012 675.213 505.846 675.181 505.639C675.15 505.428 675.135 505.232 675.135 505.053ZM675.322 502.293L675.334 503.055H674.238C673.929 503.055 673.654 503.08 673.412 503.131C673.17 503.178 672.967 503.25 672.802 503.348C672.638 503.445 672.513 503.568 672.427 503.717C672.342 503.861 672.299 504.031 672.299 504.227C672.299 504.426 672.344 504.607 672.433 504.771C672.523 504.936 672.658 505.066 672.838 505.164C673.021 505.258 673.246 505.305 673.511 505.305C673.844 505.305 674.136 505.234 674.39 505.094C674.644 504.953 674.845 504.781 674.994 504.578C675.146 504.375 675.228 504.178 675.24 503.986L675.703 504.508C675.676 504.672 675.601 504.854 675.48 505.053C675.359 505.252 675.197 505.443 674.994 505.627C674.795 505.807 674.556 505.957 674.279 506.078C674.006 506.195 673.697 506.254 673.353 506.254C672.924 506.254 672.547 506.17 672.222 506.002C671.902 505.834 671.652 505.609 671.472 505.328C671.297 505.043 671.209 504.725 671.209 504.373C671.209 504.033 671.275 503.734 671.408 503.477C671.541 503.215 671.732 502.998 671.982 502.826C672.232 502.65 672.533 502.518 672.885 502.428C673.236 502.338 673.629 502.293 674.062 502.293H675.322ZM679.611 505.48L681.375 499.797H682.535L679.992 507.115C679.933 507.271 679.855 507.439 679.758 507.619C679.664 507.803 679.543 507.977 679.394 508.141C679.246 508.305 679.066 508.438 678.855 508.539C678.648 508.645 678.4 508.697 678.111 508.697C678.025 508.697 677.916 508.686 677.783 508.662C677.65 508.639 677.556 508.619 677.502 508.604L677.496 507.725C677.527 507.729 677.576 507.732 677.642 507.736C677.713 507.744 677.761 507.748 677.789 507.748C678.035 507.748 678.244 507.715 678.416 507.648C678.588 507.586 678.732 507.479 678.849 507.326C678.97 507.178 679.074 506.973 679.16 506.711L679.611 505.48ZM678.316 499.797L679.963 504.719L680.244 505.861L679.465 506.26L677.133 499.797H678.316Z" fill="#333333"/>
<path d="M806.57 503.98C806.57 503.781 806.539 503.605 806.477 503.453C806.418 503.297 806.312 503.156 806.16 503.031C806.012 502.906 805.805 502.787 805.539 502.674C805.277 502.561 804.945 502.445 804.543 502.328C804.121 502.203 803.74 502.064 803.4 501.912C803.061 501.756 802.77 501.578 802.527 501.379C802.285 501.18 802.1 500.951 801.971 500.693C801.842 500.436 801.777 500.141 801.777 499.809C801.777 499.477 801.846 499.17 801.982 498.889C802.119 498.607 802.314 498.363 802.568 498.156C802.826 497.945 803.133 497.781 803.488 497.664C803.844 497.547 804.24 497.488 804.678 497.488C805.318 497.488 805.861 497.611 806.307 497.857C806.756 498.1 807.098 498.418 807.332 498.812C807.566 499.203 807.684 499.621 807.684 500.066H806.559C806.559 499.746 806.49 499.463 806.354 499.217C806.217 498.967 806.01 498.771 805.732 498.631C805.455 498.486 805.104 498.414 804.678 498.414C804.275 498.414 803.943 498.475 803.682 498.596C803.42 498.717 803.225 498.881 803.096 499.088C802.971 499.295 802.908 499.531 802.908 499.797C802.908 499.977 802.945 500.141 803.02 500.289C803.098 500.434 803.217 500.568 803.377 500.693C803.541 500.818 803.748 500.934 803.998 501.039C804.252 501.145 804.555 501.246 804.906 501.344C805.391 501.48 805.809 501.633 806.16 501.801C806.512 501.969 806.801 502.158 807.027 502.369C807.258 502.576 807.428 502.812 807.537 503.078C807.65 503.34 807.707 503.637 807.707 503.969C807.707 504.316 807.637 504.631 807.496 504.912C807.355 505.193 807.154 505.434 806.893 505.633C806.631 505.832 806.316 505.986 805.949 506.096C805.586 506.201 805.18 506.254 804.73 506.254C804.336 506.254 803.947 506.199 803.564 506.09C803.186 505.98 802.84 505.816 802.527 505.598C802.219 505.379 801.971 505.109 801.783 504.789C801.6 504.465 801.508 504.09 801.508 503.664H802.633C802.633 503.957 802.689 504.209 802.803 504.42C802.916 504.627 803.07 504.799 803.266 504.936C803.465 505.072 803.689 505.174 803.939 505.24C804.193 505.303 804.457 505.334 804.73 505.334C805.125 505.334 805.459 505.279 805.732 505.17C806.006 505.061 806.213 504.904 806.354 504.701C806.498 504.498 806.57 504.258 806.57 503.98ZM812.723 505.053V501.789C812.723 501.539 812.672 501.322 812.57 501.139C812.473 500.951 812.324 500.807 812.125 500.705C811.926 500.604 811.68 500.553 811.387 500.553C811.113 500.553 810.873 500.6 810.666 500.693C810.463 500.787 810.303 500.91 810.186 501.062C810.072 501.215 810.016 501.379 810.016 501.555H808.932C808.932 501.328 808.99 501.104 809.107 500.881C809.225 500.658 809.393 500.457 809.611 500.277C809.834 500.094 810.1 499.949 810.408 499.844C810.721 499.734 811.068 499.68 811.451 499.68C811.912 499.68 812.318 499.758 812.67 499.914C813.025 500.07 813.303 500.307 813.502 500.623C813.705 500.936 813.807 501.328 813.807 501.801V504.754C813.807 504.965 813.824 505.189 813.859 505.428C813.898 505.666 813.955 505.871 814.029 506.043V506.137H812.898C812.844 506.012 812.801 505.846 812.77 505.639C812.738 505.428 812.723 505.232 812.723 505.053ZM812.91 502.293L812.922 503.055H811.826C811.518 503.055 811.242 503.08 811 503.131C810.758 503.178 810.555 503.25 810.391 503.348C810.227 503.445 810.102 503.568 810.016 503.717C809.93 503.861 809.887 504.031 809.887 504.227C809.887 504.426 809.932 504.607 810.021 504.771C810.111 504.936 810.246 505.066 810.426 505.164C810.609 505.258 810.834 505.305 811.1 505.305C811.432 505.305 811.725 505.234 811.979 505.094C812.232 504.953 812.434 504.781 812.582 504.578C812.734 504.375 812.816 504.178 812.828 503.986L813.291 504.508C813.264 504.672 813.189 504.854 813.068 505.053C812.947 505.252 812.785 505.443 812.582 505.627C812.383 505.807 812.145 505.957 811.867 506.078C811.594 506.195 811.285 506.254 810.941 506.254C810.512 506.254 810.135 506.17 809.811 506.002C809.49 505.834 809.24 505.609 809.061 505.328C808.885 505.043 808.797 504.725 808.797 504.373C808.797 504.033 808.863 503.734 808.996 503.477C809.129 503.215 809.32 502.998 809.57 502.826C809.82 502.65 810.121 502.518 810.473 502.428C810.824 502.338 811.217 502.293 811.65 502.293H812.91ZM818.166 499.797V500.629H814.738V499.797H818.166ZM815.898 498.256H816.982V504.566C816.982 504.781 817.016 504.943 817.082 505.053C817.148 505.162 817.234 505.234 817.34 505.27C817.445 505.305 817.559 505.322 817.68 505.322C817.77 505.322 817.863 505.314 817.961 505.299C818.062 505.279 818.139 505.264 818.189 505.252L818.195 506.137C818.109 506.164 817.996 506.189 817.855 506.213C817.719 506.24 817.553 506.254 817.357 506.254C817.092 506.254 816.848 506.201 816.625 506.096C816.402 505.99 816.225 505.814 816.092 505.568C815.963 505.318 815.898 504.982 815.898 504.561V498.256ZM823.316 504.672V499.797H824.406V506.137H823.369L823.316 504.672ZM823.521 503.336L823.973 503.324C823.973 503.746 823.928 504.137 823.838 504.496C823.752 504.852 823.611 505.16 823.416 505.422C823.221 505.684 822.965 505.889 822.648 506.037C822.332 506.182 821.947 506.254 821.494 506.254C821.186 506.254 820.902 506.209 820.645 506.119C820.391 506.029 820.172 505.891 819.988 505.703C819.805 505.516 819.662 505.271 819.561 504.971C819.463 504.67 819.414 504.309 819.414 503.887V499.797H820.498V503.898C820.498 504.184 820.529 504.42 820.592 504.607C820.658 504.791 820.746 504.938 820.855 505.047C820.969 505.152 821.094 505.227 821.23 505.27C821.371 505.312 821.516 505.334 821.664 505.334C822.125 505.334 822.49 505.246 822.76 505.07C823.029 504.891 823.223 504.65 823.34 504.35C823.461 504.045 823.521 503.707 823.521 503.336ZM827.143 500.793V506.137H826.059V499.797H827.113L827.143 500.793ZM829.123 499.762L829.117 500.77C829.027 500.75 828.941 500.738 828.859 500.734C828.781 500.727 828.691 500.723 828.59 500.723C828.34 500.723 828.119 500.762 827.928 500.84C827.736 500.918 827.574 501.027 827.441 501.168C827.309 501.309 827.203 501.477 827.125 501.672C827.051 501.863 827.002 502.074 826.979 502.305L826.674 502.48C826.674 502.098 826.711 501.738 826.785 501.402C826.863 501.066 826.982 500.77 827.143 500.512C827.303 500.25 827.506 500.047 827.752 499.902C828.002 499.754 828.299 499.68 828.643 499.68C828.721 499.68 828.811 499.689 828.912 499.709C829.014 499.725 829.084 499.742 829.123 499.762ZM834.004 504.906V497.137H835.094V506.137H834.098L834.004 504.906ZM829.738 503.037V502.914C829.738 502.43 829.797 501.99 829.914 501.596C830.035 501.197 830.205 500.855 830.424 500.57C830.646 500.285 830.91 500.066 831.215 499.914C831.523 499.758 831.867 499.68 832.246 499.68C832.645 499.68 832.992 499.75 833.289 499.891C833.59 500.027 833.844 500.229 834.051 500.494C834.262 500.756 834.428 501.072 834.549 501.443C834.67 501.814 834.754 502.234 834.801 502.703V503.242C834.758 503.707 834.674 504.125 834.549 504.496C834.428 504.867 834.262 505.184 834.051 505.445C833.844 505.707 833.59 505.908 833.289 506.049C832.988 506.186 832.637 506.254 832.234 506.254C831.863 506.254 831.523 506.174 831.215 506.014C830.91 505.854 830.646 505.629 830.424 505.34C830.205 505.051 830.035 504.711 829.914 504.32C829.797 503.926 829.738 503.498 829.738 503.037ZM830.828 502.914V503.037C830.828 503.354 830.859 503.65 830.922 503.928C830.988 504.205 831.09 504.449 831.227 504.66C831.363 504.871 831.537 505.037 831.748 505.158C831.959 505.275 832.211 505.334 832.504 505.334C832.863 505.334 833.158 505.258 833.389 505.105C833.623 504.953 833.811 504.752 833.951 504.502C834.092 504.252 834.201 503.98 834.279 503.688V502.275C834.232 502.061 834.164 501.854 834.074 501.654C833.988 501.451 833.875 501.271 833.734 501.115C833.598 500.955 833.428 500.828 833.225 500.734C833.025 500.641 832.789 500.594 832.516 500.594C832.219 500.594 831.963 500.656 831.748 500.781C831.537 500.902 831.363 501.07 831.227 501.285C831.09 501.496 830.988 501.742 830.922 502.023C830.859 502.301 830.828 502.598 830.828 502.914ZM840.52 505.053V501.789C840.52 501.539 840.469 501.322 840.367 501.139C840.27 500.951 840.121 500.807 839.922 500.705C839.723 500.604 839.477 500.553 839.184 500.553C838.91 500.553 838.67 500.6 838.463 500.693C838.26 500.787 838.1 500.91 837.982 501.062C837.869 501.215 837.812 501.379 837.812 501.555H836.729C836.729 501.328 836.787 501.104 836.904 500.881C837.021 500.658 837.189 500.457 837.408 500.277C837.631 500.094 837.896 499.949 838.205 499.844C838.518 499.734 838.865 499.68 839.248 499.68C839.709 499.68 840.115 499.758 840.467 499.914C840.822 500.07 841.1 500.307 841.299 500.623C841.502 500.936 841.604 501.328 841.604 501.801V504.754C841.604 504.965 841.621 505.189 841.656 505.428C841.695 505.666 841.752 505.871 841.826 506.043V506.137H840.695C840.641 506.012 840.598 505.846 840.566 505.639C840.535 505.428 840.52 505.232 840.52 505.053ZM840.707 502.293L840.719 503.055H839.623C839.314 503.055 839.039 503.08 838.797 503.131C838.555 503.178 838.352 503.25 838.188 503.348C838.023 503.445 837.898 503.568 837.812 503.717C837.727 503.861 837.684 504.031 837.684 504.227C837.684 504.426 837.729 504.607 837.818 504.771C837.908 504.936 838.043 505.066 838.223 505.164C838.406 505.258 838.631 505.305 838.896 505.305C839.229 505.305 839.521 505.234 839.775 505.094C840.029 504.953 840.23 504.781 840.379 504.578C840.531 504.375 840.613 504.178 840.625 503.986L841.088 504.508C841.061 504.672 840.986 504.854 840.865 505.053C840.744 505.252 840.582 505.443 840.379 505.627C840.18 505.807 839.941 505.957 839.664 506.078C839.391 506.195 839.082 506.254 838.738 506.254C838.309 506.254 837.932 506.17 837.607 506.002C837.287 505.834 837.037 505.609 836.857 505.328C836.682 505.043 836.594 504.725 836.594 504.373C836.594 504.033 836.66 503.734 836.793 503.477C836.926 503.215 837.117 502.998 837.367 502.826C837.617 502.65 837.918 502.518 838.27 502.428C838.621 502.338 839.014 502.293 839.447 502.293H840.707ZM844.996 505.48L846.76 499.797H847.92L845.377 507.115C845.318 507.271 845.24 507.439 845.143 507.619C845.049 507.803 844.928 507.977 844.779 508.141C844.631 508.305 844.451 508.438 844.24 508.539C844.033 508.645 843.785 508.697 843.496 508.697C843.41 508.697 843.301 508.686 843.168 508.662C843.035 508.639 842.941 508.619 842.887 508.604L842.881 507.725C842.912 507.729 842.961 507.732 843.027 507.736C843.098 507.744 843.146 507.748 843.174 507.748C843.42 507.748 843.629 507.715 843.801 507.648C843.973 507.586 844.117 507.479 844.234 507.326C844.355 507.178 844.459 506.973 844.545 506.711L844.996 505.48ZM843.701 499.797L845.348 504.719L845.629 505.861L844.85 506.26L842.518 499.797H843.701Z" fill="#333333"/>
<path d="M969.053 503.98C969.053 503.781 969.022 503.605 968.959 503.453C968.901 503.297 968.795 503.156 968.643 503.031C968.494 502.906 968.287 502.787 968.022 502.674C967.76 502.561 967.428 502.445 967.026 502.328C966.604 502.203 966.223 502.064 965.883 501.912C965.543 501.756 965.252 501.578 965.01 501.379C964.768 501.18 964.582 500.951 964.453 500.693C964.324 500.436 964.26 500.141 964.26 499.809C964.26 499.477 964.328 499.17 964.465 498.889C964.602 498.607 964.797 498.363 965.051 498.156C965.309 497.945 965.615 497.781 965.971 497.664C966.326 497.547 966.723 497.488 967.16 497.488C967.801 497.488 968.344 497.611 968.789 497.857C969.239 498.1 969.58 498.418 969.815 498.812C970.049 499.203 970.166 499.621 970.166 500.066H969.041C969.041 499.746 968.973 499.463 968.836 499.217C968.699 498.967 968.492 498.771 968.215 498.631C967.938 498.486 967.586 498.414 967.16 498.414C966.758 498.414 966.426 498.475 966.164 498.596C965.903 498.717 965.707 498.881 965.578 499.088C965.453 499.295 965.391 499.531 965.391 499.797C965.391 499.977 965.428 500.141 965.502 500.289C965.58 500.434 965.699 500.568 965.86 500.693C966.024 500.818 966.231 500.934 966.481 501.039C966.735 501.145 967.037 501.246 967.389 501.344C967.873 501.48 968.291 501.633 968.643 501.801C968.994 501.969 969.283 502.158 969.51 502.369C969.74 502.576 969.91 502.812 970.02 503.078C970.133 503.34 970.19 503.637 970.19 503.969C970.19 504.316 970.119 504.631 969.979 504.912C969.838 505.193 969.637 505.434 969.375 505.633C969.114 505.832 968.799 505.986 968.432 506.096C968.069 506.201 967.662 506.254 967.213 506.254C966.819 506.254 966.43 506.199 966.047 506.09C965.668 505.98 965.323 505.816 965.01 505.598C964.701 505.379 964.453 505.109 964.266 504.789C964.082 504.465 963.99 504.09 963.99 503.664H965.115C965.115 503.957 965.172 504.209 965.285 504.42C965.399 504.627 965.553 504.799 965.748 504.936C965.948 505.072 966.172 505.174 966.422 505.24C966.676 505.303 966.94 505.334 967.213 505.334C967.608 505.334 967.942 505.279 968.215 505.17C968.489 505.061 968.696 504.904 968.836 504.701C968.981 504.498 969.053 504.258 969.053 503.98ZM975.346 504.672V499.797H976.436V506.137H975.399L975.346 504.672ZM975.551 503.336L976.002 503.324C976.002 503.746 975.957 504.137 975.867 504.496C975.781 504.852 975.641 505.16 975.446 505.422C975.25 505.684 974.994 505.889 974.678 506.037C974.362 506.182 973.977 506.254 973.524 506.254C973.215 506.254 972.932 506.209 972.674 506.119C972.42 506.029 972.201 505.891 972.018 505.703C971.834 505.516 971.692 505.271 971.59 504.971C971.492 504.67 971.444 504.309 971.444 503.887V499.797H972.528V503.898C972.528 504.184 972.559 504.42 972.621 504.607C972.688 504.791 972.776 504.938 972.885 505.047C972.998 505.152 973.123 505.227 973.26 505.27C973.401 505.312 973.545 505.334 973.694 505.334C974.155 505.334 974.52 505.246 974.789 505.07C975.059 504.891 975.252 504.65 975.369 504.35C975.49 504.045 975.551 503.707 975.551 503.336ZM979.172 501.15V506.137H978.088V499.797H979.114L979.172 501.15ZM978.914 502.727L978.463 502.709C978.467 502.275 978.531 501.875 978.656 501.508C978.781 501.137 978.957 500.814 979.184 500.541C979.41 500.268 979.68 500.057 979.992 499.908C980.309 499.756 980.658 499.68 981.041 499.68C981.354 499.68 981.635 499.723 981.885 499.809C982.135 499.891 982.348 500.023 982.524 500.207C982.703 500.391 982.84 500.629 982.934 500.922C983.028 501.211 983.074 501.564 983.074 501.982V506.137H981.985V501.971C981.985 501.639 981.936 501.373 981.838 501.174C981.74 500.971 981.598 500.824 981.41 500.734C981.223 500.641 980.992 500.594 980.719 500.594C980.449 500.594 980.203 500.65 979.981 500.764C979.762 500.877 979.573 501.033 979.412 501.232C979.256 501.432 979.133 501.66 979.043 501.918C978.957 502.172 978.914 502.441 978.914 502.727ZM988.717 504.906V497.137H989.807V506.137H988.811L988.717 504.906ZM984.451 503.037V502.914C984.451 502.43 984.51 501.99 984.627 501.596C984.748 501.197 984.918 500.855 985.137 500.57C985.36 500.285 985.623 500.066 985.928 499.914C986.237 499.758 986.58 499.68 986.959 499.68C987.358 499.68 987.705 499.75 988.002 499.891C988.303 500.027 988.557 500.229 988.764 500.494C988.975 500.756 989.141 501.072 989.262 501.443C989.383 501.814 989.467 502.234 989.514 502.703V503.242C989.471 503.707 989.387 504.125 989.262 504.496C989.141 504.867 988.975 505.184 988.764 505.445C988.557 505.707 988.303 505.908 988.002 506.049C987.701 506.186 987.35 506.254 986.948 506.254C986.576 506.254 986.237 506.174 985.928 506.014C985.623 505.854 985.36 505.629 985.137 505.34C984.918 505.051 984.748 504.711 984.627 504.32C984.51 503.926 984.451 503.498 984.451 503.037ZM985.541 502.914V503.037C985.541 503.354 985.573 503.65 985.635 503.928C985.701 504.205 985.803 504.449 985.94 504.66C986.076 504.871 986.25 505.037 986.461 505.158C986.672 505.275 986.924 505.334 987.217 505.334C987.576 505.334 987.871 505.258 988.102 505.105C988.336 504.953 988.524 504.752 988.664 504.502C988.805 504.252 988.914 503.98 988.992 503.688V502.275C988.946 502.061 988.877 501.854 988.787 501.654C988.701 501.451 988.588 501.271 988.448 501.115C988.311 500.955 988.141 500.828 987.938 500.734C987.739 500.641 987.502 500.594 987.229 500.594C986.932 500.594 986.676 500.656 986.461 500.781C986.25 500.902 986.076 501.07 985.94 501.285C985.803 501.496 985.701 501.742 985.635 502.023C985.573 502.301 985.541 502.598 985.541 502.914ZM995.233 505.053V501.789C995.233 501.539 995.182 501.322 995.08 501.139C994.983 500.951 994.834 500.807 994.635 500.705C994.436 500.604 994.19 500.553 993.897 500.553C993.623 500.553 993.383 500.6 993.176 500.693C992.973 500.787 992.813 500.91 992.696 501.062C992.582 501.215 992.526 501.379 992.526 501.555H991.442C991.442 501.328 991.5 501.104 991.617 500.881C991.735 500.658 991.903 500.457 992.121 500.277C992.344 500.094 992.61 499.949 992.918 499.844C993.231 499.734 993.578 499.68 993.961 499.68C994.422 499.68 994.828 499.758 995.18 499.914C995.535 500.07 995.813 500.307 996.012 500.623C996.215 500.936 996.317 501.328 996.317 501.801V504.754C996.317 504.965 996.334 505.189 996.369 505.428C996.408 505.666 996.465 505.871 996.539 506.043V506.137H995.408C995.354 506.012 995.311 505.846 995.28 505.639C995.248 505.428 995.233 505.232 995.233 505.053ZM995.42 502.293L995.432 503.055H994.336C994.028 503.055 993.752 503.08 993.51 503.131C993.268 503.178 993.065 503.25 992.901 503.348C992.737 503.445 992.612 503.568 992.526 503.717C992.44 503.861 992.397 504.031 992.397 504.227C992.397 504.426 992.442 504.607 992.531 504.771C992.621 504.936 992.756 505.066 992.936 505.164C993.119 505.258 993.344 505.305 993.61 505.305C993.942 505.305 994.235 505.234 994.489 505.094C994.742 504.953 994.944 504.781 995.092 504.578C995.244 504.375 995.326 504.178 995.338 503.986L995.801 504.508C995.774 504.672 995.699 504.854 995.578 505.053C995.457 505.252 995.295 505.443 995.092 505.627C994.893 505.807 994.655 505.957 994.377 506.078C994.104 506.195 993.795 506.254 993.451 506.254C993.022 506.254 992.645 506.17 992.321 506.002C992 505.834 991.75 505.609 991.571 505.328C991.395 505.043 991.307 504.725 991.307 504.373C991.307 504.033 991.373 503.734 991.506 503.477C991.639 503.215 991.83 502.998 992.08 502.826C992.33 502.65 992.631 502.518 992.983 502.428C993.334 502.338 993.727 502.293 994.16 502.293H995.42ZM999.709 505.48L1001.47 499.797H1002.63L1000.09 507.115C1000.03 507.271 999.953 507.439 999.856 507.619C999.762 507.803 999.641 507.977 999.492 508.141C999.344 508.305 999.164 508.438 998.953 508.539C998.746 508.645 998.498 508.697 998.209 508.697C998.123 508.697 998.014 508.686 997.881 508.662C997.748 508.639 997.655 508.619 997.6 508.604L997.594 507.725C997.625 507.729 997.674 507.732 997.74 507.736C997.811 507.744 997.86 507.748 997.887 507.748C998.133 507.748 998.342 507.715 998.514 507.648C998.686 507.586 998.83 507.479 998.948 507.326C999.069 507.178 999.172 506.973 999.258 506.711L999.709 505.48ZM998.414 499.797L1000.06 504.719L1000.34 505.861L999.563 506.26L997.231 499.797H998.414Z" fill="#333333"/>
<path opacity="0.5" fill-rule="evenodd" clip-rule="evenodd" d="M30.5583 467.414L189.471 491.624L348.384 457.731L507.297 383.697L666.21 353.29L825.123 259.889L984.036 31.6406V491.624H30.5583V467.414Z" fill="#7AB478"/>
<path d="M30.5583 467.414L189.471 491.624L348.384 457.731L507.297 383.697L666.21 353.29L825.123 259.889L984.036 31.6406" stroke="#365435" stroke-width="2" stroke-linejoin="round"/>
<path d="M30.5582 470.711C32.38 470.711 33.8613 469.237 33.8613 467.414C33.8613 465.591 32.38 464.117 30.5582 464.117C28.7365 464.117 27.2552 465.591 27.2552 467.414C27.2552 469.237 28.7365 470.711 30.5582 470.711Z" fill="#365435" stroke="#365435" stroke-width="2"/>
<path d="M189.471 494.921C191.293 494.921 192.774 493.447 192.774 491.624C192.774 489.801 191.293 488.327 189.471 488.327C187.65 488.327 186.168 489.801 186.168 491.624C186.168 493.447 187.65 494.921 189.471 494.921Z" fill="#365435" stroke="#365435" stroke-width="2"/>
<path d="M348.384 461.027C350.206 461.027 351.687 459.554 351.687 457.731C351.687 455.907 350.206 454.434 348.384 454.434C346.562 454.434 345.081 455.907 345.081 457.731C345.081 459.554 346.562 461.027 348.384 461.027Z" fill="#365435" stroke="#365435" stroke-width="2"/>
<path d="M507.297 386.994C509.119 386.994 510.6 385.521 510.6 383.697C510.6 381.874 509.119 380.4 507.297 380.4C505.475 380.4 503.994 381.874 503.994 383.697C503.994 385.521 505.475 386.994 507.297 386.994Z" fill="#365435" stroke="#365435" stroke-width="2"/>
<path d="M666.21 356.587C668.032 356.587 669.513 355.113 669.513 353.29C669.513 351.467 668.032 349.993 666.21 349.993C664.388 349.993 662.907 351.467 662.907 353.29C662.907 355.113 664.388 356.587 666.21 356.587Z" fill="#365435" stroke="#365435" stroke-width="2"/>
<path d="M825.123 263.187C826.945 263.187 828.426 261.713 828.426 259.89C828.426 258.066 826.945 256.593 825.123 256.593C823.301 256.593 821.82 258.066 821.82 259.89C821.82 261.713 823.301 263.187 825.123 263.187Z" fill="#365435" stroke="#365435" stroke-width="2"/>
<path d="M984.036 34.9376C985.858 34.9376 987.339 33.464 987.339 31.6407C987.339 29.8173 985.858 28.3438 984.036 28.3438C982.214 28.3438 980.733 29.8173 980.733 31.6407C980.733 33.464 982.214 34.9376 984.036 34.9376Z" fill="#365435" stroke="#365435" stroke-width="2"/>
</svg>
