<svg width="260" height="291" viewBox="0 0 260 291" fill="none" xmlns="http://www.w3.org/2000/svg">
<rect width="260" height="291" rx="20" fill="#DEF0DD"/>
<rect x="146" y="20" width="94" height="20" rx="10" fill="#365435"/>
<path d="M166.02 33.869V35H159.481V34.116L163.186 30.541C163.637 30.1077 163.94 29.735 164.096 29.423C164.252 29.1023 164.33 28.7817 164.33 28.461C164.33 27.9843 164.161 27.616 163.823 27.356C163.494 27.0873 163.017 26.953 162.393 26.953C161.388 26.953 160.612 27.2823 160.066 27.941L159.182 27.174C159.537 26.7407 160.001 26.4027 160.573 26.16C161.154 25.9173 161.799 25.796 162.51 25.796C163.463 25.796 164.222 26.0257 164.785 26.485C165.348 26.9357 165.63 27.551 165.63 28.331C165.63 28.8163 165.526 29.2757 165.318 29.709C165.11 30.1423 164.716 30.6363 164.135 31.191L161.353 33.869H166.02ZM173.615 33.869V35H167.076V34.116L170.781 30.541C171.232 30.1077 171.535 29.735 171.691 29.423C171.847 29.1023 171.925 28.7817 171.925 28.461C171.925 27.9843 171.756 27.616 171.418 27.356C171.089 27.0873 170.612 26.953 169.988 26.953C168.983 26.953 168.207 27.2823 167.661 27.941L166.777 27.174C167.132 26.7407 167.596 26.4027 168.168 26.16C168.749 25.9173 169.394 25.796 170.105 25.796C171.058 25.796 171.817 26.0257 172.38 26.485C172.943 26.9357 173.225 27.551 173.225 28.331C173.225 28.8163 173.121 29.2757 172.913 29.709C172.705 30.1423 172.311 30.6363 171.73 31.191L168.948 33.869H173.615ZM175.799 35.078C175.556 35.078 175.348 34.9957 175.175 34.831C175.001 34.6577 174.915 34.441 174.915 34.181C174.915 33.9297 175.001 33.7217 175.175 33.557C175.348 33.3837 175.556 33.297 175.799 33.297C176.041 33.297 176.245 33.3793 176.41 33.544C176.574 33.7087 176.657 33.921 176.657 34.181C176.657 34.441 176.57 34.6577 176.397 34.831C176.232 34.9957 176.033 35.078 175.799 35.078ZM181.582 35.104C180.862 35.104 180.221 34.922 179.658 34.558C179.103 34.1853 178.665 33.648 178.345 32.946C178.024 32.244 177.864 31.412 177.864 30.45C177.864 29.488 178.024 28.656 178.345 27.954C178.665 27.252 179.103 26.719 179.658 26.355C180.221 25.9823 180.862 25.796 181.582 25.796C182.292 25.796 182.925 25.9823 183.48 26.355C184.043 26.719 184.485 27.252 184.806 27.954C185.126 28.656 185.287 29.488 185.287 30.45C185.287 31.412 185.126 32.244 184.806 32.946C184.485 33.648 184.043 34.1853 183.48 34.558C182.925 34.922 182.292 35.104 181.582 35.104ZM181.582 33.947C182.31 33.947 182.89 33.648 183.324 33.05C183.766 32.452 183.987 31.5853 183.987 30.45C183.987 29.3147 183.766 28.448 183.324 27.85C182.89 27.252 182.31 26.953 181.582 26.953C180.845 26.953 180.256 27.252 179.814 27.85C179.38 28.448 179.164 29.3147 179.164 30.45C179.164 31.5853 179.38 32.452 179.814 33.05C180.256 33.648 180.845 33.947 181.582 33.947ZM194.582 32.764H192.853V35H191.592V32.764H186.535V31.854L191.189 25.9H192.593L188.134 31.646H191.631V29.67H192.853V31.646H194.582V32.764ZM196.603 35.078C196.36 35.078 196.152 34.9957 195.979 34.831C195.805 34.6577 195.719 34.441 195.719 34.181C195.719 33.9297 195.805 33.7217 195.979 33.557C196.152 33.3837 196.36 33.297 196.603 33.297C196.845 33.297 197.049 33.3793 197.214 33.544C197.378 33.7087 197.461 33.921 197.461 34.181C197.461 34.441 197.374 34.6577 197.201 34.831C197.036 34.9957 196.837 35.078 196.603 35.078ZM205.343 33.869V35H198.804V34.116L202.509 30.541C202.96 30.1077 203.263 29.735 203.419 29.423C203.575 29.1023 203.653 28.7817 203.653 28.461C203.653 27.9843 203.484 27.616 203.146 27.356C202.817 27.0873 202.34 26.953 201.716 26.953C200.711 26.953 199.935 27.2823 199.389 27.941L198.505 27.174C198.86 26.7407 199.324 26.4027 199.896 26.16C200.477 25.9173 201.122 25.796 201.833 25.796C202.786 25.796 203.545 26.0257 204.108 26.485C204.671 26.9357 204.953 27.551 204.953 28.331C204.953 28.8163 204.849 29.2757 204.641 29.709C204.433 30.1423 204.039 30.6363 203.458 31.191L200.676 33.869H205.343ZM210.222 35.104C209.502 35.104 208.861 34.922 208.298 34.558C207.743 34.1853 207.305 33.648 206.985 32.946C206.664 32.244 206.504 31.412 206.504 30.45C206.504 29.488 206.664 28.656 206.985 27.954C207.305 27.252 207.743 26.719 208.298 26.355C208.861 25.9823 209.502 25.796 210.222 25.796C210.932 25.796 211.565 25.9823 212.12 26.355C212.683 26.719 213.125 27.252 213.446 27.954C213.766 28.656 213.927 29.488 213.927 30.45C213.927 31.412 213.766 32.244 213.446 32.946C213.125 33.648 212.683 34.1853 212.12 34.558C211.565 34.922 210.932 35.104 210.222 35.104ZM210.222 33.947C210.95 33.947 211.53 33.648 211.964 33.05C212.406 32.452 212.627 31.5853 212.627 30.45C212.627 29.3147 212.406 28.448 211.964 27.85C211.53 27.252 210.95 26.953 210.222 26.953C209.485 26.953 208.896 27.252 208.454 27.85C208.02 28.448 207.804 29.3147 207.804 30.45C207.804 31.5853 208.02 32.452 208.454 33.05C208.896 33.648 209.485 33.947 210.222 33.947ZM221.663 33.869V35H215.124V34.116L218.829 30.541C219.279 30.1077 219.583 29.735 219.739 29.423C219.895 29.1023 219.973 28.7817 219.973 28.461C219.973 27.9843 219.804 27.616 219.466 27.356C219.136 27.0873 218.66 26.953 218.036 26.953C217.03 26.953 216.255 27.2823 215.709 27.941L214.825 27.174C215.18 26.7407 215.644 26.4027 216.216 26.16C216.796 25.9173 217.442 25.796 218.153 25.796C219.106 25.796 219.864 26.0257 220.428 26.485C220.991 26.9357 221.273 27.551 221.273 28.331C221.273 28.8163 221.169 29.2757 220.961 29.709C220.753 30.1423 220.358 30.6363 219.778 31.191L216.996 33.869H221.663ZM226.345 29.722C227.238 29.8087 227.918 30.086 228.386 30.554C228.854 31.0133 229.088 31.6027 229.088 32.322C229.088 32.842 228.958 33.3143 228.698 33.739C228.438 34.155 228.048 34.4887 227.528 34.74C227.017 34.9827 226.389 35.104 225.643 35.104C224.993 35.104 224.369 35.0087 223.771 34.818C223.173 34.6187 222.684 34.3457 222.302 33.999L222.9 32.972C223.212 33.2667 223.611 33.505 224.096 33.687C224.582 33.8603 225.097 33.947 225.643 33.947C226.319 33.947 226.844 33.804 227.216 33.518C227.598 33.232 227.788 32.8377 227.788 32.335C227.788 31.8323 227.602 31.4423 227.229 31.165C226.857 30.8877 226.293 30.749 225.539 30.749H224.811V29.839L227.099 27.031H222.718V25.9H228.724V26.784L226.345 29.722Z" fill="white"/>
<rect x="128" y="46" width="112" height="20" rx="10" fill="#DF3434"/>
<path d="M147.243 51.9V61H145.943V56.944H140.717V61H139.417V51.9H140.717V55.813H145.943V51.9H147.243ZM156.23 57.594C156.23 57.6893 156.221 57.815 156.204 57.971H150.614C150.692 58.5777 150.956 59.0673 151.407 59.44C151.866 59.804 152.434 59.986 153.11 59.986C153.933 59.986 154.596 59.7087 155.099 59.154L155.788 59.96C155.476 60.324 155.086 60.6013 154.618 60.792C154.159 60.9827 153.643 61.078 153.071 61.078C152.343 61.078 151.697 60.9307 151.134 60.636C150.571 60.3327 150.133 59.9123 149.821 59.375C149.518 58.8377 149.366 58.231 149.366 57.555C149.366 56.8877 149.513 56.2853 149.808 55.748C150.111 55.2107 150.523 54.7947 151.043 54.5C151.572 54.1967 152.165 54.045 152.824 54.045C153.483 54.045 154.068 54.1967 154.579 54.5C155.099 54.7947 155.502 55.2107 155.788 55.748C156.083 56.2853 156.23 56.9007 156.23 57.594ZM152.824 55.098C152.226 55.098 151.723 55.28 151.316 55.644C150.917 56.008 150.683 56.4847 150.614 57.074H155.034C154.965 56.4933 154.726 56.021 154.319 55.657C153.92 55.2843 153.422 55.098 152.824 55.098ZM168.3 54.11V61H167.052V55.202H163.165V61H161.917V54.11H168.3ZM173.796 61.078C173.112 61.078 172.496 60.9263 171.95 60.623C171.404 60.3197 170.975 59.9037 170.663 59.375C170.36 58.8377 170.208 58.231 170.208 57.555C170.208 56.879 170.36 56.2767 170.663 55.748C170.975 55.2107 171.404 54.7947 171.95 54.5C172.496 54.1967 173.112 54.045 173.796 54.045C174.481 54.045 175.092 54.1967 175.629 54.5C176.175 54.7947 176.6 55.2107 176.903 55.748C177.215 56.2767 177.371 56.879 177.371 57.555C177.371 58.231 177.215 58.8377 176.903 59.375C176.6 59.9037 176.175 60.3197 175.629 60.623C175.092 60.9263 174.481 61.078 173.796 61.078ZM173.796 59.986C174.238 59.986 174.633 59.8863 174.979 59.687C175.335 59.479 175.612 59.193 175.811 58.829C176.011 58.4563 176.11 58.0317 176.11 57.555C176.11 57.0783 176.011 56.658 175.811 56.294C175.612 55.9213 175.335 55.6353 174.979 55.436C174.633 55.2367 174.238 55.137 173.796 55.137C173.354 55.137 172.956 55.2367 172.6 55.436C172.254 55.6353 171.976 55.9213 171.768 56.294C171.569 56.658 171.469 57.0783 171.469 57.555C171.469 58.0317 171.569 58.4563 171.768 58.829C171.976 59.193 172.254 59.479 172.6 59.687C172.956 59.8863 173.354 59.986 173.796 59.986ZM186.26 59.908V62.599H185.09V61H179.331V62.599H178.148V59.908H178.512C178.954 59.882 179.257 59.57 179.422 58.972C179.586 58.374 179.699 57.529 179.76 56.437L179.864 54.11H185.207V59.908H186.26ZM180.904 56.528C180.869 57.3947 180.795 58.114 180.683 58.686C180.579 59.2493 180.384 59.6567 180.098 59.908H183.959V55.202H180.969L180.904 56.528ZM194.398 54.11V61H193.15V55.202H189.263V61H188.015V54.11H194.398ZM196.943 54.11H198.191V59.128L202.416 54.11H203.547V61H202.299V55.982L198.087 61H196.943V54.11ZM209.103 61.078C208.401 61.078 207.772 60.9263 207.218 60.623C206.672 60.3197 206.243 59.9037 205.931 59.375C205.619 58.8377 205.463 58.231 205.463 57.555C205.463 56.879 205.619 56.2767 205.931 55.748C206.243 55.2107 206.672 54.7947 207.218 54.5C207.772 54.1967 208.401 54.045 209.103 54.045C209.727 54.045 210.281 54.1707 210.767 54.422C211.261 54.6733 211.642 55.0373 211.911 55.514L210.962 56.125C210.745 55.7957 210.476 55.5487 210.156 55.384C209.835 55.2193 209.48 55.137 209.09 55.137C208.639 55.137 208.232 55.2367 207.868 55.436C207.512 55.6353 207.231 55.9213 207.023 56.294C206.823 56.658 206.724 57.0783 206.724 57.555C206.724 58.0403 206.823 58.4693 207.023 58.842C207.231 59.206 207.512 59.4877 207.868 59.687C208.232 59.8863 208.639 59.986 209.09 59.986C209.48 59.986 209.835 59.9037 210.156 59.739C210.476 59.5743 210.745 59.3273 210.962 58.998L211.911 59.596C211.642 60.0727 211.261 60.441 210.767 60.701C210.281 60.9523 209.727 61.078 209.103 61.078ZM216.113 54.045C217.067 54.045 217.795 54.279 218.297 54.747C218.809 55.215 219.064 55.9127 219.064 56.84V61H217.881V60.09C217.673 60.4107 217.374 60.6577 216.984 60.831C216.603 60.9957 216.148 61.078 215.619 61.078C214.848 61.078 214.228 60.8917 213.76 60.519C213.301 60.1463 213.071 59.6567 213.071 59.05C213.071 58.4433 213.292 57.958 213.734 57.594C214.176 57.2213 214.878 57.035 215.84 57.035H217.816V56.788C217.816 56.2507 217.66 55.839 217.348 55.553C217.036 55.267 216.577 55.124 215.97 55.124C215.563 55.124 215.164 55.1933 214.774 55.332C214.384 55.462 214.055 55.6397 213.786 55.865L213.266 54.929C213.622 54.643 214.046 54.4263 214.54 54.279C215.034 54.123 215.559 54.045 216.113 54.045ZM215.827 60.116C216.304 60.116 216.716 60.012 217.062 59.804C217.409 59.5873 217.66 59.284 217.816 58.894V57.932H215.892C214.835 57.932 214.306 58.2873 214.306 58.998C214.306 59.3447 214.441 59.6177 214.709 59.817C214.978 60.0163 215.351 60.116 215.827 60.116ZM221.442 54.11H222.69V57.035H226.616V54.11H227.864V61H226.616V58.114H222.69V61H221.442V54.11Z" fill="white"/>
<path fill-rule="evenodd" clip-rule="evenodd" d="M81.6667 108.334H38.3334C34.6517 108.334 31.6667 105.349 31.6667 101.667V38.3337C31.6667 34.652 34.6517 31.667 38.3334 31.667H69.955C69.9584 31.667 69.9634 31.667 69.9667 31.667H70C70.5334 31.667 70.9884 31.9353 71.2934 32.3253L87.675 48.707C88.0667 49.012 88.3334 49.467 88.3334 50.0003V50.0353C88.3334 50.0387 88.3334 50.0403 88.3334 50.0437V101.667C88.3334 105.349 85.3484 108.334 81.6667 108.334ZM71.6667 37.302V48.3337H82.6984L71.6667 37.302ZM85 51.667H70C69.0784 51.667 68.3334 50.9203 68.3334 50.0003V35.0003H38.3334C36.4934 35.0003 35 36.4937 35 38.3337V101.667C35 103.507 36.4934 105 38.3334 105H81.6667C83.5067 105 85 103.507 85 101.667V51.667ZM75 95.0003H45C44.0784 95.0003 43.3334 94.2553 43.3334 93.3337C43.3334 92.4137 44.0784 91.667 45 91.667H75C75.9217 91.667 76.6667 92.4137 76.6667 93.3337C76.6667 94.2553 75.9217 95.0003 75 95.0003ZM75 81.667H45C44.0784 81.667 43.3334 80.922 43.3334 80.0003C43.3334 79.0803 44.0784 78.3337 45 78.3337H75C75.9217 78.3337 76.6667 79.0803 76.6667 80.0003C76.6667 80.922 75.9217 81.667 75 81.667ZM75 68.3337H45C44.0784 68.3337 43.3334 67.5887 43.3334 66.667C43.3334 65.747 44.0784 65.0003 45 65.0003H75C75.9217 65.0003 76.6667 65.747 76.6667 66.667C76.6667 67.5887 75.9217 68.3337 75 68.3337Z" fill="black"/>
<path d="M25.648 143.072H23.312V148H21.744V136.8H23.312V141.664H25.68L29.2 136.8H30.912L26.912 142.224L31.104 148H29.28L25.648 143.072ZM35.7814 139.44C36.9547 139.44 37.8507 139.728 38.4694 140.304C39.0987 140.88 39.4134 141.739 39.4134 142.88V148H37.9574V146.88C37.7014 147.275 37.3334 147.579 36.8534 147.792C36.384 147.995 35.824 148.096 35.1734 148.096C34.224 148.096 33.4614 147.867 32.8854 147.408C32.32 146.949 32.0374 146.347 32.0374 145.6C32.0374 144.853 32.3094 144.256 32.8534 143.808C33.3974 143.349 34.2614 143.12 35.4454 143.12H37.8774V142.816C37.8774 142.155 37.6854 141.648 37.3014 141.296C36.9174 140.944 36.352 140.768 35.6054 140.768C35.104 140.768 34.6134 140.853 34.1334 141.024C33.6534 141.184 33.248 141.403 32.9174 141.68L32.2774 140.528C32.7147 140.176 33.2374 139.909 33.8454 139.728C34.4534 139.536 35.0987 139.44 35.7814 139.44ZM35.4294 146.912C36.016 146.912 36.5227 146.784 36.9494 146.528C37.376 146.261 37.6854 145.888 37.8774 145.408V144.224H35.5094C34.208 144.224 33.5574 144.661 33.5574 145.536C33.5574 145.963 33.7227 146.299 34.0534 146.544C34.384 146.789 34.8427 146.912 35.4294 146.912ZM45.6353 144.416H43.8752V148H42.3392V139.52H43.8752V143.104H45.6673L48.4193 139.52H50.0673L46.8513 143.6L50.2913 148H48.4833L45.6353 144.416ZM55.4125 148.096C54.5698 148.096 53.8125 147.909 53.1405 147.536C52.4685 147.163 51.9405 146.651 51.5565 146C51.1832 145.339 50.9965 144.592 50.9965 143.76C50.9965 142.928 51.1832 142.187 51.5565 141.536C51.9405 140.875 52.4685 140.363 53.1405 140C53.8125 139.627 54.5698 139.44 55.4125 139.44C56.2552 139.44 57.0072 139.627 57.6685 140C58.3405 140.363 58.8632 140.875 59.2365 141.536C59.6205 142.187 59.8125 142.928 59.8125 143.76C59.8125 144.592 59.6205 145.339 59.2365 146C58.8632 146.651 58.3405 147.163 57.6685 147.536C57.0072 147.909 56.2552 148.096 55.4125 148.096ZM55.4125 146.752C55.9565 146.752 56.4418 146.629 56.8685 146.384C57.3058 146.128 57.6472 145.776 57.8925 145.328C58.1378 144.869 58.2605 144.347 58.2605 143.76C58.2605 143.173 58.1378 142.656 57.8925 142.208C57.6472 141.749 57.3058 141.397 56.8685 141.152C56.4418 140.907 55.9565 140.784 55.4125 140.784C54.8685 140.784 54.3778 140.907 53.9405 141.152C53.5138 141.397 53.1725 141.749 52.9165 142.208C52.6712 142.656 52.5485 143.173 52.5485 143.76C52.5485 144.347 52.6712 144.869 52.9165 145.328C53.1725 145.776 53.5138 146.128 53.9405 146.384C54.3778 146.629 54.8685 146.752 55.4125 146.752ZM62.1905 139.52H63.7265V145.696L68.9265 139.52H70.3185V148H68.7825V141.824L63.5985 148H62.1905V139.52ZM66.1585 138.416C65.3692 138.416 64.7558 138.229 64.3185 137.856C63.8812 137.472 63.6572 136.923 63.6465 136.208H64.6865C64.6972 136.603 64.8305 136.923 65.0865 137.168C65.3532 137.403 65.7052 137.52 66.1425 137.52C66.5798 137.52 66.9318 137.403 67.1985 137.168C67.4652 136.923 67.6038 136.603 67.6145 136.208H68.6865C68.6758 136.923 68.4465 137.472 67.9985 137.856C67.5505 138.229 66.9372 138.416 66.1585 138.416ZM72.8839 142.944H77.1879V144.272H72.8839V142.944ZM85.768 140.864H82.664V148H81.128V140.864H78.024V139.52H85.768V140.864ZM90.7556 148.096C89.913 148.096 89.1556 147.909 88.4836 147.536C87.8116 147.163 87.2836 146.651 86.8996 146C86.5263 145.339 86.3396 144.592 86.3396 143.76C86.3396 142.928 86.5263 142.187 86.8996 141.536C87.2836 140.875 87.8116 140.363 88.4836 140C89.1556 139.627 89.913 139.44 90.7556 139.44C91.5983 139.44 92.3503 139.627 93.0116 140C93.6836 140.363 94.2063 140.875 94.5796 141.536C94.9636 142.187 95.1556 142.928 95.1556 143.76C95.1556 144.592 94.9636 145.339 94.5796 146C94.2063 146.651 93.6836 147.163 93.0116 147.536C92.3503 147.909 91.5983 148.096 90.7556 148.096ZM90.7556 146.752C91.2996 146.752 91.785 146.629 92.2116 146.384C92.649 146.128 92.9903 145.776 93.2356 145.328C93.481 144.869 93.6036 144.347 93.6036 143.76C93.6036 143.173 93.481 142.656 93.2356 142.208C92.9903 141.749 92.649 141.397 92.2116 141.152C91.785 140.907 91.2996 140.784 90.7556 140.784C90.2116 140.784 89.721 140.907 89.2836 141.152C88.857 141.397 88.5156 141.749 88.2596 142.208C88.0143 142.656 87.8916 143.173 87.8916 143.76C87.8916 144.347 88.0143 144.869 88.2596 145.328C88.5156 145.776 88.857 146.128 89.2836 146.384C89.721 146.629 90.2116 146.752 90.7556 146.752ZM108.311 140.864H105.207V148H103.671V140.864H100.567V139.52H108.311V140.864ZM113.065 139.44C114.238 139.44 115.134 139.728 115.753 140.304C116.382 140.88 116.697 141.739 116.697 142.88V148H115.241V146.88C114.985 147.275 114.617 147.579 114.137 147.792C113.668 147.995 113.108 148.096 112.457 148.096C111.508 148.096 110.745 147.867 110.169 147.408C109.604 146.949 109.321 146.347 109.321 145.6C109.321 144.853 109.593 144.256 110.137 143.808C110.681 143.349 111.545 143.12 112.729 143.12H115.161V142.816C115.161 142.155 114.969 141.648 114.585 141.296C114.201 140.944 113.636 140.768 112.889 140.768C112.388 140.768 111.897 140.853 111.417 141.024C110.937 141.184 110.532 141.403 110.201 141.68L109.561 140.528C109.998 140.176 110.521 139.909 111.129 139.728C111.737 139.536 112.382 139.44 113.065 139.44ZM112.713 146.912C113.3 146.912 113.806 146.784 114.233 146.528C114.66 146.261 114.969 145.888 115.161 145.408V144.224H112.793C111.492 144.224 110.841 144.661 110.841 145.536C110.841 145.963 111.006 146.299 111.337 146.544C111.668 146.789 112.126 146.912 112.713 146.912ZM129.399 139.52V148H128.007V141.808L124.839 147.04H124.167L121.031 141.792V148H119.623V139.52H121.207L124.535 145.248L127.959 139.52H129.399ZM140.702 148.096C139.838 148.096 139.064 147.909 138.382 147.536C137.71 147.163 137.182 146.651 136.798 146C136.414 145.339 136.222 144.592 136.222 143.76C136.222 142.928 136.414 142.187 136.798 141.536C137.182 140.875 137.71 140.363 138.382 140C139.064 139.627 139.838 139.44 140.702 139.44C141.47 139.44 142.152 139.595 142.75 139.904C143.358 140.213 143.827 140.661 144.158 141.248L142.99 142C142.723 141.595 142.392 141.291 141.998 141.088C141.603 140.885 141.166 140.784 140.686 140.784C140.131 140.784 139.63 140.907 139.182 141.152C138.744 141.397 138.398 141.749 138.142 142.208C137.896 142.656 137.774 143.173 137.774 143.76C137.774 144.357 137.896 144.885 138.142 145.344C138.398 145.792 138.744 146.139 139.182 146.384C139.63 146.629 140.131 146.752 140.686 146.752C141.166 146.752 141.603 146.651 141.998 146.448C142.392 146.245 142.723 145.941 142.99 145.536L144.158 146.272C143.827 146.859 143.358 147.312 142.75 147.632C142.152 147.941 141.47 148.096 140.702 148.096ZM153.765 139.52L149.653 148.848C149.29 149.712 148.863 150.32 148.373 150.672C147.893 151.024 147.311 151.2 146.629 151.2C146.213 151.2 145.807 151.131 145.413 150.992C145.029 150.864 144.709 150.672 144.453 150.416L145.109 149.264C145.546 149.68 146.053 149.888 146.629 149.888C147.002 149.888 147.311 149.787 147.557 149.584C147.813 149.392 148.042 149.056 148.245 148.576L148.517 147.984L144.773 139.52H146.373L149.333 146.304L152.261 139.52H153.765ZM163.353 139.52V148H161.817V140.864H157.033V148H155.497V139.52H163.353ZM174.149 143.808C174.149 143.925 174.139 144.08 174.117 144.272H167.237C167.333 145.019 167.659 145.621 168.213 146.08C168.779 146.528 169.477 146.752 170.309 146.752C171.323 146.752 172.139 146.411 172.757 145.728L173.605 146.72C173.221 147.168 172.741 147.509 172.165 147.744C171.6 147.979 170.965 148.096 170.261 148.096C169.365 148.096 168.571 147.915 167.877 147.552C167.184 147.179 166.645 146.661 166.261 146C165.888 145.339 165.701 144.592 165.701 143.76C165.701 142.939 165.883 142.197 166.245 141.536C166.619 140.875 167.125 140.363 167.765 140C168.416 139.627 169.147 139.44 169.957 139.44C170.768 139.44 171.488 139.627 172.117 140C172.757 140.363 173.253 140.875 173.605 141.536C173.968 142.197 174.149 142.955 174.149 143.808ZM169.957 140.736C169.221 140.736 168.603 140.96 168.101 141.408C167.611 141.856 167.323 142.443 167.237 143.168H172.677C172.592 142.453 172.299 141.872 171.797 141.424C171.307 140.965 170.693 140.736 169.957 140.736ZM181.188 139.44C182.01 139.44 182.746 139.621 183.396 139.984C184.047 140.347 184.554 140.853 184.916 141.504C185.29 142.155 185.476 142.907 185.476 143.76C185.476 144.613 185.29 145.371 184.916 146.032C184.554 146.683 184.047 147.189 183.396 147.552C182.746 147.915 182.01 148.096 181.188 148.096C180.58 148.096 180.02 147.979 179.508 147.744C179.007 147.509 178.58 147.168 178.228 146.72V151.104H176.692V139.52H178.164V140.864C178.506 140.395 178.938 140.043 179.46 139.808C179.983 139.563 180.559 139.44 181.188 139.44ZM181.06 146.752C181.604 146.752 182.09 146.629 182.516 146.384C182.954 146.128 183.295 145.776 183.54 145.328C183.796 144.869 183.924 144.347 183.924 143.76C183.924 143.173 183.796 142.656 183.54 142.208C183.295 141.749 182.954 141.397 182.516 141.152C182.09 140.907 181.604 140.784 181.06 140.784C180.527 140.784 180.042 140.912 179.604 141.168C179.178 141.413 178.836 141.76 178.58 142.208C178.335 142.656 178.212 143.173 178.212 143.76C178.212 144.347 178.335 144.869 178.58 145.328C178.826 145.776 179.167 146.128 179.604 146.384C180.042 146.629 180.527 146.752 181.06 146.752ZM27.264 166.6C28.3627 166.877 28.912 167.565 28.912 168.664C28.912 169.411 28.6293 169.987 28.064 170.392C27.5093 170.797 26.6773 171 25.568 171H21.488V162.52H25.424C26.4267 162.52 27.2107 162.712 27.776 163.096C28.3413 163.469 28.624 164.003 28.624 164.696C28.624 165.144 28.5013 165.533 28.256 165.864C28.0213 166.184 27.6907 166.429 27.264 166.6ZM22.992 166.168H25.296C25.8827 166.168 26.3253 166.061 26.624 165.848C26.9333 165.635 27.088 165.325 27.088 164.92C27.088 164.109 26.4907 163.704 25.296 163.704H22.992V166.168ZM25.456 169.816C26.096 169.816 26.576 169.715 26.896 169.512C27.216 169.309 27.376 168.995 27.376 168.568C27.376 168.131 27.2267 167.805 26.928 167.592C26.64 167.379 26.1813 167.272 25.552 167.272H22.992V169.816H25.456ZM34.5001 162.44C35.6735 162.44 36.5695 162.728 37.1881 163.304C37.8175 163.88 38.1321 164.739 38.1321 165.88V171H36.6761V169.88C36.4201 170.275 36.0521 170.579 35.5721 170.792C35.1028 170.995 34.5428 171.096 33.8921 171.096C32.9428 171.096 32.1801 170.867 31.6041 170.408C31.0388 169.949 30.7561 169.347 30.7561 168.6C30.7561 167.853 31.0281 167.256 31.5721 166.808C32.1161 166.349 32.9801 166.12 34.1641 166.12H36.5961V165.816C36.5961 165.155 36.4041 164.648 36.0201 164.296C35.6361 163.944 35.0708 163.768 34.3241 163.768C33.8228 163.768 33.3321 163.853 32.8521 164.024C32.3721 164.184 31.9668 164.403 31.6361 164.68L30.9961 163.528C31.4335 163.176 31.9561 162.909 32.5641 162.728C33.1721 162.536 33.8175 162.44 34.5001 162.44ZM34.1481 169.912C34.7348 169.912 35.2415 169.784 35.6681 169.528C36.0948 169.261 36.4041 168.888 36.5961 168.408V167.224H34.2281C32.9268 167.224 32.2761 167.661 32.2761 168.536C32.2761 168.963 32.4415 169.299 32.7721 169.544C33.1028 169.789 33.5615 169.912 34.1481 169.912ZM48.77 167.416H47.122V171H45.586V167.416H43.938L41.602 171H39.778L42.69 166.616L40.002 162.52H41.634L43.922 166.104H45.586V162.52H47.122V166.104H48.786L51.074 162.52H52.722L50.034 166.632L52.946 171H51.122L48.77 167.416ZM54.7961 162.52H56.3321V166.12H61.1641V162.52H62.7001V171H61.1641V167.448H56.3321V171H54.7961V162.52ZM69.6707 165.4C70.7374 165.411 71.5534 165.656 72.1187 166.136C72.6841 166.616 72.9668 167.293 72.9668 168.168C72.9668 169.085 72.6574 169.795 72.0387 170.296C71.4307 170.787 70.5561 171.027 69.4147 171.016L65.8467 171V162.52H67.3827V165.384L69.6707 165.4ZM74.2308 162.52H75.7668V171H74.2308V162.52ZM69.3027 169.848C69.9961 169.859 70.5187 169.72 70.8707 169.432C71.2334 169.144 71.4147 168.717 71.4147 168.152C71.4147 167.597 71.2387 167.192 70.8867 166.936C70.5347 166.68 70.0067 166.547 69.3027 166.536L67.3827 166.504V169.832L69.3027 169.848ZM78.913 162.52H80.449V168.696L85.649 162.52H87.041V171H85.505V164.824L80.321 171H78.913V162.52ZM82.881 161.416C82.0917 161.416 81.4783 161.229 81.041 160.856C80.6037 160.472 80.3797 159.923 80.369 159.208H81.409C81.4197 159.603 81.553 159.923 81.809 160.168C82.0757 160.403 82.4277 160.52 82.865 160.52C83.3023 160.52 83.6543 160.403 83.921 160.168C84.1877 159.923 84.3263 159.603 84.337 159.208H85.409C85.3983 159.923 85.169 160.472 84.721 160.856C84.273 161.229 83.6597 161.416 82.881 161.416ZM103.263 169.656V172.968H101.823V171H94.7353V172.968H93.2793V169.656H93.7273C94.2713 169.624 94.6446 169.24 94.8473 168.504C95.0499 167.768 95.1886 166.728 95.2633 165.384L95.3913 162.52H101.967V169.656H103.263ZM96.6713 165.496C96.6286 166.563 96.5379 167.448 96.3993 168.152C96.2713 168.845 96.0313 169.347 95.6793 169.656H100.431V163.864H96.7513L96.6713 165.496ZM109.056 171.096C108.214 171.096 107.456 170.909 106.784 170.536C106.112 170.163 105.584 169.651 105.2 169C104.827 168.339 104.64 167.592 104.64 166.76C104.64 165.928 104.827 165.187 105.2 164.536C105.584 163.875 106.112 163.363 106.784 163C107.456 162.627 108.214 162.44 109.056 162.44C109.899 162.44 110.651 162.627 111.312 163C111.984 163.363 112.507 163.875 112.88 164.536C113.264 165.187 113.456 165.928 113.456 166.76C113.456 167.592 113.264 168.339 112.88 169C112.507 169.651 111.984 170.163 111.312 170.536C110.651 170.909 109.899 171.096 109.056 171.096ZM109.056 169.752C109.6 169.752 110.086 169.629 110.512 169.384C110.95 169.128 111.291 168.776 111.536 168.328C111.782 167.869 111.904 167.347 111.904 166.76C111.904 166.173 111.782 165.656 111.536 165.208C111.291 164.749 110.95 164.397 110.512 164.152C110.086 163.907 109.6 163.784 109.056 163.784C108.512 163.784 108.022 163.907 107.584 164.152C107.158 164.397 106.816 164.749 106.56 165.208C106.315 165.656 106.192 166.173 106.192 166.76C106.192 167.347 106.315 167.869 106.56 168.328C106.816 168.776 107.158 169.128 107.584 169.384C108.022 169.629 108.512 169.752 109.056 169.752ZM119.13 167.416H117.37V171H115.834V162.52H117.37V166.104H119.162L121.914 162.52H123.562L120.346 166.6L123.786 171H121.978L119.13 167.416ZM132.64 162.52L128.528 171.848C128.166 172.712 127.739 173.32 127.248 173.672C126.768 174.024 126.187 174.2 125.504 174.2C125.088 174.2 124.683 174.131 124.288 173.992C123.904 173.864 123.584 173.672 123.328 173.416L123.984 172.264C124.422 172.68 124.928 172.888 125.504 172.888C125.878 172.888 126.187 172.787 126.432 172.584C126.688 172.392 126.918 172.056 127.12 171.576L127.392 170.984L123.648 162.52H125.248L128.208 169.304L131.136 162.52H132.64ZM144.149 162.52V171H142.757V164.808L139.589 170.04H138.917L135.781 164.792V171H134.373V162.52H135.957L139.285 168.248L142.709 162.52H144.149ZM154.963 166.808C154.963 166.925 154.952 167.08 154.931 167.272H148.051C148.147 168.019 148.472 168.621 149.027 169.08C149.592 169.528 150.291 169.752 151.123 169.752C152.136 169.752 152.952 169.411 153.571 168.728L154.419 169.72C154.035 170.168 153.555 170.509 152.979 170.744C152.413 170.979 151.779 171.096 151.075 171.096C150.179 171.096 149.384 170.915 148.691 170.552C147.997 170.179 147.459 169.661 147.075 169C146.701 168.339 146.515 167.592 146.515 166.76C146.515 165.939 146.696 165.197 147.059 164.536C147.432 163.875 147.939 163.363 148.579 163C149.229 162.627 149.96 162.44 150.771 162.44C151.581 162.44 152.301 162.627 152.931 163C153.571 163.363 154.067 163.875 154.419 164.536C154.781 165.197 154.963 165.955 154.963 166.808ZM150.771 163.736C150.035 163.736 149.416 163.96 148.915 164.408C148.424 164.856 148.136 165.443 148.051 166.168H153.491C153.405 165.453 153.112 164.872 152.611 164.424C152.12 163.965 151.507 163.736 150.771 163.736ZM157.506 162.52H159.042V166.12H163.874V162.52H165.41V171H163.874V167.448H159.042V171H157.506V162.52ZM174.876 163.864H171.772V171H170.236V163.864H167.132V162.52H174.876V163.864ZM29.344 185.52V194H27.808V186.864H23.024V194H21.488V185.52H29.344ZM36.1081 194.096C35.2655 194.096 34.5081 193.909 33.8361 193.536C33.1641 193.163 32.6361 192.651 32.2521 192C31.8788 191.339 31.6921 190.592 31.6921 189.76C31.6921 188.928 31.8788 188.187 32.2521 187.536C32.6361 186.875 33.1641 186.363 33.8361 186C34.5081 185.627 35.2655 185.44 36.1081 185.44C36.9508 185.44 37.7028 185.627 38.3641 186C39.0361 186.363 39.5588 186.875 39.9321 187.536C40.3161 188.187 40.5081 188.928 40.5081 189.76C40.5081 190.592 40.3161 191.339 39.9321 192C39.5588 192.651 39.0361 193.163 38.3641 193.536C37.7028 193.909 36.9508 194.096 36.1081 194.096ZM36.1081 192.752C36.6521 192.752 37.1375 192.629 37.5641 192.384C38.0015 192.128 38.3428 191.776 38.5881 191.328C38.8335 190.869 38.9561 190.347 38.9561 189.76C38.9561 189.173 38.8335 188.656 38.5881 188.208C38.3428 187.749 38.0015 187.397 37.5641 187.152C37.1375 186.907 36.6521 186.784 36.1081 186.784C35.5641 186.784 35.0735 186.907 34.6361 187.152C34.2095 187.397 33.8681 187.749 33.6121 188.208C33.3668 188.656 33.2441 189.173 33.2441 189.76C33.2441 190.347 33.3668 190.869 33.6121 191.328C33.8681 191.776 34.2095 192.128 34.6361 192.384C35.0735 192.629 35.5641 192.752 36.1081 192.752ZM42.8861 185.52H44.4221V189.12H49.2541V185.52H50.7901V194H49.2541V190.448H44.4221V194H42.8861V185.52ZM60.7367 185.52V194H59.3607V191.312H56.8967H56.7207L54.8647 194H53.2167L55.2807 191.104C54.6407 190.912 54.1501 190.597 53.8087 190.16C53.4674 189.712 53.2967 189.157 53.2967 188.496C53.2967 187.525 53.6274 186.789 54.2887 186.288C54.9501 185.776 55.8621 185.52 57.0247 185.52H60.7367ZM54.8647 188.544C54.8647 189.109 55.0407 189.531 55.3927 189.808C55.7554 190.075 56.2941 190.208 57.0087 190.208H59.3607V186.864H57.0727C55.6007 186.864 54.8647 187.424 54.8647 188.544ZM70.2136 186.864H67.1096V194H65.5736V186.864H62.4696V185.52H70.2136V186.864ZM71.9442 185.52H73.4802V191.696L78.6802 185.52H80.0722V194H78.5362V187.824L73.3522 194H71.9442V185.52ZM90.0136 185.52V194H88.6376V191.312H86.1736H85.9976L84.1416 194H82.4936L84.5576 191.104C83.9176 190.912 83.427 190.597 83.0856 190.16C82.7443 189.712 82.5736 189.157 82.5736 188.496C82.5736 187.525 82.9043 186.789 83.5656 186.288C84.227 185.776 85.139 185.52 86.3016 185.52H90.0136ZM84.1416 188.544C84.1416 189.109 84.3176 189.531 84.6696 189.808C85.0323 190.075 85.571 190.208 86.2856 190.208H88.6376V186.864H86.3496C84.8776 186.864 84.1416 187.424 84.1416 188.544ZM97.6274 185.52H99.1634V189.12H103.995V185.52H105.531V194H103.995V190.448H99.1634V194H97.6274V185.52ZM116.342 189.808C116.342 189.925 116.331 190.08 116.31 190.272H109.43C109.526 191.019 109.851 191.621 110.406 192.08C110.971 192.528 111.67 192.752 112.502 192.752C113.515 192.752 114.331 192.411 114.95 191.728L115.798 192.72C115.414 193.168 114.934 193.509 114.358 193.744C113.793 193.979 113.158 194.096 112.454 194.096C111.558 194.096 110.763 193.915 110.07 193.552C109.377 193.179 108.838 192.661 108.454 192C108.081 191.339 107.894 190.592 107.894 189.76C107.894 188.939 108.075 188.197 108.438 187.536C108.811 186.875 109.318 186.363 109.958 186C110.609 185.627 111.339 185.44 112.15 185.44C112.961 185.44 113.681 185.627 114.31 186C114.95 186.363 115.446 186.875 115.798 187.536C116.161 188.197 116.342 188.955 116.342 189.808ZM112.15 186.736C111.414 186.736 110.795 186.96 110.294 187.408C109.803 187.856 109.515 188.443 109.43 189.168H114.87C114.785 188.453 114.491 187.872 113.99 187.424C113.499 186.965 112.886 186.736 112.15 186.736ZM123.342 185.52H124.878V191.696L130.078 185.52H131.47V194H129.934V187.824L124.75 194H123.342V185.52ZM144.387 185.52V194H142.995V187.808L139.827 193.04H139.155L136.019 187.792V194H134.611V185.52H136.195L139.523 191.248L142.947 185.52H144.387ZM155.201 189.808C155.201 189.925 155.19 190.08 155.169 190.272H148.289C148.385 191.019 148.71 191.621 149.265 192.08C149.83 192.528 150.529 192.752 151.361 192.752C152.374 192.752 153.19 192.411 153.809 191.728L154.657 192.72C154.273 193.168 153.793 193.509 153.217 193.744C152.651 193.979 152.017 194.096 151.313 194.096C150.417 194.096 149.622 193.915 148.929 193.552C148.235 193.179 147.697 192.661 147.313 192C146.939 191.339 146.753 190.592 146.753 189.76C146.753 188.939 146.934 188.197 147.297 187.536C147.67 186.875 148.177 186.363 148.817 186C149.467 185.627 150.198 185.44 151.009 185.44C151.819 185.44 152.539 185.627 153.169 186C153.809 186.363 154.305 186.875 154.657 187.536C155.019 188.197 155.201 188.955 155.201 189.808ZM151.009 186.736C150.273 186.736 149.654 186.96 149.153 187.408C148.662 187.856 148.374 188.443 148.289 189.168H153.729C153.643 188.453 153.35 187.872 152.849 187.424C152.358 186.965 151.745 186.736 151.009 186.736ZM165.248 185.44C166.069 185.44 166.805 185.627 167.456 186C168.106 186.363 168.618 186.875 168.992 187.536C169.365 188.187 169.552 188.928 169.552 189.76C169.552 190.592 169.365 191.339 168.992 192C168.618 192.651 168.106 193.163 167.456 193.536C166.805 193.909 166.069 194.096 165.248 194.096C164.501 194.096 163.824 193.941 163.216 193.632C162.608 193.323 162.106 192.891 161.712 192.336C161.328 191.771 161.088 191.131 160.992 190.416H159.28V194H157.744V185.52H159.28V188.992H161.008C161.114 188.288 161.36 187.669 161.744 187.136C162.138 186.592 162.634 186.176 163.232 185.888C163.84 185.589 164.512 185.44 165.248 185.44ZM165.248 192.752C165.77 192.752 166.24 192.629 166.656 192.384C167.082 192.139 167.418 191.792 167.664 191.344C167.909 190.885 168.032 190.357 168.032 189.76C168.032 189.173 167.909 188.656 167.664 188.208C167.418 187.749 167.082 187.397 166.656 187.152C166.24 186.907 165.77 186.784 165.248 186.784C164.725 186.784 164.25 186.907 163.824 187.152C163.397 187.397 163.061 187.749 162.816 188.208C162.581 188.656 162.464 189.173 162.464 189.76C162.464 190.357 162.581 190.885 162.816 191.344C163.061 191.792 163.397 192.139 163.824 192.384C164.25 192.629 164.725 192.752 165.248 192.752ZM180.008 194.096C179.165 194.096 178.408 193.909 177.736 193.536C177.064 193.163 176.536 192.651 176.152 192C175.779 191.339 175.592 190.592 175.592 189.76C175.592 188.928 175.779 188.187 176.152 187.536C176.536 186.875 177.064 186.363 177.736 186C178.408 185.627 179.165 185.44 180.008 185.44C180.851 185.44 181.603 185.627 182.264 186C182.936 186.363 183.459 186.875 183.832 187.536C184.216 188.187 184.408 188.928 184.408 189.76C184.408 190.592 184.216 191.339 183.832 192C183.459 192.651 182.936 193.163 182.264 193.536C181.603 193.909 180.851 194.096 180.008 194.096ZM180.008 192.752C180.552 192.752 181.037 192.629 181.464 192.384C181.901 192.128 182.243 191.776 182.488 191.328C182.733 190.869 182.856 190.347 182.856 189.76C182.856 189.173 182.733 188.656 182.488 188.208C182.243 187.749 181.901 187.397 181.464 187.152C181.037 186.907 180.552 186.784 180.008 186.784C179.464 186.784 178.973 186.907 178.536 187.152C178.109 187.397 177.768 187.749 177.512 188.208C177.267 188.656 177.144 189.173 177.144 189.76C177.144 190.347 177.267 190.869 177.512 191.328C177.768 191.776 178.109 192.128 178.536 192.384C178.973 192.629 179.464 192.752 180.008 192.752ZM198.011 185.52V194H196.475V190.576C195.558 191.003 194.646 191.216 193.739 191.216C192.683 191.216 191.867 190.971 191.291 190.48C190.715 189.989 190.427 189.253 190.427 188.272V185.52H191.963V188.176C191.963 188.763 192.144 189.205 192.507 189.504C192.88 189.803 193.398 189.952 194.059 189.952C194.806 189.952 195.611 189.765 196.475 189.392V185.52H198.011ZM208.817 189.808C208.817 189.925 208.806 190.08 208.785 190.272H201.905C202.001 191.019 202.326 191.621 202.881 192.08C203.446 192.528 204.145 192.752 204.977 192.752C205.99 192.752 206.806 192.411 207.425 191.728L208.273 192.72C207.889 193.168 207.409 193.509 206.833 193.744C206.268 193.979 205.633 194.096 204.929 194.096C204.033 194.096 203.238 193.915 202.545 193.552C201.852 193.179 201.313 192.661 200.929 192C200.556 191.339 200.369 190.592 200.369 189.76C200.369 188.939 200.55 188.197 200.913 187.536C201.286 186.875 201.793 186.363 202.433 186C203.084 185.627 203.814 185.44 204.625 185.44C205.436 185.44 206.156 185.627 206.785 186C207.425 186.363 207.921 186.875 208.273 187.536C208.636 188.197 208.817 188.955 208.817 189.808ZM204.625 186.736C203.889 186.736 203.27 186.96 202.769 187.408C202.278 187.856 201.99 188.443 201.905 189.168H207.345C207.26 188.453 206.966 187.872 206.465 187.424C205.974 186.965 205.361 186.736 204.625 186.736ZM203.121 184.016C202.897 184.016 202.705 183.941 202.545 183.792C202.385 183.632 202.305 183.435 202.305 183.2C202.305 182.965 202.385 182.768 202.545 182.608C202.705 182.448 202.897 182.368 203.121 182.368C203.345 182.368 203.537 182.448 203.697 182.608C203.857 182.768 203.937 182.965 203.937 183.2C203.937 183.435 203.857 183.632 203.697 183.792C203.537 183.941 203.345 184.016 203.121 184.016ZM206.097 184.016C205.873 184.016 205.681 183.941 205.521 183.792C205.361 183.632 205.281 183.435 205.281 183.2C205.281 182.965 205.361 182.768 205.521 182.608C205.681 182.448 205.873 182.368 206.097 182.368C206.321 182.368 206.513 182.448 206.673 182.608C206.833 182.768 206.913 182.965 206.913 183.2C206.913 183.435 206.833 183.632 206.673 183.792C206.513 183.941 206.321 184.016 206.097 184.016ZM221.136 185.52V194H219.744V187.808L216.576 193.04H215.904L212.768 187.792V194H211.36V185.52H212.944L216.272 191.248L219.696 185.52H221.136ZM25.12 217.096C24.2773 217.096 23.52 216.909 22.848 216.536C22.176 216.163 21.648 215.651 21.264 215C20.8907 214.339 20.704 213.592 20.704 212.76C20.704 211.928 20.8907 211.187 21.264 210.536C21.648 209.875 22.176 209.363 22.848 209C23.52 208.627 24.2773 208.44 25.12 208.44C25.9627 208.44 26.7147 208.627 27.376 209C28.048 209.363 28.5707 209.875 28.944 210.536C29.328 211.187 29.52 211.928 29.52 212.76C29.52 213.592 29.328 214.339 28.944 215C28.5707 215.651 28.048 216.163 27.376 216.536C26.7147 216.909 25.9627 217.096 25.12 217.096ZM25.12 215.752C25.664 215.752 26.1493 215.629 26.576 215.384C27.0133 215.128 27.3547 214.776 27.6 214.328C27.8453 213.869 27.968 213.347 27.968 212.76C27.968 212.173 27.8453 211.656 27.6 211.208C27.3547 210.749 27.0133 210.397 26.576 210.152C26.1493 209.907 25.664 209.784 25.12 209.784C24.576 209.784 24.0853 209.907 23.648 210.152C23.2213 210.397 22.88 210.749 22.624 211.208C22.3787 211.656 22.256 212.173 22.256 212.76C22.256 213.347 22.3787 213.869 22.624 214.328C22.88 214.776 23.2213 215.128 23.648 215.384C24.0853 215.629 24.576 215.752 25.12 215.752ZM31.898 208.52H33.434V212.12H38.266V208.52H39.802V217H38.266V213.448H33.434V217H31.898V208.52ZM42.9486 208.52H44.4846V214.696L49.6846 208.52H51.0766V217H49.5406V210.824L44.3566 217H42.9486V208.52ZM62.9949 208.808C63.7842 208.808 64.4882 208.984 65.1069 209.336C65.7255 209.688 66.2055 210.179 66.5469 210.808C66.8989 211.427 67.0749 212.136 67.0749 212.936C67.0749 213.757 66.8882 214.488 66.5149 215.128C66.1522 215.757 65.6349 216.248 64.9629 216.6C64.3015 216.952 63.5442 217.128 62.6909 217.128C61.2509 217.128 60.1362 216.637 59.3469 215.656C58.5682 214.664 58.1789 213.272 58.1789 211.48C58.1789 209.741 58.5362 208.381 59.2509 207.4C59.9655 206.408 61.0589 205.752 62.5309 205.432L66.4029 204.568L66.6269 205.976L63.0589 206.744C61.9495 206.989 61.1229 207.405 60.5789 207.992C60.0349 208.579 59.7255 209.421 59.6509 210.52C60.0135 209.976 60.4829 209.555 61.0589 209.256C61.6349 208.957 62.2802 208.808 62.9949 208.808ZM62.7229 215.848C63.2669 215.848 63.7469 215.725 64.1629 215.48C64.5895 215.235 64.9202 214.899 65.1549 214.472C65.3895 214.035 65.5069 213.539 65.5069 212.984C65.5069 212.141 65.2509 211.464 64.7389 210.952C64.2269 210.44 63.5549 210.184 62.7229 210.184C61.8909 210.184 61.2135 210.44 60.6909 210.952C60.1789 211.464 59.9229 212.141 59.9229 212.984C59.9229 213.539 60.0402 214.035 60.2749 214.472C60.5202 214.899 60.8562 215.235 61.2829 215.48C61.7095 215.725 62.1895 215.848 62.7229 215.848ZM73.2526 211.4C74.3193 211.411 75.1353 211.656 75.7006 212.136C76.266 212.616 76.5486 213.293 76.5486 214.168C76.5486 215.085 76.2393 215.795 75.6206 216.296C75.0126 216.787 74.138 217.027 72.9966 217.016L69.4286 217V208.52H70.9646V211.384L73.2526 211.4ZM77.8126 208.52H79.3486V217H77.8126V208.52ZM72.8846 215.848C73.578 215.859 74.1006 215.72 74.4526 215.432C74.8153 215.144 74.9966 214.717 74.9966 214.152C74.9966 213.597 74.8206 213.192 74.4686 212.936C74.1166 212.68 73.5886 212.547 72.8846 212.536L70.9646 212.504V215.832L72.8846 215.848ZM88.2709 212.6C89.3695 212.877 89.9189 213.565 89.9189 214.664C89.9189 215.411 89.6362 215.987 89.0709 216.392C88.5162 216.797 87.6842 217 86.5749 217H82.4949V208.52H86.4309C87.4335 208.52 88.2175 208.712 88.7829 209.096C89.3482 209.469 89.6309 210.003 89.6309 210.696C89.6309 211.144 89.5082 211.533 89.2629 211.864C89.0282 212.184 88.6975 212.429 88.2709 212.6ZM83.9989 212.168H86.3029C86.8895 212.168 87.3322 212.061 87.6309 211.848C87.9402 211.635 88.0949 211.325 88.0949 210.92C88.0949 210.109 87.4975 209.704 86.3029 209.704H83.9989V212.168ZM86.4629 215.816C87.1029 215.816 87.5829 215.715 87.9029 215.512C88.2229 215.309 88.3829 214.995 88.3829 214.568C88.3829 214.131 88.2335 213.805 87.9349 213.592C87.6469 213.379 87.1882 213.272 86.5589 213.272H83.9989V215.816H86.4629ZM95.507 208.44C96.6803 208.44 97.5763 208.728 98.195 209.304C98.8243 209.88 99.139 210.739 99.139 211.88V217H97.683V215.88C97.427 216.275 97.059 216.579 96.579 216.792C96.1097 216.995 95.5497 217.096 94.899 217.096C93.9497 217.096 93.187 216.867 92.611 216.408C92.0457 215.949 91.763 215.347 91.763 214.6C91.763 213.853 92.035 213.256 92.579 212.808C93.123 212.349 93.987 212.12 95.171 212.12H97.603V211.816C97.603 211.155 97.411 210.648 97.027 210.296C96.643 209.944 96.0777 209.768 95.331 209.768C94.8297 209.768 94.339 209.853 93.859 210.024C93.379 210.184 92.9737 210.403 92.643 210.68L92.003 209.528C92.4403 209.176 92.963 208.909 93.571 208.728C94.179 208.536 94.8243 208.44 95.507 208.44ZM95.155 215.912C95.7417 215.912 96.2483 215.784 96.675 215.528C97.1017 215.261 97.411 214.888 97.603 214.408V213.224H95.235C93.9337 213.224 93.283 213.661 93.283 214.536C93.283 214.963 93.4483 215.299 93.779 215.544C94.1097 215.789 94.5683 215.912 95.155 215.912ZM109.569 208.44C110.39 208.44 111.126 208.627 111.777 209C112.428 209.363 112.94 209.875 113.313 210.536C113.686 211.187 113.873 211.928 113.873 212.76C113.873 213.592 113.686 214.339 113.313 215C112.94 215.651 112.428 216.163 111.777 216.536C111.126 216.909 110.39 217.096 109.569 217.096C108.822 217.096 108.145 216.941 107.537 216.632C106.929 216.323 106.428 215.891 106.033 215.336C105.649 214.771 105.409 214.131 105.313 213.416H103.601V217H102.065V208.52H103.601V211.992H105.329C105.436 211.288 105.681 210.669 106.065 210.136C106.46 209.592 106.956 209.176 107.553 208.888C108.161 208.589 108.833 208.44 109.569 208.44ZM109.569 215.752C110.092 215.752 110.561 215.629 110.977 215.384C111.404 215.139 111.74 214.792 111.985 214.344C112.23 213.885 112.353 213.357 112.353 212.76C112.353 212.173 112.23 211.656 111.985 211.208C111.74 210.749 111.404 210.397 110.977 210.152C110.561 209.907 110.092 209.784 109.569 209.784C109.046 209.784 108.572 209.907 108.145 210.152C107.718 210.397 107.382 210.749 107.137 211.208C106.902 211.656 106.785 212.173 106.785 212.76C106.785 213.357 106.902 213.885 107.137 214.344C107.382 214.792 107.718 215.139 108.145 215.384C108.572 215.629 109.046 215.752 109.569 215.752ZM122.248 209.864H119.144V217H117.608V209.864H114.504V208.52H122.248V209.864Z" fill="black"/>
<g filter="url(#filter0_d_202_22228)">
<rect x="47" y="238" width="166" height="33" rx="16.5" fill="url(#paint0_linear_202_22228)"/>
<path d="M97.7674 249V259.5H96.2974V250.305H90.2074V259.5H88.7224V249H97.7674ZM104.207 259.59C103.417 259.59 102.707 259.415 102.077 259.065C101.447 258.715 100.952 258.235 100.592 257.625C100.242 257.005 100.067 256.305 100.067 255.525C100.067 254.745 100.242 254.05 100.592 253.44C100.952 252.82 101.447 252.34 102.077 252C102.707 251.65 103.417 251.475 104.207 251.475C104.997 251.475 105.702 251.65 106.322 252C106.952 252.34 107.442 252.82 107.792 253.44C108.152 254.05 108.332 254.745 108.332 255.525C108.332 256.305 108.152 257.005 107.792 257.625C107.442 258.235 106.952 258.715 106.322 259.065C105.702 259.415 104.997 259.59 104.207 259.59ZM104.207 258.33C104.717 258.33 105.172 258.215 105.572 257.985C105.982 257.745 106.302 257.415 106.532 256.995C106.762 256.565 106.877 256.075 106.877 255.525C106.877 254.975 106.762 254.49 106.532 254.07C106.302 253.64 105.982 253.31 105.572 253.08C105.172 252.85 104.717 252.735 104.207 252.735C103.697 252.735 103.237 252.85 102.827 253.08C102.427 253.31 102.107 253.64 101.867 254.07C101.637 254.49 101.522 254.975 101.522 255.525C101.522 256.075 101.637 256.565 101.867 256.995C102.107 257.415 102.427 257.745 102.827 257.985C103.237 258.215 103.697 258.33 104.207 258.33ZM118.438 258.24V261.345H117.088V259.5H110.443V261.345H109.078V258.24H109.498C110.008 258.21 110.358 257.85 110.548 257.16C110.738 256.47 110.868 255.495 110.938 254.235L111.058 251.55H117.223V258.24H118.438ZM112.258 254.34C112.218 255.34 112.133 256.17 112.003 256.83C111.883 257.48 111.658 257.95 111.328 258.24H115.783V252.81H112.333L112.258 254.34ZM127.678 251.55V259.5H126.238V252.81H121.753V259.5H120.313V251.55H127.678ZM130.465 251.55H131.905V257.34L136.78 251.55H138.085V259.5H136.645V253.71L131.785 259.5H130.465V251.55ZM144.345 259.59C143.535 259.59 142.81 259.415 142.17 259.065C141.54 258.715 141.045 258.235 140.685 257.625C140.325 257.005 140.145 256.305 140.145 255.525C140.145 254.745 140.325 254.05 140.685 253.44C141.045 252.82 141.54 252.34 142.17 252C142.81 251.65 143.535 251.475 144.345 251.475C145.065 251.475 145.705 251.62 146.265 251.91C146.835 252.2 147.275 252.62 147.585 253.17L146.49 253.875C146.24 253.495 145.93 253.21 145.56 253.02C145.19 252.83 144.78 252.735 144.33 252.735C143.81 252.735 143.34 252.85 142.92 253.08C142.51 253.31 142.185 253.64 141.945 254.07C141.715 254.49 141.6 254.975 141.6 255.525C141.6 256.085 141.715 256.58 141.945 257.01C142.185 257.43 142.51 257.755 142.92 257.985C143.34 258.215 143.81 258.33 144.33 258.33C144.78 258.33 145.19 258.235 145.56 258.045C145.93 257.855 146.24 257.57 146.49 257.19L147.585 257.88C147.275 258.43 146.835 258.855 146.265 259.155C145.705 259.445 145.065 259.59 144.345 259.59ZM152.284 251.475C153.384 251.475 154.224 251.745 154.804 252.285C155.394 252.825 155.689 253.63 155.689 254.7V259.5H154.324V258.45C154.084 258.82 153.739 259.105 153.289 259.305C152.849 259.495 152.324 259.59 151.714 259.59C150.824 259.59 150.109 259.375 149.569 258.945C149.039 258.515 148.774 257.95 148.774 257.25C148.774 256.55 149.029 255.99 149.539 255.57C150.049 255.14 150.859 254.925 151.969 254.925H154.249V254.64C154.249 254.02 154.069 253.545 153.709 253.215C153.349 252.885 152.819 252.72 152.119 252.72C151.649 252.72 151.189 252.8 150.739 252.96C150.289 253.11 149.909 253.315 149.599 253.575L148.999 252.495C149.409 252.165 149.899 251.915 150.469 251.745C151.039 251.565 151.644 251.475 152.284 251.475ZM151.954 258.48C152.504 258.48 152.979 258.36 153.379 258.12C153.779 257.87 154.069 257.52 154.249 257.07V255.96H152.029C150.809 255.96 150.199 256.37 150.199 257.19C150.199 257.59 150.354 257.905 150.664 258.135C150.974 258.365 151.404 258.48 151.954 258.48ZM164.207 252.81H161.297V259.5H159.857V252.81H156.947V251.55H164.207V252.81ZM169.355 254.25C170.365 254.26 171.135 254.49 171.665 254.94C172.195 255.39 172.46 256.025 172.46 256.845C172.46 257.705 172.17 258.37 171.59 258.84C171.02 259.3 170.2 259.525 169.13 259.515L165.68 259.5V251.55H167.12V254.235L169.355 254.25ZM169.01 258.42C169.66 258.43 170.15 258.3 170.48 258.03C170.82 257.76 170.99 257.36 170.99 256.83C170.99 256.31 170.825 255.93 170.495 255.69C170.175 255.45 169.68 255.325 169.01 255.315L167.12 255.285V258.405L169.01 258.42Z" fill="white"/>
</g>
<defs>
<filter id="filter0_d_202_22228" x="42" y="233" width="176" height="43" filterUnits="userSpaceOnUse" color-interpolation-filters="sRGB">
<feFlood flood-opacity="0" result="BackgroundImageFix"/>
<feColorMatrix in="SourceAlpha" type="matrix" values="0 0 0 0 0 0 0 0 0 0 0 0 0 0 0 0 0 0 127 0" result="hardAlpha"/>
<feOffset/>
<feGaussianBlur stdDeviation="2.5"/>
<feColorMatrix type="matrix" values="0 0 0 0 0.258824 0 0 0 0 0.396078 0 0 0 0 0.254902 0 0 0 1 0"/>
<feBlend mode="normal" in2="BackgroundImageFix" result="effect1_dropShadow_202_22228"/>
<feBlend mode="normal" in="SourceGraphic" in2="effect1_dropShadow_202_22228" result="shape"/>
</filter>
<linearGradient id="paint0_linear_202_22228" x1="47" y1="254.72" x2="223.865" y2="254.72" gradientUnits="userSpaceOnUse">
<stop stop-color="#7AB478"/>
<stop offset="1" stop-color="#365435"/>
</linearGradient>
</defs>
</svg>
