<svg width="25" height="25" viewBox="0 0 25 25" fill="none" xmlns="http://www.w3.org/2000/svg">
<g clip-path="url(#clip0_108_221)">
<path d="M12.5 1.5625C6.02812 1.5625 0.78125 6.10938 0.78125 11.7188C0.798072 13.0205 1.08444 14.3046 1.62229 15.4902C2.16014 16.6758 2.93781 17.737 3.90625 18.607L3.125 23.4375L9.30234 21.4844C10.3487 21.7425 11.4223 21.8737 12.5 21.875C18.9719 21.875 24.2188 17.3281 24.2188 11.7188C24.2188 6.10938 18.9719 1.5625 12.5 1.5625Z" stroke="#7B7B7B" stroke-width="1.5" stroke-linejoin="round"/>
<path d="M12.5 17.9688C16.3833 17.9688 19.5312 15.1705 19.5312 11.7188C19.5312 8.26697 16.3833 5.46875 12.5 5.46875C8.61675 5.46875 5.46875 8.26697 5.46875 11.7188C5.46875 15.1705 8.61675 17.9688 12.5 17.9688Z" stroke="#7B7B7B" stroke-width="1.5" stroke-linejoin="round"/>
</g>
<defs>
<clipPath id="clip0_108_221">
<rect width="25" height="25" fill="white"/>
</clipPath>
</defs>
</svg>
