<svg width="25" height="25" viewBox="0 0 25 25" fill="none" xmlns="http://www.w3.org/2000/svg">
<g clip-path="url(#clip0_108_204)">
<path d="M22.6562 0.78125H2.34375C1.48081 0.78125 0.78125 1.48081 0.78125 2.34375V22.6562C0.78125 23.5192 1.48081 24.2188 2.34375 24.2188H22.6562C23.5192 24.2188 24.2188 23.5192 24.2188 22.6562V2.34375C24.2188 1.48081 23.5192 0.78125 22.6562 0.78125Z" stroke="#7B7B7B" stroke-width="1.5" stroke-linejoin="round"/>
<path d="M8.59375 7.03125H21.0938" stroke="#7B7B7B" stroke-width="1.5" stroke-linejoin="round"/>
<path d="M8.59375 12.5H21.0938" stroke="#7B7B7B" stroke-width="1.5" stroke-linejoin="round"/>
<path d="M8.59375 17.9688H21.0938" stroke="#7B7B7B" stroke-width="1.5" stroke-linejoin="round"/>
<path d="M6.25 6.25H4.6875V7.8125H6.25V6.25Z" stroke="#7B7B7B" stroke-width="1.5" stroke-linejoin="round"/>
<path d="M6.25 11.7188H4.6875V13.2812H6.25V11.7188Z" stroke="#7B7B7B" stroke-width="1.5" stroke-linejoin="round"/>
<path d="M6.25 17.1875H4.6875V18.75H6.25V17.1875Z" stroke="#7B7B7B" stroke-width="1.5" stroke-linejoin="round"/>
</g>
<defs>
<clipPath id="clip0_108_204">
<rect width="25" height="25" fill="white"/>
</clipPath>
</defs>
</svg>
