<svg width="91" height="91" viewBox="0 0 91 91" fill="none" xmlns="http://www.w3.org/2000/svg">
<g filter="url(#filter0_d_128_130)">
<rect x="21" y="17" width="49" height="49" rx="24.5" fill="url(#paint0_linear_128_130)"/>
</g>
<path d="M54.875 39.9375H47.0625V32.125C47.0625 31.2625 46.3625 30.5625 45.5 30.5625C44.6375 30.5625 43.9375 31.2625 43.9375 32.125V39.9375H36.125C35.2625 39.9375 34.5625 40.6375 34.5625 41.5C34.5625 42.3625 35.2625 43.0625 36.125 43.0625H43.9375V50.875C43.9375 51.7375 44.6375 52.4375 45.5 52.4375C46.3625 52.4375 47.0625 51.7375 47.0625 50.875V43.0625H54.875C55.7375 43.0625 56.4375 42.3625 56.4375 41.5C56.4375 40.6375 55.7375 39.9375 54.875 39.9375Z" fill="white"/>
<defs>
<filter id="filter0_d_128_130" x="0" y="0" width="91" height="91" filterUnits="userSpaceOnUse" color-interpolation-filters="sRGB">
<feFlood flood-opacity="0" result="BackgroundImageFix"/>
<feColorMatrix in="SourceAlpha" type="matrix" values="0 0 0 0 0 0 0 0 0 0 0 0 0 0 0 0 0 0 127 0" result="hardAlpha"/>
<feMorphology radius="1" operator="dilate" in="SourceAlpha" result="effect1_dropShadow_128_130"/>
<feOffset dy="4"/>
<feGaussianBlur stdDeviation="10"/>
<feComposite in2="hardAlpha" operator="out"/>
<feColorMatrix type="matrix" values="0 0 0 0 0 0 0 0 0 0 0 0 0 0 0 0 0 0 0.1 0"/>
<feBlend mode="normal" in2="BackgroundImageFix" result="effect1_dropShadow_128_130"/>
<feBlend mode="normal" in="SourceGraphic" in2="effect1_dropShadow_128_130" result="shape"/>
</filter>
<linearGradient id="paint0_linear_128_130" x1="21" y1="41.8267" x2="73.2073" y2="41.8267" gradientUnits="userSpaceOnUse">
<stop stop-color="#7AB478"/>
<stop offset="1" stop-color="#365435"/>
</linearGradient>
</defs>
</svg>
