<svg width="250" height="117" viewBox="0 0 250 117" fill="none" xmlns="http://www.w3.org/2000/svg">
<rect width="250" height="117" rx="20" fill="#DEF0DD"/>
<path d="M33.46 68.375H27.88L26.725 71H25.18L29.935 60.5H31.42L36.19 71H34.615L33.46 68.375ZM32.935 67.175L30.67 62.03L28.405 67.175H32.935ZM42.3791 71L40.0841 67.955L37.7591 71H36.1541L39.2891 66.935L36.3041 63.05H37.9091L40.0991 65.915L42.2741 63.05H43.8491L40.8491 66.935L44.0141 71H42.3791ZM54.8444 63.05V71H53.5394V65.195L50.5694 70.1H49.9394L46.9994 65.18V71H45.6794V63.05H47.1644L50.2844 68.42L53.4944 63.05H54.8444ZM60.6321 62.975C61.7321 62.975 62.5721 63.245 63.1521 63.785C63.7421 64.325 64.0371 65.13 64.0371 66.2V71H62.6721V69.95C62.4321 70.32 62.0871 70.605 61.6371 70.805C61.1971 70.995 60.6721 71.09 60.0621 71.09C59.1721 71.09 58.4571 70.875 57.9171 70.445C57.3871 70.015 57.1221 69.45 57.1221 68.75C57.1221 68.05 57.3771 67.49 57.8871 67.07C58.3971 66.64 59.2071 66.425 60.3171 66.425H62.5971V66.14C62.5971 65.52 62.4171 65.045 62.0571 64.715C61.6971 64.385 61.1671 64.22 60.4671 64.22C59.9971 64.22 59.5371 64.3 59.0871 64.46C58.6371 64.61 58.2571 64.815 57.9471 65.075L57.3471 63.995C57.7571 63.665 58.2471 63.415 58.8171 63.245C59.3871 63.065 59.9921 62.975 60.6321 62.975ZM60.3021 69.98C60.8521 69.98 61.3271 69.86 61.7271 69.62C62.1271 69.37 62.4171 69.02 62.5971 68.57V67.46H60.3771C59.1571 67.46 58.5471 67.87 58.5471 68.69C58.5471 69.09 58.7021 69.405 59.0121 69.635C59.3221 69.865 59.7521 69.98 60.3021 69.98ZM72.7052 64.31H69.7952V71H68.3552V64.31H65.4452V63.05H72.7052V64.31ZM77.3811 71.09C76.5911 71.09 75.8811 70.915 75.2511 70.565C74.6211 70.215 74.1261 69.735 73.7661 69.125C73.4161 68.505 73.2411 67.805 73.2411 67.025C73.2411 66.245 73.4161 65.55 73.7661 64.94C74.1261 64.32 74.6211 63.84 75.2511 63.5C75.8811 63.15 76.5911 62.975 77.3811 62.975C78.1711 62.975 78.8761 63.15 79.4961 63.5C80.1261 63.84 80.6161 64.32 80.9661 64.94C81.3261 65.55 81.5061 66.245 81.5061 67.025C81.5061 67.805 81.3261 68.505 80.9661 69.125C80.6161 69.735 80.1261 70.215 79.4961 70.565C78.8761 70.915 78.1711 71.09 77.3811 71.09ZM77.3811 69.83C77.8911 69.83 78.3461 69.715 78.7461 69.485C79.1561 69.245 79.4761 68.915 79.7061 68.495C79.9361 68.065 80.0511 67.575 80.0511 67.025C80.0511 66.475 79.9361 65.99 79.7061 65.57C79.4761 65.14 79.1561 64.81 78.7461 64.58C78.3461 64.35 77.8911 64.235 77.3811 64.235C76.8711 64.235 76.4111 64.35 76.0011 64.58C75.6011 64.81 75.2811 65.14 75.0411 65.57C74.8111 65.99 74.6961 66.475 74.6961 67.025C74.6961 67.575 74.8111 68.065 75.0411 68.495C75.2811 68.915 75.6011 69.245 76.0011 69.485C76.4111 69.715 76.8711 69.83 77.3811 69.83ZM89.1504 66.875C90.1804 67.135 90.6954 67.78 90.6954 68.81C90.6954 69.51 90.4304 70.05 89.9004 70.43C89.3804 70.81 88.6004 71 87.5604 71H83.7354V63.05H87.4254C88.3654 63.05 89.1004 63.23 89.6304 63.59C90.1604 63.94 90.4254 64.44 90.4254 65.09C90.4254 65.51 90.3104 65.875 90.0804 66.185C89.8604 66.485 89.5504 66.715 89.1504 66.875ZM85.1454 66.47H87.3054C87.8554 66.47 88.2704 66.37 88.5504 66.17C88.8404 65.97 88.9854 65.68 88.9854 65.3C88.9854 64.54 88.4254 64.16 87.3054 64.16H85.1454V66.47ZM87.4554 69.89C88.0554 69.89 88.5054 69.795 88.8054 69.605C89.1054 69.415 89.2554 69.12 89.2554 68.72C89.2554 68.31 89.1154 68.005 88.8354 67.805C88.5654 67.605 88.1354 67.505 87.5454 67.505H85.1454V69.89H87.4554ZM95.9343 62.975C97.0343 62.975 97.8743 63.245 98.4543 63.785C99.0443 64.325 99.3393 65.13 99.3393 66.2V71H97.9743V69.95C97.7343 70.32 97.3893 70.605 96.9393 70.805C96.4993 70.995 95.9743 71.09 95.3643 71.09C94.4743 71.09 93.7593 70.875 93.2193 70.445C92.6893 70.015 92.4243 69.45 92.4243 68.75C92.4243 68.05 92.6793 67.49 93.1893 67.07C93.6993 66.64 94.5093 66.425 95.6193 66.425H97.8993V66.14C97.8993 65.52 97.7193 65.045 97.3593 64.715C96.9993 64.385 96.4693 64.22 95.7693 64.22C95.2993 64.22 94.8393 64.3 94.3893 64.46C93.9393 64.61 93.5593 64.815 93.2493 65.075L92.6493 63.995C93.0593 63.665 93.5493 63.415 94.1193 63.245C94.6893 63.065 95.2943 62.975 95.9343 62.975ZM95.6043 69.98C96.1543 69.98 96.6293 69.86 97.0293 69.62C97.4293 69.37 97.7193 69.02 97.8993 68.57V67.46H95.6793C94.4593 67.46 93.8493 67.87 93.8493 68.69C93.8493 69.09 94.0043 69.405 94.3143 69.635C94.6243 69.865 95.0543 69.98 95.6043 69.98ZM33.46 89.375H27.88L26.725 92H25.18L29.935 81.5H31.42L36.19 92H34.615L33.46 89.375ZM32.935 88.175L30.67 83.03L28.405 88.175H32.935ZM37.9122 84.05H39.3522V87.425H43.8822V84.05H45.3222V92H43.8822V88.67H39.3522V92H37.9122V84.05ZM48.2721 84.05H49.7121V87.425H54.2421V84.05H55.6821V92H54.2421V88.67H49.7121V92H48.2721V84.05ZM61.4671 83.975C62.5671 83.975 63.4071 84.245 63.9871 84.785C64.5771 85.325 64.8721 86.13 64.8721 87.2V92H63.5071V90.95C63.2671 91.32 62.9221 91.605 62.4721 91.805C62.0321 91.995 61.5071 92.09 60.8971 92.09C60.0071 92.09 59.2921 91.875 58.7521 91.445C58.2221 91.015 57.9571 90.45 57.9571 89.75C57.9571 89.05 58.2121 88.49 58.7221 88.07C59.2321 87.64 60.0421 87.425 61.1521 87.425H63.4321V87.14C63.4321 86.52 63.2521 86.045 62.8921 85.715C62.5321 85.385 62.0021 85.22 61.3021 85.22C60.8321 85.22 60.3721 85.3 59.9221 85.46C59.4721 85.61 59.0921 85.815 58.7821 86.075L58.1821 84.995C58.5921 84.665 59.0821 84.415 59.6521 84.245C60.2221 84.065 60.8271 83.975 61.4671 83.975ZM61.1371 90.98C61.6871 90.98 62.1621 90.86 62.5621 90.62C62.9621 90.37 63.2521 90.02 63.4321 89.57V88.46H61.2121C59.9921 88.46 59.3821 88.87 59.3821 89.69C59.3821 90.09 59.5371 90.405 59.8471 90.635C60.1571 90.865 60.5871 90.98 61.1371 90.98ZM78.8584 89.375H73.2784L72.1234 92H70.5784L75.3334 81.5H76.8184L81.5884 92H80.0134L78.8584 89.375ZM78.3334 88.175L76.0684 83.03L73.8034 88.175H78.3334ZM83.3106 84.05H84.7506V87.425H89.2806V84.05H90.7206V92H89.2806V88.67H84.7506V92H83.3106V84.05ZM101.756 90.74V93.845H100.406V92H93.7606V93.845H92.3956V90.74H92.8156C93.3256 90.71 93.6756 90.35 93.8656 89.66C94.0556 88.97 94.1856 87.995 94.2556 86.735L94.3756 84.05H100.541V90.74H101.756ZM95.5756 86.84C95.5356 87.84 95.4506 88.67 95.3206 89.33C95.2006 89.98 94.9756 90.45 94.6456 90.74H99.1006V85.31H95.6506L95.5756 86.84ZM107.997 83.975C108.767 83.975 109.457 84.145 110.067 84.485C110.677 84.825 111.152 85.3 111.492 85.91C111.842 86.52 112.017 87.225 112.017 88.025C112.017 88.825 111.842 89.535 111.492 90.155C111.152 90.765 110.677 91.24 110.067 91.58C109.457 91.92 108.767 92.09 107.997 92.09C107.427 92.09 106.902 91.98 106.422 91.76C105.952 91.54 105.552 91.22 105.222 90.8V94.91H103.782V84.05H105.162V85.31C105.482 84.87 105.887 84.54 106.377 84.32C106.867 84.09 107.407 83.975 107.997 83.975ZM107.877 90.83C108.387 90.83 108.842 90.715 109.242 90.485C109.652 90.245 109.972 89.915 110.202 89.495C110.442 89.065 110.562 88.575 110.562 88.025C110.562 87.475 110.442 86.99 110.202 86.57C109.972 86.14 109.652 85.81 109.242 85.58C108.842 85.35 108.387 85.235 107.877 85.235C107.377 85.235 106.922 85.355 106.512 85.595C106.112 85.825 105.792 86.15 105.552 86.57C105.322 86.99 105.207 87.475 105.207 88.025C105.207 88.575 105.322 89.065 105.552 89.495C105.782 89.915 106.102 90.245 106.512 90.485C106.922 90.715 107.377 90.83 107.877 90.83ZM121.444 88.07C121.444 88.18 121.434 88.325 121.414 88.505H114.964C115.054 89.205 115.359 89.77 115.879 90.2C116.409 90.62 117.064 90.83 117.844 90.83C118.794 90.83 119.559 90.51 120.139 89.87L120.934 90.8C120.574 91.22 120.124 91.54 119.584 91.76C119.054 91.98 118.459 92.09 117.799 92.09C116.959 92.09 116.214 91.92 115.564 91.58C114.914 91.23 114.409 90.745 114.049 90.125C113.699 89.505 113.524 88.805 113.524 88.025C113.524 87.255 113.694 86.56 114.034 85.94C114.384 85.32 114.859 84.84 115.459 84.5C116.069 84.15 116.754 83.975 117.514 83.975C118.274 83.975 118.949 84.15 119.539 84.5C120.139 84.84 120.604 85.32 120.934 85.94C121.274 86.56 121.444 87.27 121.444 88.07ZM117.514 85.19C116.824 85.19 116.244 85.4 115.774 85.82C115.314 86.24 115.044 86.79 114.964 87.47H120.064C119.984 86.8 119.709 86.255 119.239 85.835C118.779 85.405 118.204 85.19 117.514 85.19ZM131.013 88.07C131.013 88.18 131.003 88.325 130.983 88.505H124.533C124.623 89.205 124.928 89.77 125.448 90.2C125.978 90.62 126.633 90.83 127.413 90.83C128.363 90.83 129.128 90.51 129.708 89.87L130.503 90.8C130.143 91.22 129.693 91.54 129.153 91.76C128.623 91.98 128.028 92.09 127.368 92.09C126.528 92.09 125.783 91.92 125.133 91.58C124.483 91.23 123.978 90.745 123.618 90.125C123.268 89.505 123.093 88.805 123.093 88.025C123.093 87.255 123.263 86.56 123.603 85.94C123.953 85.32 124.428 84.84 125.028 84.5C125.638 84.15 126.323 83.975 127.083 83.975C127.843 83.975 128.518 84.15 129.108 84.5C129.708 84.84 130.173 85.32 130.503 85.94C130.843 86.56 131.013 87.27 131.013 88.07ZM127.083 85.19C126.393 85.19 125.813 85.4 125.343 85.82C124.883 86.24 124.613 86.79 124.533 87.47H129.633C129.553 86.8 129.278 86.255 128.808 85.835C128.348 85.405 127.773 85.19 127.083 85.19ZM138.812 87.875C139.842 88.135 140.357 88.78 140.357 89.81C140.357 90.51 140.092 91.05 139.562 91.43C139.042 91.81 138.262 92 137.222 92H133.397V84.05H137.087C138.027 84.05 138.762 84.23 139.292 84.59C139.822 84.94 140.087 85.44 140.087 86.09C140.087 86.51 139.972 86.875 139.742 87.185C139.522 87.485 139.212 87.715 138.812 87.875ZM134.807 87.47H136.967C137.517 87.47 137.932 87.37 138.212 87.17C138.502 86.97 138.647 86.68 138.647 86.3C138.647 85.54 138.087 85.16 136.967 85.16H134.807V87.47ZM137.117 90.89C137.717 90.89 138.167 90.795 138.467 90.605C138.767 90.415 138.917 90.12 138.917 89.72C138.917 89.31 138.777 89.005 138.497 88.805C138.227 88.605 137.797 88.505 137.207 88.505H134.807V90.89H137.117ZM142.76 84.05H144.2V87.425H148.73V84.05H150.17V92H148.73V88.67H144.2V92H142.76V84.05ZM155.955 83.975C157.055 83.975 157.895 84.245 158.475 84.785C159.065 85.325 159.36 86.13 159.36 87.2V92H157.995V90.95C157.755 91.32 157.41 91.605 156.96 91.805C156.52 91.995 155.995 92.09 155.385 92.09C154.495 92.09 153.78 91.875 153.24 91.445C152.71 91.015 152.445 90.45 152.445 89.75C152.445 89.05 152.7 88.49 153.21 88.07C153.72 87.64 154.53 87.425 155.64 87.425H157.92V87.14C157.92 86.52 157.74 86.045 157.38 85.715C157.02 85.385 156.49 85.22 155.79 85.22C155.32 85.22 154.86 85.3 154.41 85.46C153.96 85.61 153.58 85.815 153.27 86.075L152.67 84.995C153.08 84.665 153.57 84.415 154.14 84.245C154.71 84.065 155.315 83.975 155.955 83.975ZM155.625 90.98C156.175 90.98 156.65 90.86 157.05 90.62C157.45 90.37 157.74 90.02 157.92 89.57V88.46H155.7C154.48 88.46 153.87 88.87 153.87 89.69C153.87 90.09 154.025 90.405 154.335 90.635C154.645 90.865 155.075 90.98 155.625 90.98Z" fill="black"/>
<rect x="25" y="20" width="94" height="20" rx="10" fill="#DF3434"/>
<path d="M45.02 33.869V35H38.481V34.116L42.186 30.541C42.6367 30.1077 42.94 29.735 43.096 29.423C43.252 29.1023 43.33 28.7817 43.33 28.461C43.33 27.9843 43.161 27.616 42.823 27.356C42.4937 27.0873 42.017 26.953 41.393 26.953C40.3877 26.953 39.612 27.2823 39.066 27.941L38.182 27.174C38.5373 26.7407 39.001 26.4027 39.573 26.16C40.1537 25.9173 40.7993 25.796 41.51 25.796C42.4633 25.796 43.2217 26.0257 43.785 26.485C44.3483 26.9357 44.63 27.551 44.63 28.331C44.63 28.8163 44.526 29.2757 44.318 29.709C44.11 30.1423 43.7157 30.6363 43.135 31.191L40.353 33.869H45.02ZM52.6148 33.869V35H46.0758V34.116L49.7808 30.541C50.2315 30.1077 50.5348 29.735 50.6908 29.423C50.8468 29.1023 50.9248 28.7817 50.9248 28.461C50.9248 27.9843 50.7558 27.616 50.4178 27.356C50.0885 27.0873 49.6118 26.953 48.9878 26.953C47.9825 26.953 47.2068 27.2823 46.6608 27.941L45.7768 27.174C46.1322 26.7407 46.5958 26.4027 47.1678 26.16C47.7485 25.9173 48.3942 25.796 49.1048 25.796C50.0582 25.796 50.8165 26.0257 51.3798 26.485C51.9432 26.9357 52.2248 27.551 52.2248 28.331C52.2248 28.8163 52.1208 29.2757 51.9128 29.709C51.7048 30.1423 51.3105 30.6363 50.7298 31.191L47.9478 33.869H52.6148ZM54.7986 35.078C54.556 35.078 54.348 34.9957 54.1746 34.831C54.0013 34.6577 53.9146 34.441 53.9146 34.181C53.9146 33.9297 54.0013 33.7217 54.1746 33.557C54.348 33.3837 54.556 33.297 54.7986 33.297C55.0413 33.297 55.245 33.3793 55.4096 33.544C55.5743 33.7087 55.6566 33.921 55.6566 34.181C55.6566 34.441 55.57 34.6577 55.3966 34.831C55.232 34.9957 55.0326 35.078 54.7986 35.078ZM60.5816 35.104C59.8623 35.104 59.2209 34.922 58.6576 34.558C58.1029 34.1853 57.6653 33.648 57.3446 32.946C57.0239 32.244 56.8636 31.412 56.8636 30.45C56.8636 29.488 57.0239 28.656 57.3446 27.954C57.6653 27.252 58.1029 26.719 58.6576 26.355C59.2209 25.9823 59.8623 25.796 60.5816 25.796C61.2923 25.796 61.9249 25.9823 62.4796 26.355C63.0429 26.719 63.4849 27.252 63.8056 27.954C64.1263 28.656 64.2866 29.488 64.2866 30.45C64.2866 31.412 64.1263 32.244 63.8056 32.946C63.4849 33.648 63.0429 34.1853 62.4796 34.558C61.9249 34.922 61.2923 35.104 60.5816 35.104ZM60.5816 33.947C61.3096 33.947 61.8903 33.648 62.3236 33.05C62.7656 32.452 62.9866 31.5853 62.9866 30.45C62.9866 29.3147 62.7656 28.448 62.3236 27.85C61.8903 27.252 61.3096 26.953 60.5816 26.953C59.8449 26.953 59.2556 27.252 58.8136 27.85C58.3803 28.448 58.1636 29.3147 58.1636 30.45C58.1636 31.5853 58.3803 32.452 58.8136 33.05C59.2556 33.648 59.8449 33.947 60.5816 33.947ZM73.5815 32.764H71.8525V35H70.5915V32.764H65.5345V31.854L70.1885 25.9H71.5925L67.1335 31.646H70.6305V29.67H71.8525V31.646H73.5815V32.764ZM75.6027 35.078C75.36 35.078 75.152 34.9957 74.9787 34.831C74.8054 34.6577 74.7187 34.441 74.7187 34.181C74.7187 33.9297 74.8054 33.7217 74.9787 33.557C75.152 33.3837 75.36 33.297 75.6027 33.297C75.8454 33.297 76.049 33.3793 76.2137 33.544C76.3784 33.7087 76.4607 33.921 76.4607 34.181C76.4607 34.441 76.374 34.6577 76.2007 34.831C76.036 34.9957 75.8367 35.078 75.6027 35.078ZM84.343 33.869V35H77.804V34.116L81.509 30.541C81.9596 30.1077 82.263 29.735 82.419 29.423C82.575 29.1023 82.653 28.7817 82.653 28.461C82.653 27.9843 82.484 27.616 82.146 27.356C81.8166 27.0873 81.34 26.953 80.716 26.953C79.7106 26.953 78.935 27.2823 78.389 27.941L77.505 27.174C77.8603 26.7407 78.324 26.4027 78.896 26.16C79.4766 25.9173 80.1223 25.796 80.833 25.796C81.7863 25.796 82.5446 26.0257 83.108 26.485C83.6713 26.9357 83.953 27.551 83.953 28.331C83.953 28.8163 83.849 29.2757 83.641 29.709C83.433 30.1423 83.0386 30.6363 82.458 31.191L79.676 33.869H84.343ZM89.2217 35.104C88.5024 35.104 87.8611 34.922 87.2977 34.558C86.7431 34.1853 86.3054 33.648 85.9847 32.946C85.6641 32.244 85.5037 31.412 85.5037 30.45C85.5037 29.488 85.6641 28.656 85.9847 27.954C86.3054 27.252 86.7431 26.719 87.2977 26.355C87.8611 25.9823 88.5024 25.796 89.2217 25.796C89.9324 25.796 90.5651 25.9823 91.1197 26.355C91.6831 26.719 92.1251 27.252 92.4457 27.954C92.7664 28.656 92.9267 29.488 92.9267 30.45C92.9267 31.412 92.7664 32.244 92.4457 32.946C92.1251 33.648 91.6831 34.1853 91.1197 34.558C90.5651 34.922 89.9324 35.104 89.2217 35.104ZM89.2217 33.947C89.9497 33.947 90.5304 33.648 90.9637 33.05C91.4057 32.452 91.6267 31.5853 91.6267 30.45C91.6267 29.3147 91.4057 28.448 90.9637 27.85C90.5304 27.252 89.9497 26.953 89.2217 26.953C88.4851 26.953 87.8957 27.252 87.4537 27.85C87.0204 28.448 86.8037 29.3147 86.8037 30.45C86.8037 31.5853 87.0204 32.452 87.4537 33.05C87.8957 33.648 88.4851 33.947 89.2217 33.947ZM100.663 33.869V35H94.1235V34.116L97.8285 30.541C98.2792 30.1077 98.5825 29.735 98.7385 29.423C98.8945 29.1023 98.9725 28.7817 98.9725 28.461C98.9725 27.9843 98.8035 27.616 98.4655 27.356C98.1362 27.0873 97.6595 26.953 97.0355 26.953C96.0302 26.953 95.2545 27.2823 94.7085 27.941L93.8245 27.174C94.1799 26.7407 94.6435 26.4027 95.2155 26.16C95.7962 25.9173 96.4419 25.796 97.1525 25.796C98.1059 25.796 98.8642 26.0257 99.4275 26.485C99.9909 26.9357 100.273 27.551 100.273 28.331C100.273 28.8163 100.169 29.2757 99.9605 29.709C99.7525 30.1423 99.3582 30.6363 98.7775 31.191L95.9955 33.869H100.663ZM105.345 29.722C106.238 29.8087 106.918 30.086 107.386 30.554C107.854 31.0133 108.088 31.6027 108.088 32.322C108.088 32.842 107.958 33.3143 107.698 33.739C107.438 34.155 107.048 34.4887 106.528 34.74C106.017 34.9827 105.389 35.104 104.643 35.104C103.993 35.104 103.369 35.0087 102.771 34.818C102.173 34.6187 101.684 34.3457 101.302 33.999L101.9 32.972C102.212 33.2667 102.611 33.505 103.096 33.687C103.582 33.8603 104.097 33.947 104.643 33.947C105.319 33.947 105.844 33.804 106.216 33.518C106.598 33.232 106.788 32.8377 106.788 32.335C106.788 31.8323 106.602 31.4423 106.229 31.165C105.857 30.8877 105.293 30.749 104.539 30.749H103.811V29.839L106.099 27.031H101.718V25.9H107.724V26.784L105.345 29.722Z" fill="#DEF0DD"/>
</svg>
