<svg width="900" height="697" viewBox="0 0 900 697" fill="none" xmlns="http://www.w3.org/2000/svg">
<mask id="path-1-inside-1_108_92" fill="white">
<path d="M0 20C0 8.95429 8.95431 0 20 0H200C211.046 0 220 8.9543 220 20V30.3821H0V20Z"/>
</mask>
<path d="M-1 20C-1 8.40202 8.40202 -1 20 -1H200C211.598 -1 221 8.40202 221 20H219C219 9.50659 210.493 1 200 1H20C9.50659 1 1 9.50659 1 20H-1ZM220 30.3821H0H220ZM-1 30.3821V20C-1 8.40202 8.40202 -1 20 -1V1C9.50659 1 1 9.50659 1 20V30.3821H-1ZM200 -1C211.598 -1 221 8.40202 221 20V30.3821H219V20C219 9.50659 210.493 1 200 1V-1Z" fill="#365435" mask="url(#path-1-inside-1_108_92)"/>
<mask id="path-3-inside-2_108_92" fill="white">
<path d="M219 25.9141H432C443.046 25.9141 452 34.8684 452 45.9141V48.2538H239C227.954 48.2538 219 39.2995 219 28.2538V25.9141Z"/>
</mask>
<path d="M219 25.9141H452H219ZM452 49.2538H239C227.402 49.2538 218 39.8518 218 28.2538H220C220 38.7472 228.507 47.2538 239 47.2538H452V49.2538ZM239 49.2538C227.402 49.2538 218 39.8518 218 28.2538V25.9141H220V28.2538C220 38.7472 228.507 47.2538 239 47.2538V49.2538ZM452 25.9141V48.2538V25.9141Z" fill="#365435" mask="url(#path-3-inside-2_108_92)"/>
<line x1="0.5" y1="671.086" x2="0.500031" y2="30.3821" stroke="#365435"/>
<line x1="899.5" y1="677.341" x2="899.5" y2="68.8062" stroke="#365435"/>
<line x1="446" y1="47.7539" x2="870" y2="47.7539" stroke="#365435"/>
<mask id="path-8-inside-3_108_92" fill="white">
<path d="M680 47.3604H880C891.046 47.3604 900 56.3147 900 67.3604V109.912H680V47.3604Z"/>
</mask>
<path d="M680 46.3604H880C891.598 46.3604 901 55.7624 901 67.3604H899C899 56.8669 890.493 48.3604 880 48.3604H680V46.3604ZM900 109.912H680H900ZM680 109.912V47.3604V109.912ZM880 46.3604C891.598 46.3604 901 55.7624 901 67.3604V109.912H899V67.3604C899 56.8669 890.493 48.3604 880 48.3604V46.3604Z" fill="#365435" mask="url(#path-8-inside-3_108_92)"/>
<mask id="path-10-inside-4_108_92" fill="white">
<path d="M680 654.449C680 643.403 688.954 634.449 700 634.449H900V677C900 688.046 891.046 697 880 697H680V654.449Z"/>
</mask>
<path d="M680 634.449H900H680ZM901 677C901 688.598 891.598 698 880 698H680V696H880C890.493 696 899 687.493 899 677H901ZM680 697V634.449V697ZM901 634.449V677C901 688.598 891.598 698 880 698V696C890.493 696 899 687.493 899 677V634.449H901Z" fill="#365435" mask="url(#path-10-inside-4_108_92)"/>
<mask id="path-12-inside-5_108_92" fill="white">
<path d="M0 634.449H692V697H20C8.95432 697 0 688.046 0 677V634.449Z"/>
</mask>
<path d="M0 634.449H692H0ZM692 698H20C8.40202 698 -1 688.598 -1 677H1C1 687.493 9.50659 696 20 696H692V698ZM20 698C8.40202 698 -1 688.598 -1 677V634.449H1V677C1 687.493 9.50659 696 20 696V698ZM692 634.449V697V634.449Z" fill="#365435" mask="url(#path-12-inside-5_108_92)"/>
</svg>
