<svg width="250" height="117" viewBox="0 0 250 117" fill="none" xmlns="http://www.w3.org/2000/svg">
<rect width="250" height="117" rx="20" fill="#DEF0DD"/>
<path d="M33.85 61.805H30.25V71H28.78V61.805H25.195V60.5H33.85V61.805ZM42.18 63.05L38.325 71.795C37.985 72.605 37.585 73.175 37.125 73.505C36.675 73.835 36.13 74 35.49 74C35.1 74 34.72 73.935 34.35 73.805C33.99 73.685 33.69 73.505 33.45 73.265L34.065 72.185C34.475 72.575 34.95 72.77 35.49 72.77C35.84 72.77 36.13 72.675 36.36 72.485C36.6 72.305 36.815 71.99 37.005 71.54L37.26 70.985L33.75 63.05H35.25L38.025 69.41L40.77 63.05H42.18ZM48.0194 62.975C48.7894 62.975 49.4794 63.145 50.0894 63.485C50.6994 63.825 51.1744 64.3 51.5144 64.91C51.8644 65.52 52.0394 66.225 52.0394 67.025C52.0394 67.825 51.8644 68.535 51.5144 69.155C51.1744 69.765 50.6994 70.24 50.0894 70.58C49.4794 70.92 48.7894 71.09 48.0194 71.09C47.4494 71.09 46.9244 70.98 46.4444 70.76C45.9744 70.54 45.5744 70.22 45.2444 69.8V73.91H43.8044V63.05H45.1844V64.31C45.5044 63.87 45.9094 63.54 46.3994 63.32C46.8894 63.09 47.4294 62.975 48.0194 62.975ZM47.8994 69.83C48.4094 69.83 48.8644 69.715 49.2644 69.485C49.6744 69.245 49.9944 68.915 50.2244 68.495C50.4644 68.065 50.5844 67.575 50.5844 67.025C50.5844 66.475 50.4644 65.99 50.2244 65.57C49.9944 65.14 49.6744 64.81 49.2644 64.58C48.8644 64.35 48.4094 64.235 47.8994 64.235C47.3994 64.235 46.9444 64.355 46.5344 64.595C46.1344 64.825 45.8144 65.15 45.5744 65.57C45.3444 65.99 45.2294 66.475 45.2294 67.025C45.2294 67.575 45.3444 68.065 45.5744 68.495C45.8044 68.915 46.1244 69.245 46.5344 69.485C46.9444 69.715 47.3994 69.83 47.8994 69.83ZM60.1315 64.31H55.7215V71H54.2815V63.05H60.1315V64.31ZM68.5892 67.07C68.5892 67.18 68.5792 67.325 68.5592 67.505H62.1092C62.1992 68.205 62.5042 68.77 63.0242 69.2C63.5542 69.62 64.2092 69.83 64.9892 69.83C65.9392 69.83 66.7042 69.51 67.2842 68.87L68.0792 69.8C67.7192 70.22 67.2692 70.54 66.7292 70.76C66.1992 70.98 65.6042 71.09 64.9442 71.09C64.1042 71.09 63.3592 70.92 62.7092 70.58C62.0592 70.23 61.5542 69.745 61.1942 69.125C60.8442 68.505 60.6692 67.805 60.6692 67.025C60.6692 66.255 60.8392 65.56 61.1792 64.94C61.5292 64.32 62.0042 63.84 62.6042 63.5C63.2142 63.15 63.8992 62.975 64.6592 62.975C65.4192 62.975 66.0942 63.15 66.6842 63.5C67.2842 63.84 67.7492 64.32 68.0792 64.94C68.4192 65.56 68.5892 66.27 68.5892 67.07ZM64.6592 64.19C63.9692 64.19 63.3892 64.4 62.9192 64.82C62.4592 65.24 62.1892 65.79 62.1092 66.47H67.2092C67.1292 65.8 66.8542 65.255 66.3842 64.835C65.9242 64.405 65.3492 64.19 64.6592 64.19ZM70.9731 63.05H72.4131V66.425H76.9431V63.05H78.3831V71H76.9431V67.67H72.4131V71H70.9731V63.05ZM88.5181 67.07C88.5181 67.18 88.5081 67.325 88.4881 67.505H82.0381C82.1281 68.205 82.4331 68.77 82.9531 69.2C83.4831 69.62 84.1381 69.83 84.9181 69.83C85.8681 69.83 86.6331 69.51 87.2131 68.87L88.0081 69.8C87.6481 70.22 87.1981 70.54 86.6581 70.76C86.1281 70.98 85.5331 71.09 84.8731 71.09C84.0331 71.09 83.2881 70.92 82.6381 70.58C81.9881 70.23 81.4831 69.745 81.1231 69.125C80.7731 68.505 80.5981 67.805 80.5981 67.025C80.5981 66.255 80.7681 65.56 81.1081 64.94C81.4581 64.32 81.9331 63.84 82.5331 63.5C83.1431 63.15 83.8281 62.975 84.5881 62.975C85.3481 62.975 86.0231 63.15 86.6131 63.5C87.2131 63.84 87.6781 64.32 88.0081 64.94C88.3481 65.56 88.5181 66.27 88.5181 67.07ZM84.5881 64.19C83.8981 64.19 83.3181 64.4 82.8481 64.82C82.3881 65.24 82.1181 65.79 82.0381 66.47H87.1381C87.0581 65.8 86.7831 65.255 86.3131 64.835C85.8531 64.405 85.2781 64.19 84.5881 64.19ZM96.317 66.875C97.347 67.135 97.862 67.78 97.862 68.81C97.862 69.51 97.597 70.05 97.067 70.43C96.547 70.81 95.767 71 94.727 71H90.902V63.05H94.592C95.532 63.05 96.267 63.23 96.797 63.59C97.327 63.94 97.592 64.44 97.592 65.09C97.592 65.51 97.477 65.875 97.247 66.185C97.027 66.485 96.717 66.715 96.317 66.875ZM92.312 66.47H94.472C95.022 66.47 95.437 66.37 95.717 66.17C96.007 65.97 96.152 65.68 96.152 65.3C96.152 64.54 95.592 64.16 94.472 64.16H92.312V66.47ZM94.622 69.89C95.222 69.89 95.672 69.795 95.972 69.605C96.272 69.415 96.422 69.12 96.422 68.72C96.422 68.31 96.282 68.005 96.002 67.805C95.732 67.605 95.302 67.505 94.712 67.505H92.312V69.89H94.622ZM26.635 81.5H28.12V89.6L34.33 81.5H35.71V92H34.24V83.915L28.015 92H26.635V81.5ZM44.3086 87.875C45.3386 88.135 45.8536 88.78 45.8536 89.81C45.8536 90.51 45.5886 91.05 45.0586 91.43C44.5386 91.81 43.7586 92 42.7186 92H38.8936V84.05H42.5836C43.5236 84.05 44.2586 84.23 44.7886 84.59C45.3186 84.94 45.5836 85.44 45.5836 86.09C45.5836 86.51 45.4686 86.875 45.2386 87.185C45.0186 87.485 44.7086 87.715 44.3086 87.875ZM40.3036 87.47H42.4636C43.0136 87.47 43.4286 87.37 43.7086 87.17C43.9986 86.97 44.1436 86.68 44.1436 86.3C44.1436 85.54 43.5836 85.16 42.4636 85.16H40.3036V87.47ZM42.6136 90.89C43.2136 90.89 43.6636 90.795 43.9636 90.605C44.2636 90.415 44.4136 90.12 44.4136 89.72C44.4136 89.31 44.2736 89.005 43.9936 88.805C43.7236 88.605 43.2936 88.505 42.7036 88.505H40.3036V90.89H42.6136ZM51.0925 83.975C52.1925 83.975 53.0325 84.245 53.6125 84.785C54.2025 85.325 54.4975 86.13 54.4975 87.2V92H53.1325V90.95C52.8925 91.32 52.5475 91.605 52.0975 91.805C51.6575 91.995 51.1325 92.09 50.5225 92.09C49.6325 92.09 48.9175 91.875 48.3775 91.445C47.8475 91.015 47.5825 90.45 47.5825 89.75C47.5825 89.05 47.8375 88.49 48.3475 88.07C48.8575 87.64 49.6675 87.425 50.7775 87.425H53.0575V87.14C53.0575 86.52 52.8775 86.045 52.5175 85.715C52.1575 85.385 51.6275 85.22 50.9275 85.22C50.4575 85.22 49.9975 85.3 49.5475 85.46C49.0975 85.61 48.7175 85.815 48.4075 86.075L47.8075 84.995C48.2175 84.665 48.7075 84.415 49.2775 84.245C49.8475 84.065 50.4525 83.975 51.0925 83.975ZM50.7625 90.98C51.3125 90.98 51.7875 90.86 52.1875 90.62C52.5875 90.37 52.8775 90.02 53.0575 89.57V88.46H50.8375C49.6175 88.46 49.0075 88.87 49.0075 89.69C49.0075 90.09 49.1625 90.405 49.4725 90.635C49.7825 90.865 50.2125 90.98 50.7625 90.98ZM57.2405 84.05H58.6805V87.425H63.2105V84.05H64.6505V92H63.2105V88.67H58.6805V92H57.2405V84.05ZM76.7138 92.12C75.6638 92.12 74.7138 91.89 73.8638 91.43C73.0238 90.96 72.3638 90.32 71.8838 89.51C71.4038 88.69 71.1638 87.77 71.1638 86.75C71.1638 85.73 71.4038 84.815 71.8838 84.005C72.3638 83.185 73.0288 82.545 73.8788 82.085C74.7288 81.615 75.6788 81.38 76.7288 81.38C77.5488 81.38 78.2988 81.52 78.9788 81.8C79.6588 82.07 80.2388 82.475 80.7188 83.015L79.7438 83.96C78.9538 83.13 77.9688 82.715 76.7888 82.715C76.0088 82.715 75.3038 82.89 74.6738 83.24C74.0438 83.59 73.5488 84.075 73.1888 84.695C72.8388 85.305 72.6638 85.99 72.6638 86.75C72.6638 87.51 72.8388 88.2 73.1888 88.82C73.5488 89.43 74.0438 89.91 74.6738 90.26C75.3038 90.61 76.0088 90.785 76.7888 90.785C77.9588 90.785 78.9438 90.365 79.7438 89.525L80.7188 90.47C80.2388 91.01 79.6538 91.42 78.9638 91.7C78.2838 91.98 77.5338 92.12 76.7138 92.12ZM89.5435 88.07C89.5435 88.18 89.5335 88.325 89.5135 88.505H83.0635C83.1535 89.205 83.4585 89.77 83.9785 90.2C84.5085 90.62 85.1635 90.83 85.9435 90.83C86.8935 90.83 87.6585 90.51 88.2385 89.87L89.0335 90.8C88.6735 91.22 88.2235 91.54 87.6835 91.76C87.1535 91.98 86.5585 92.09 85.8985 92.09C85.0585 92.09 84.3135 91.92 83.6635 91.58C83.0135 91.23 82.5085 90.745 82.1485 90.125C81.7985 89.505 81.6235 88.805 81.6235 88.025C81.6235 87.255 81.7935 86.56 82.1335 85.94C82.4835 85.32 82.9585 84.84 83.5585 84.5C84.1685 84.15 84.8535 83.975 85.6135 83.975C86.3735 83.975 87.0485 84.15 87.6385 84.5C88.2385 84.84 88.7035 85.32 89.0335 85.94C89.3735 86.56 89.5435 87.27 89.5435 88.07ZM85.6135 85.19C84.9235 85.19 84.3435 85.4 83.8735 85.82C83.4135 86.24 83.1435 86.79 83.0635 87.47H88.1635C88.0835 86.8 87.8085 86.255 87.3385 85.835C86.8785 85.405 86.3035 85.19 85.6135 85.19ZM96.1424 83.975C96.9124 83.975 97.6024 84.145 98.2124 84.485C98.8224 84.825 99.2974 85.3 99.6374 85.91C99.9874 86.52 100.162 87.225 100.162 88.025C100.162 88.825 99.9874 89.535 99.6374 90.155C99.2974 90.765 98.8224 91.24 98.2124 91.58C97.6024 91.92 96.9124 92.09 96.1424 92.09C95.5724 92.09 95.0474 91.98 94.5674 91.76C94.0974 91.54 93.6974 91.22 93.3674 90.8V94.91H91.9274V84.05H93.3074V85.31C93.6274 84.87 94.0324 84.54 94.5224 84.32C95.0124 84.09 95.5524 83.975 96.1424 83.975ZM96.0224 90.83C96.5324 90.83 96.9874 90.715 97.3874 90.485C97.7974 90.245 98.1174 89.915 98.3474 89.495C98.5874 89.065 98.7074 88.575 98.7074 88.025C98.7074 87.475 98.5874 86.99 98.3474 86.57C98.1174 86.14 97.7974 85.81 97.3874 85.58C96.9874 85.35 96.5324 85.235 96.0224 85.235C95.5224 85.235 95.0674 85.355 94.6574 85.595C94.2574 85.825 93.9374 86.15 93.6974 86.57C93.4674 86.99 93.3524 87.475 93.3524 88.025C93.3524 88.575 93.4674 89.065 93.6974 89.495C93.9274 89.915 94.2474 90.245 94.6574 90.485C95.0674 90.715 95.5224 90.83 96.0224 90.83ZM108.255 85.31H103.845V92H102.405V84.05H108.255V85.31ZM116.712 88.07C116.712 88.18 116.702 88.325 116.682 88.505H110.232C110.322 89.205 110.627 89.77 111.147 90.2C111.677 90.62 112.332 90.83 113.112 90.83C114.062 90.83 114.827 90.51 115.407 89.87L116.202 90.8C115.842 91.22 115.392 91.54 114.852 91.76C114.322 91.98 113.727 92.09 113.067 92.09C112.227 92.09 111.482 91.92 110.832 91.58C110.182 91.23 109.677 90.745 109.317 90.125C108.967 89.505 108.792 88.805 108.792 88.025C108.792 87.255 108.962 86.56 109.302 85.94C109.652 85.32 110.127 84.84 110.727 84.5C111.337 84.15 112.022 83.975 112.782 83.975C113.542 83.975 114.217 84.15 114.807 84.5C115.407 84.84 115.872 85.32 116.202 85.94C116.542 86.56 116.712 87.27 116.712 88.07ZM112.782 85.19C112.092 85.19 111.512 85.4 111.042 85.82C110.582 86.24 110.312 86.79 110.232 87.47H115.332C115.252 86.8 114.977 86.255 114.507 85.835C114.047 85.405 113.472 85.19 112.782 85.19ZM126.281 88.07C126.281 88.18 126.271 88.325 126.251 88.505H119.801C119.891 89.205 120.196 89.77 120.716 90.2C121.246 90.62 121.901 90.83 122.681 90.83C123.631 90.83 124.396 90.51 124.976 89.87L125.771 90.8C125.411 91.22 124.961 91.54 124.421 91.76C123.891 91.98 123.296 92.09 122.636 92.09C121.796 92.09 121.051 91.92 120.401 91.58C119.751 91.23 119.246 90.745 118.886 90.125C118.536 89.505 118.361 88.805 118.361 88.025C118.361 87.255 118.531 86.56 118.871 85.94C119.221 85.32 119.696 84.84 120.296 84.5C120.906 84.15 121.591 83.975 122.351 83.975C123.111 83.975 123.786 84.15 124.376 84.5C124.976 84.84 125.441 85.32 125.771 85.94C126.111 86.56 126.281 87.27 126.281 88.07ZM122.351 85.19C121.661 85.19 121.081 85.4 120.611 85.82C120.151 86.24 119.881 86.79 119.801 87.47H124.901C124.821 86.8 124.546 86.255 124.076 85.835C123.616 85.405 123.041 85.19 122.351 85.19ZM135.85 88.07C135.85 88.18 135.84 88.325 135.82 88.505H129.37C129.46 89.205 129.765 89.77 130.285 90.2C130.815 90.62 131.47 90.83 132.25 90.83C133.2 90.83 133.965 90.51 134.545 89.87L135.34 90.8C134.98 91.22 134.53 91.54 133.99 91.76C133.46 91.98 132.865 92.09 132.205 92.09C131.365 92.09 130.62 91.92 129.97 91.58C129.32 91.23 128.815 90.745 128.455 90.125C128.105 89.505 127.93 88.805 127.93 88.025C127.93 87.255 128.1 86.56 128.44 85.94C128.79 85.32 129.265 84.84 129.865 84.5C130.475 84.15 131.16 83.975 131.92 83.975C132.68 83.975 133.355 84.15 133.945 84.5C134.545 84.84 135.01 85.32 135.34 85.94C135.68 86.56 135.85 87.27 135.85 88.07ZM131.92 85.19C131.23 85.19 130.65 85.4 130.18 85.82C129.72 86.24 129.45 86.79 129.37 87.47H134.47C134.39 86.8 134.115 86.255 133.645 85.835C133.185 85.405 132.61 85.19 131.92 85.19ZM143.649 87.875C144.679 88.135 145.194 88.78 145.194 89.81C145.194 90.51 144.929 91.05 144.399 91.43C143.879 91.81 143.099 92 142.059 92H138.234V84.05H141.924C142.864 84.05 143.599 84.23 144.129 84.59C144.659 84.94 144.924 85.44 144.924 86.09C144.924 86.51 144.809 86.875 144.579 87.185C144.359 87.485 144.049 87.715 143.649 87.875ZM139.644 87.47H141.804C142.354 87.47 142.769 87.37 143.049 87.17C143.339 86.97 143.484 86.68 143.484 86.3C143.484 85.54 142.924 85.16 141.804 85.16H139.644V87.47ZM141.954 90.89C142.554 90.89 143.004 90.795 143.304 90.605C143.604 90.415 143.754 90.12 143.754 89.72C143.754 89.31 143.614 89.005 143.334 88.805C143.064 88.605 142.634 88.505 142.044 88.505H139.644V90.89H141.954ZM147.598 84.05H149.038V89.84L153.913 84.05H155.218V92H153.778V86.21L148.918 92H147.598V84.05ZM164.508 84.05V92H163.068V88.79C162.208 89.19 161.353 89.39 160.503 89.39C159.513 89.39 158.748 89.16 158.208 88.7C157.668 88.24 157.398 87.55 157.398 86.63V84.05H158.838V86.54C158.838 87.09 159.008 87.505 159.348 87.785C159.698 88.065 160.183 88.205 160.803 88.205C161.503 88.205 162.258 88.03 163.068 87.68V84.05H164.508Z" fill="black"/>
<rect x="25" y="20" width="94" height="20" rx="10" fill="#DF3434"/>
<path d="M45.02 33.869V35H38.481V34.116L42.186 30.541C42.6367 30.1077 42.94 29.735 43.096 29.423C43.252 29.1023 43.33 28.7817 43.33 28.461C43.33 27.9843 43.161 27.616 42.823 27.356C42.4937 27.0873 42.017 26.953 41.393 26.953C40.3877 26.953 39.612 27.2823 39.066 27.941L38.182 27.174C38.5373 26.7407 39.001 26.4027 39.573 26.16C40.1537 25.9173 40.7993 25.796 41.51 25.796C42.4633 25.796 43.2217 26.0257 43.785 26.485C44.3483 26.9357 44.63 27.551 44.63 28.331C44.63 28.8163 44.526 29.2757 44.318 29.709C44.11 30.1423 43.7157 30.6363 43.135 31.191L40.353 33.869H45.02ZM52.6148 33.869V35H46.0758V34.116L49.7808 30.541C50.2315 30.1077 50.5348 29.735 50.6908 29.423C50.8468 29.1023 50.9248 28.7817 50.9248 28.461C50.9248 27.9843 50.7558 27.616 50.4178 27.356C50.0885 27.0873 49.6118 26.953 48.9878 26.953C47.9825 26.953 47.2068 27.2823 46.6608 27.941L45.7768 27.174C46.1322 26.7407 46.5958 26.4027 47.1678 26.16C47.7485 25.9173 48.3942 25.796 49.1048 25.796C50.0582 25.796 50.8165 26.0257 51.3798 26.485C51.9432 26.9357 52.2248 27.551 52.2248 28.331C52.2248 28.8163 52.1208 29.2757 51.9128 29.709C51.7048 30.1423 51.3105 30.6363 50.7298 31.191L47.9478 33.869H52.6148ZM54.7986 35.078C54.556 35.078 54.348 34.9957 54.1746 34.831C54.0013 34.6577 53.9146 34.441 53.9146 34.181C53.9146 33.9297 54.0013 33.7217 54.1746 33.557C54.348 33.3837 54.556 33.297 54.7986 33.297C55.0413 33.297 55.245 33.3793 55.4096 33.544C55.5743 33.7087 55.6566 33.921 55.6566 34.181C55.6566 34.441 55.57 34.6577 55.3966 34.831C55.232 34.9957 55.0326 35.078 54.7986 35.078ZM60.5816 35.104C59.8623 35.104 59.2209 34.922 58.6576 34.558C58.1029 34.1853 57.6653 33.648 57.3446 32.946C57.0239 32.244 56.8636 31.412 56.8636 30.45C56.8636 29.488 57.0239 28.656 57.3446 27.954C57.6653 27.252 58.1029 26.719 58.6576 26.355C59.2209 25.9823 59.8623 25.796 60.5816 25.796C61.2923 25.796 61.9249 25.9823 62.4796 26.355C63.0429 26.719 63.4849 27.252 63.8056 27.954C64.1263 28.656 64.2866 29.488 64.2866 30.45C64.2866 31.412 64.1263 32.244 63.8056 32.946C63.4849 33.648 63.0429 34.1853 62.4796 34.558C61.9249 34.922 61.2923 35.104 60.5816 35.104ZM60.5816 33.947C61.3096 33.947 61.8903 33.648 62.3236 33.05C62.7656 32.452 62.9866 31.5853 62.9866 30.45C62.9866 29.3147 62.7656 28.448 62.3236 27.85C61.8903 27.252 61.3096 26.953 60.5816 26.953C59.8449 26.953 59.2556 27.252 58.8136 27.85C58.3803 28.448 58.1636 29.3147 58.1636 30.45C58.1636 31.5853 58.3803 32.452 58.8136 33.05C59.2556 33.648 59.8449 33.947 60.5816 33.947ZM73.5815 32.764H71.8525V35H70.5915V32.764H65.5345V31.854L70.1885 25.9H71.5925L67.1335 31.646H70.6305V29.67H71.8525V31.646H73.5815V32.764ZM75.6027 35.078C75.36 35.078 75.152 34.9957 74.9787 34.831C74.8054 34.6577 74.7187 34.441 74.7187 34.181C74.7187 33.9297 74.8054 33.7217 74.9787 33.557C75.152 33.3837 75.36 33.297 75.6027 33.297C75.8454 33.297 76.049 33.3793 76.2137 33.544C76.3784 33.7087 76.4607 33.921 76.4607 34.181C76.4607 34.441 76.374 34.6577 76.2007 34.831C76.036 34.9957 75.8367 35.078 75.6027 35.078ZM84.343 33.869V35H77.804V34.116L81.509 30.541C81.9596 30.1077 82.263 29.735 82.419 29.423C82.575 29.1023 82.653 28.7817 82.653 28.461C82.653 27.9843 82.484 27.616 82.146 27.356C81.8166 27.0873 81.34 26.953 80.716 26.953C79.7106 26.953 78.935 27.2823 78.389 27.941L77.505 27.174C77.8603 26.7407 78.324 26.4027 78.896 26.16C79.4766 25.9173 80.1223 25.796 80.833 25.796C81.7863 25.796 82.5446 26.0257 83.108 26.485C83.6713 26.9357 83.953 27.551 83.953 28.331C83.953 28.8163 83.849 29.2757 83.641 29.709C83.433 30.1423 83.0386 30.6363 82.458 31.191L79.676 33.869H84.343ZM89.2217 35.104C88.5024 35.104 87.8611 34.922 87.2977 34.558C86.7431 34.1853 86.3054 33.648 85.9847 32.946C85.6641 32.244 85.5037 31.412 85.5037 30.45C85.5037 29.488 85.6641 28.656 85.9847 27.954C86.3054 27.252 86.7431 26.719 87.2977 26.355C87.8611 25.9823 88.5024 25.796 89.2217 25.796C89.9324 25.796 90.5651 25.9823 91.1197 26.355C91.6831 26.719 92.1251 27.252 92.4457 27.954C92.7664 28.656 92.9267 29.488 92.9267 30.45C92.9267 31.412 92.7664 32.244 92.4457 32.946C92.1251 33.648 91.6831 34.1853 91.1197 34.558C90.5651 34.922 89.9324 35.104 89.2217 35.104ZM89.2217 33.947C89.9497 33.947 90.5304 33.648 90.9637 33.05C91.4057 32.452 91.6267 31.5853 91.6267 30.45C91.6267 29.3147 91.4057 28.448 90.9637 27.85C90.5304 27.252 89.9497 26.953 89.2217 26.953C88.4851 26.953 87.8957 27.252 87.4537 27.85C87.0204 28.448 86.8037 29.3147 86.8037 30.45C86.8037 31.5853 87.0204 32.452 87.4537 33.05C87.8957 33.648 88.4851 33.947 89.2217 33.947ZM100.663 33.869V35H94.1235V34.116L97.8285 30.541C98.2792 30.1077 98.5825 29.735 98.7385 29.423C98.8945 29.1023 98.9725 28.7817 98.9725 28.461C98.9725 27.9843 98.8035 27.616 98.4655 27.356C98.1362 27.0873 97.6595 26.953 97.0355 26.953C96.0302 26.953 95.2545 27.2823 94.7085 27.941L93.8245 27.174C94.1799 26.7407 94.6435 26.4027 95.2155 26.16C95.7962 25.9173 96.4419 25.796 97.1525 25.796C98.1059 25.796 98.8642 26.0257 99.4275 26.485C99.9909 26.9357 100.273 27.551 100.273 28.331C100.273 28.8163 100.169 29.2757 99.9605 29.709C99.7525 30.1423 99.3582 30.6363 98.7775 31.191L95.9955 33.869H100.663ZM105.345 29.722C106.238 29.8087 106.918 30.086 107.386 30.554C107.854 31.0133 108.088 31.6027 108.088 32.322C108.088 32.842 107.958 33.3143 107.698 33.739C107.438 34.155 107.048 34.4887 106.528 34.74C106.017 34.9827 105.389 35.104 104.643 35.104C103.993 35.104 103.369 35.0087 102.771 34.818C102.173 34.6187 101.684 34.3457 101.302 33.999L101.9 32.972C102.212 33.2667 102.611 33.505 103.096 33.687C103.582 33.8603 104.097 33.947 104.643 33.947C105.319 33.947 105.844 33.804 106.216 33.518C106.598 33.232 106.788 32.8377 106.788 32.335C106.788 31.8323 106.602 31.4423 106.229 31.165C105.857 30.8877 105.293 30.749 104.539 30.749H103.811V29.839L106.099 27.031H101.718V25.9H107.724V26.784L105.345 29.722Z" fill="#DEF0DD"/>
</svg>
