<svg width="250" height="117" viewBox="0 0 250 117" fill="none" xmlns="http://www.w3.org/2000/svg">
<rect width="250" height="117" rx="20" fill="#DEF0DD"/>
<path d="M34.405 60.5V71H32.92V66.845C31.81 67.275 30.785 67.49 29.845 67.49C28.565 67.49 27.57 67.18 26.86 66.56C26.16 65.94 25.81 65.055 25.81 63.905V60.5H27.28V63.74C27.28 64.52 27.515 65.12 27.985 65.54C28.465 65.96 29.14 66.17 30.01 66.17C30.98 66.17 31.95 65.95 32.92 65.51V60.5H34.405ZM44.7749 67.07C44.7749 67.18 44.7649 67.325 44.7449 67.505H38.2949C38.3849 68.205 38.6899 68.77 39.2099 69.2C39.7399 69.62 40.3949 69.83 41.1749 69.83C42.1249 69.83 42.8899 69.51 43.4699 68.87L44.2649 69.8C43.9049 70.22 43.4549 70.54 42.9149 70.76C42.3849 70.98 41.7899 71.09 41.1299 71.09C40.2899 71.09 39.5449 70.92 38.8949 70.58C38.2449 70.23 37.7399 69.745 37.3799 69.125C37.0299 68.505 36.8549 67.805 36.8549 67.025C36.8549 66.255 37.0249 65.56 37.3649 64.94C37.7149 64.32 38.1899 63.84 38.7899 63.5C39.3999 63.15 40.0849 62.975 40.8449 62.975C41.6049 62.975 42.2799 63.15 42.8699 63.5C43.4699 63.84 43.9349 64.32 44.2649 64.94C44.6049 65.56 44.7749 66.27 44.7749 67.07ZM40.8449 64.19C40.1549 64.19 39.5749 64.4 39.1049 64.82C38.6449 65.24 38.3749 65.79 38.2949 66.47H43.3949C43.3149 65.8 43.0399 65.255 42.5699 64.835C42.1099 64.405 41.5349 64.19 40.8449 64.19ZM51.9041 71L49.6091 67.955L47.2841 71H45.6791L48.8141 66.935L45.8291 63.05H47.4341L49.6241 65.915L51.7991 63.05H53.3741L50.3741 66.935L53.5391 71H51.9041ZM58.3457 71.09C57.5557 71.09 56.8457 70.915 56.2157 70.565C55.5857 70.215 55.0907 69.735 54.7307 69.125C54.3807 68.505 54.2057 67.805 54.2057 67.025C54.2057 66.245 54.3807 65.55 54.7307 64.94C55.0907 64.32 55.5857 63.84 56.2157 63.5C56.8457 63.15 57.5557 62.975 58.3457 62.975C59.1357 62.975 59.8407 63.15 60.4607 63.5C61.0907 63.84 61.5807 64.32 61.9307 64.94C62.2907 65.55 62.4707 66.245 62.4707 67.025C62.4707 67.805 62.2907 68.505 61.9307 69.125C61.5807 69.735 61.0907 70.215 60.4607 70.565C59.8407 70.915 59.1357 71.09 58.3457 71.09ZM58.3457 69.83C58.8557 69.83 59.3107 69.715 59.7107 69.485C60.1207 69.245 60.4407 68.915 60.6707 68.495C60.9007 68.065 61.0157 67.575 61.0157 67.025C61.0157 66.475 60.9007 65.99 60.6707 65.57C60.4407 65.14 60.1207 64.81 59.7107 64.58C59.3107 64.35 58.8557 64.235 58.3457 64.235C57.8357 64.235 57.3757 64.35 56.9657 64.58C56.5657 64.81 56.2457 65.14 56.0057 65.57C55.7757 65.99 55.6607 66.475 55.6607 67.025C55.6607 67.575 55.7757 68.065 56.0057 68.495C56.2457 68.915 56.5657 69.245 56.9657 69.485C57.3757 69.715 57.8357 69.83 58.3457 69.83ZM70.1151 66.875C71.1451 67.135 71.6601 67.78 71.6601 68.81C71.6601 69.51 71.3951 70.05 70.8651 70.43C70.3451 70.81 69.5651 71 68.5251 71H64.7001V63.05H68.3901C69.3301 63.05 70.0651 63.23 70.5951 63.59C71.1251 63.94 71.3901 64.44 71.3901 65.09C71.3901 65.51 71.2751 65.875 71.0451 66.185C70.8251 66.485 70.5151 66.715 70.1151 66.875ZM66.1101 66.47H68.2701C68.8201 66.47 69.2351 66.37 69.5151 66.17C69.8051 65.97 69.9501 65.68 69.9501 65.3C69.9501 64.54 69.3901 64.16 68.2701 64.16H66.1101V66.47ZM68.4201 69.89C69.0201 69.89 69.4701 69.795 69.7701 69.605C70.0701 69.415 70.2201 69.12 70.2201 68.72C70.2201 68.31 70.0801 68.005 69.8001 67.805C69.5301 67.605 69.1001 67.505 68.5101 67.505H66.1101V69.89H68.4201ZM33.46 89.375H27.88L26.725 92H25.18L29.935 81.5H31.42L36.19 92H34.615L33.46 89.375ZM32.935 88.175L30.67 83.03L28.405 88.175H32.935ZM37.9122 84.05H39.3522V87.425H43.8822V84.05H45.3222V92H43.8822V88.67H39.3522V92H37.9122V84.05ZM54.1971 85.31H51.2871V92H49.8471V85.31H46.9371V84.05H54.1971V85.31ZM58.873 92.09C58.083 92.09 57.373 91.915 56.743 91.565C56.113 91.215 55.618 90.735 55.258 90.125C54.908 89.505 54.733 88.805 54.733 88.025C54.733 87.245 54.908 86.55 55.258 85.94C55.618 85.32 56.113 84.84 56.743 84.5C57.373 84.15 58.083 83.975 58.873 83.975C59.663 83.975 60.368 84.15 60.988 84.5C61.618 84.84 62.108 85.32 62.458 85.94C62.818 86.55 62.998 87.245 62.998 88.025C62.998 88.805 62.818 89.505 62.458 90.125C62.108 90.735 61.618 91.215 60.988 91.565C60.368 91.915 59.663 92.09 58.873 92.09ZM58.873 90.83C59.383 90.83 59.838 90.715 60.238 90.485C60.648 90.245 60.968 89.915 61.198 89.495C61.428 89.065 61.543 88.575 61.543 88.025C61.543 87.475 61.428 86.99 61.198 86.57C60.968 86.14 60.648 85.81 60.238 85.58C59.838 85.35 59.383 85.235 58.873 85.235C58.363 85.235 57.903 85.35 57.493 85.58C57.093 85.81 56.773 86.14 56.533 86.57C56.303 86.99 56.188 87.475 56.188 88.025C56.188 88.575 56.303 89.065 56.533 89.495C56.773 89.915 57.093 90.245 57.493 90.485C57.903 90.715 58.363 90.83 58.873 90.83ZM65.2274 84.05H66.6674V87.425H71.1974V84.05H72.6374V92H71.1974V88.67H66.6674V92H65.2274V84.05ZM89.0507 81.5V92H87.5807V82.805H81.4907V92H80.0057V81.5H89.0507ZM95.07 83.975C96.17 83.975 97.01 84.245 97.59 84.785C98.18 85.325 98.475 86.13 98.475 87.2V92H97.11V90.95C96.87 91.32 96.525 91.605 96.075 91.805C95.635 91.995 95.11 92.09 94.5 92.09C93.61 92.09 92.895 91.875 92.355 91.445C91.825 91.015 91.56 90.45 91.56 89.75C91.56 89.05 91.815 88.49 92.325 88.07C92.835 87.64 93.645 87.425 94.755 87.425H97.035V87.14C97.035 86.52 96.855 86.045 96.495 85.715C96.135 85.385 95.605 85.22 94.905 85.22C94.435 85.22 93.975 85.3 93.525 85.46C93.075 85.61 92.695 85.815 92.385 86.075L91.785 84.995C92.195 84.665 92.685 84.415 93.255 84.245C93.825 84.065 94.43 83.975 95.07 83.975ZM94.74 90.98C95.29 90.98 95.765 90.86 96.165 90.62C96.565 90.37 96.855 90.02 97.035 89.57V88.46H94.815C93.595 88.46 92.985 88.87 92.985 89.69C92.985 90.09 93.14 90.405 93.45 90.635C93.76 90.865 94.19 90.98 94.74 90.98ZM106.633 87.875C107.663 88.135 108.178 88.78 108.178 89.81C108.178 90.51 107.913 91.05 107.383 91.43C106.863 91.81 106.083 92 105.043 92H101.218V84.05H104.908C105.848 84.05 106.583 84.23 107.113 84.59C107.643 84.94 107.908 85.44 107.908 86.09C107.908 86.51 107.793 86.875 107.563 87.185C107.343 87.485 107.033 87.715 106.633 87.875ZM102.628 87.47H104.788C105.338 87.47 105.753 87.37 106.033 87.17C106.323 86.97 106.468 86.68 106.468 86.3C106.468 85.54 105.908 85.16 104.788 85.16H102.628V87.47ZM104.938 90.89C105.538 90.89 105.988 90.795 106.288 90.605C106.588 90.415 106.738 90.12 106.738 89.72C106.738 89.31 106.598 89.005 106.318 88.805C106.048 88.605 105.618 88.505 105.028 88.505H102.628V90.89H104.938ZM117.407 84.05V92H115.967V85.31H112.547L112.457 87.08C112.407 88.15 112.312 89.045 112.172 89.765C112.032 90.475 111.802 91.045 111.482 91.475C111.162 91.905 110.717 92.12 110.147 92.12C109.887 92.12 109.592 92.075 109.262 91.985L109.352 90.77C109.482 90.8 109.602 90.815 109.712 90.815C110.112 90.815 110.412 90.64 110.612 90.29C110.812 89.94 110.942 89.525 111.002 89.045C111.062 88.565 111.117 87.88 111.167 86.99L111.302 84.05H117.407ZM123.746 92.09C122.956 92.09 122.246 91.915 121.616 91.565C120.986 91.215 120.491 90.735 120.131 90.125C119.781 89.505 119.606 88.805 119.606 88.025C119.606 87.245 119.781 86.55 120.131 85.94C120.491 85.32 120.986 84.84 121.616 84.5C122.246 84.15 122.956 83.975 123.746 83.975C124.536 83.975 125.241 84.15 125.861 84.5C126.491 84.84 126.981 85.32 127.331 85.94C127.691 86.55 127.871 87.245 127.871 88.025C127.871 88.805 127.691 89.505 127.331 90.125C126.981 90.735 126.491 91.215 125.861 91.565C125.241 91.915 124.536 92.09 123.746 92.09ZM123.746 90.83C124.256 90.83 124.711 90.715 125.111 90.485C125.521 90.245 125.841 89.915 126.071 89.495C126.301 89.065 126.416 88.575 126.416 88.025C126.416 87.475 126.301 86.99 126.071 86.57C125.841 86.14 125.521 85.81 125.111 85.58C124.711 85.35 124.256 85.235 123.746 85.235C123.236 85.235 122.776 85.35 122.366 85.58C121.966 85.81 121.646 86.14 121.406 86.57C121.176 86.99 121.061 87.475 121.061 88.025C121.061 88.575 121.176 89.065 121.406 89.495C121.646 89.915 121.966 90.245 122.366 90.485C122.776 90.715 123.236 90.83 123.746 90.83ZM135.516 87.875C136.546 88.135 137.061 88.78 137.061 89.81C137.061 90.51 136.796 91.05 136.266 91.43C135.746 91.81 134.966 92 133.926 92H130.101V84.05H133.791C134.731 84.05 135.466 84.23 135.996 84.59C136.526 84.94 136.791 85.44 136.791 86.09C136.791 86.51 136.676 86.875 136.446 87.185C136.226 87.485 135.916 87.715 135.516 87.875ZM131.511 87.47H133.671C134.221 87.47 134.636 87.37 134.916 87.17C135.206 86.97 135.351 86.68 135.351 86.3C135.351 85.54 134.791 85.16 133.671 85.16H131.511V87.47ZM133.821 90.89C134.421 90.89 134.871 90.795 135.171 90.605C135.471 90.415 135.621 90.12 135.621 89.72C135.621 89.31 135.481 89.005 135.201 88.805C134.931 88.605 134.501 88.505 133.911 88.505H131.511V90.89H133.821ZM139.465 84.05H140.905V89.84L145.78 84.05H147.085V92H145.645V86.21L140.785 92H139.465V84.05ZM156.375 84.05V92H154.935V88.79C154.075 89.19 153.22 89.39 152.37 89.39C151.38 89.39 150.615 89.16 150.075 88.7C149.535 88.24 149.265 87.55 149.265 86.63V84.05H150.705V86.54C150.705 87.09 150.875 87.505 151.215 87.785C151.565 88.065 152.05 88.205 152.67 88.205C153.37 88.205 154.125 88.03 154.935 87.68V84.05H156.375Z" fill="black"/>
<rect x="25" y="20" width="94" height="20" rx="10" fill="#625FFF"/>
<path d="M45.02 33.869V35H38.481V34.116L42.186 30.541C42.6367 30.1077 42.94 29.735 43.096 29.423C43.252 29.1023 43.33 28.7817 43.33 28.461C43.33 27.9843 43.161 27.616 42.823 27.356C42.4937 27.0873 42.017 26.953 41.393 26.953C40.3877 26.953 39.612 27.2823 39.066 27.941L38.182 27.174C38.5373 26.7407 39.001 26.4027 39.573 26.16C40.1537 25.9173 40.7993 25.796 41.51 25.796C42.4633 25.796 43.2217 26.0257 43.785 26.485C44.3483 26.9357 44.63 27.551 44.63 28.331C44.63 28.8163 44.526 29.2757 44.318 29.709C44.11 30.1423 43.7157 30.6363 43.135 31.191L40.353 33.869H45.02ZM52.6148 33.869V35H46.0758V34.116L49.7808 30.541C50.2315 30.1077 50.5348 29.735 50.6908 29.423C50.8468 29.1023 50.9248 28.7817 50.9248 28.461C50.9248 27.9843 50.7558 27.616 50.4178 27.356C50.0885 27.0873 49.6118 26.953 48.9878 26.953C47.9825 26.953 47.2068 27.2823 46.6608 27.941L45.7768 27.174C46.1322 26.7407 46.5958 26.4027 47.1678 26.16C47.7485 25.9173 48.3942 25.796 49.1048 25.796C50.0582 25.796 50.8165 26.0257 51.3798 26.485C51.9432 26.9357 52.2248 27.551 52.2248 28.331C52.2248 28.8163 52.1208 29.2757 51.9128 29.709C51.7048 30.1423 51.3105 30.6363 50.7298 31.191L47.9478 33.869H52.6148ZM54.7986 35.078C54.556 35.078 54.348 34.9957 54.1746 34.831C54.0013 34.6577 53.9146 34.441 53.9146 34.181C53.9146 33.9297 54.0013 33.7217 54.1746 33.557C54.348 33.3837 54.556 33.297 54.7986 33.297C55.0413 33.297 55.245 33.3793 55.4096 33.544C55.5743 33.7087 55.6566 33.921 55.6566 34.181C55.6566 34.441 55.57 34.6577 55.3966 34.831C55.232 34.9957 55.0326 35.078 54.7986 35.078ZM60.5816 35.104C59.8623 35.104 59.2209 34.922 58.6576 34.558C58.1029 34.1853 57.6653 33.648 57.3446 32.946C57.0239 32.244 56.8636 31.412 56.8636 30.45C56.8636 29.488 57.0239 28.656 57.3446 27.954C57.6653 27.252 58.1029 26.719 58.6576 26.355C59.2209 25.9823 59.8623 25.796 60.5816 25.796C61.2923 25.796 61.9249 25.9823 62.4796 26.355C63.0429 26.719 63.4849 27.252 63.8056 27.954C64.1263 28.656 64.2866 29.488 64.2866 30.45C64.2866 31.412 64.1263 32.244 63.8056 32.946C63.4849 33.648 63.0429 34.1853 62.4796 34.558C61.9249 34.922 61.2923 35.104 60.5816 35.104ZM60.5816 33.947C61.3096 33.947 61.8903 33.648 62.3236 33.05C62.7656 32.452 62.9866 31.5853 62.9866 30.45C62.9866 29.3147 62.7656 28.448 62.3236 27.85C61.8903 27.252 61.3096 26.953 60.5816 26.953C59.8449 26.953 59.2556 27.252 58.8136 27.85C58.3803 28.448 58.1636 29.3147 58.1636 30.45C58.1636 31.5853 58.3803 32.452 58.8136 33.05C59.2556 33.648 59.8449 33.947 60.5816 33.947ZM73.5815 32.764H71.8525V35H70.5915V32.764H65.5345V31.854L70.1885 25.9H71.5925L67.1335 31.646H70.6305V29.67H71.8525V31.646H73.5815V32.764ZM75.6027 35.078C75.36 35.078 75.152 34.9957 74.9787 34.831C74.8054 34.6577 74.7187 34.441 74.7187 34.181C74.7187 33.9297 74.8054 33.7217 74.9787 33.557C75.152 33.3837 75.36 33.297 75.6027 33.297C75.8454 33.297 76.049 33.3793 76.2137 33.544C76.3784 33.7087 76.4607 33.921 76.4607 34.181C76.4607 34.441 76.374 34.6577 76.2007 34.831C76.036 34.9957 75.8367 35.078 75.6027 35.078ZM84.343 33.869V35H77.804V34.116L81.509 30.541C81.9596 30.1077 82.263 29.735 82.419 29.423C82.575 29.1023 82.653 28.7817 82.653 28.461C82.653 27.9843 82.484 27.616 82.146 27.356C81.8166 27.0873 81.34 26.953 80.716 26.953C79.7106 26.953 78.935 27.2823 78.389 27.941L77.505 27.174C77.8603 26.7407 78.324 26.4027 78.896 26.16C79.4766 25.9173 80.1223 25.796 80.833 25.796C81.7863 25.796 82.5446 26.0257 83.108 26.485C83.6713 26.9357 83.953 27.551 83.953 28.331C83.953 28.8163 83.849 29.2757 83.641 29.709C83.433 30.1423 83.0386 30.6363 82.458 31.191L79.676 33.869H84.343ZM89.2217 35.104C88.5024 35.104 87.8611 34.922 87.2977 34.558C86.7431 34.1853 86.3054 33.648 85.9847 32.946C85.6641 32.244 85.5037 31.412 85.5037 30.45C85.5037 29.488 85.6641 28.656 85.9847 27.954C86.3054 27.252 86.7431 26.719 87.2977 26.355C87.8611 25.9823 88.5024 25.796 89.2217 25.796C89.9324 25.796 90.5651 25.9823 91.1197 26.355C91.6831 26.719 92.1251 27.252 92.4457 27.954C92.7664 28.656 92.9267 29.488 92.9267 30.45C92.9267 31.412 92.7664 32.244 92.4457 32.946C92.1251 33.648 91.6831 34.1853 91.1197 34.558C90.5651 34.922 89.9324 35.104 89.2217 35.104ZM89.2217 33.947C89.9497 33.947 90.5304 33.648 90.9637 33.05C91.4057 32.452 91.6267 31.5853 91.6267 30.45C91.6267 29.3147 91.4057 28.448 90.9637 27.85C90.5304 27.252 89.9497 26.953 89.2217 26.953C88.4851 26.953 87.8957 27.252 87.4537 27.85C87.0204 28.448 86.8037 29.3147 86.8037 30.45C86.8037 31.5853 87.0204 32.452 87.4537 33.05C87.8957 33.648 88.4851 33.947 89.2217 33.947ZM100.663 33.869V35H94.1235V34.116L97.8285 30.541C98.2792 30.1077 98.5825 29.735 98.7385 29.423C98.8945 29.1023 98.9725 28.7817 98.9725 28.461C98.9725 27.9843 98.8035 27.616 98.4655 27.356C98.1362 27.0873 97.6595 26.953 97.0355 26.953C96.0302 26.953 95.2545 27.2823 94.7085 27.941L93.8245 27.174C94.1799 26.7407 94.6435 26.4027 95.2155 26.16C95.7962 25.9173 96.4419 25.796 97.1525 25.796C98.1059 25.796 98.8642 26.0257 99.4275 26.485C99.9909 26.9357 100.273 27.551 100.273 28.331C100.273 28.8163 100.169 29.2757 99.9605 29.709C99.7525 30.1423 99.3582 30.6363 98.7775 31.191L95.9955 33.869H100.663ZM105.345 29.722C106.238 29.8087 106.918 30.086 107.386 30.554C107.854 31.0133 108.088 31.6027 108.088 32.322C108.088 32.842 107.958 33.3143 107.698 33.739C107.438 34.155 107.048 34.4887 106.528 34.74C106.017 34.9827 105.389 35.104 104.643 35.104C103.993 35.104 103.369 35.0087 102.771 34.818C102.173 34.6187 101.684 34.3457 101.302 33.999L101.9 32.972C102.212 33.2667 102.611 33.505 103.096 33.687C103.582 33.8603 104.097 33.947 104.643 33.947C105.319 33.947 105.844 33.804 106.216 33.518C106.598 33.232 106.788 32.8377 106.788 32.335C106.788 31.8323 106.602 31.4423 106.229 31.165C105.857 30.8877 105.293 30.749 104.539 30.749H103.811V29.839L106.099 27.031H101.718V25.9H107.724V26.784L105.345 29.722Z" fill="#DEF0DD"/>
</svg>
